<?xml version="1.0" encoding="utf-8"?>
<!-- Generator: Adobe Illustrator 21.1.0, SVG Export Plug-In . SVG Version: 6.00 Build 0)  -->
<svg version="1.1" id="Capa_1" xmlns="http://www.w3.org/2000/svg" xmlns:xlink="http://www.w3.org/1999/xlink" x="0px" y="0px"
	 viewBox="0 0 548.3 548.3" style="enable-background:new 0 0 548.3 548.3;" xml:space="preserve">
<style type="text/css">
	.st0{fill:#308BE6;}
	.st1{fill:#FFFFFF;}
</style>
<g>
	<g id="XMLID_1_">
		<g>
			<rect x="96.8" y="417.4" class="st0" width="354.8" height="103.6"/>
			<path class="st0" d="M467.6,246.2c16.1,11.9,26.2,31,26.2,58.3c0,29.6-10.8,50-25.7,62.6c-16.3,13.5-41.1,20-71.3,20
				c-18.1,0-31-1.2-39.7-2.3V232.9c12.9-2.1,29.6-3.2,47.3-3.2C433.7,229.7,452.7,235,467.6,246.2z M456.6,305.6
				c0.2-32.1-18.6-49.1-48.6-49.1c-7.8,0-12.9,0.7-15.8,1.4v101.2c3,0.7,7.8,0.7,12.2,0.7C436,360,456.6,342.6,456.6,305.6z"/>
			<path class="st0" d="M183.1,235.2L176,263c-7.1-3-17-5.7-29.4-5.7c-27.8,0-49.4,16.7-49.4,51.2c0,31,18.4,50.5,49.6,50.5
				c10.6,0,22.3-2.3,29.2-5l5.3,27.3c-6.4,3.2-20.9,6.6-39.7,6.6c-53.5,0-81-33.3-81-77.3c0-52.8,37.6-82.1,84.4-82.1
				C163.1,228.3,176.9,232,183.1,235.2z"/>
			<path class="st0" d="M288.5,230.8l47.9,154.6h-37.6l-11.9-39.7h-44.3l-11,39.7h-36.3l47.3-154.6H288.5z M281.8,319.6l-9.6-32.8
				c-2.8-9.2-5.5-20.6-7.8-29.8h-0.4c-2.3,9.2-4.6,20.9-7.1,29.8l-9.2,32.8H281.8z"/>
			<path class="st0" d="M451.5,142.3v53.9H96.8V21.5h249v110c0,5.9,4.8,10.8,10.8,10.8H451.5z"/>
			<path class="st1" d="M516.9,226.9v159.8c0,17-13.8,30.7-30.7,30.7H473v109.4c0,11.9-9.6,21.5-21.5,21.5H96.8
				c-11.9,0-21.5-9.6-21.5-21.5V417.4H62.1c-17,0-30.7-13.8-30.7-30.7V226.9c0-17,13.8-30.7,30.7-30.7h13.2V21.5
				C75.3,9.6,84.9,0,96.8,0h259.8c0.8,0,1.7,0.1,2.5,0.3c0.2,0.1,0.4,0.1,0.6,0.2c0.7,0.2,1.5,0.5,2.1,0.9c0.2,0.1,0.5,0.3,0.7,0.4
				c0.8,0.5,1.5,1.1,2.1,1.8c0,0,0,0,0.1,0.1l105.7,120.8c1.7,2,2.5,4.4,2.6,7c0,0.4,0.1,0.8,0.1,1.2v63.5h13.2
				C503.2,196.1,516.9,209.9,516.9,226.9z M493.8,304.5c0-27.3-10.1-46.4-26.2-58.3c-14.9-11.2-33.9-16.5-63.3-16.5
				c-17.7,0-34.4,1.2-47.3,3.2v151.9c8.7,1.1,21.6,2.3,39.7,2.3c30.3,0,55.1-6.4,71.3-20C483,354.5,493.8,334.1,493.8,304.5z
				 M451.5,521V417.4H96.8V521H451.5z M451.5,196.1v-53.9h-95c-5.9,0-10.8-4.8-10.8-10.8v-110h-249v174.6H451.5z M336.4,385.5
				l-47.9-154.6h-45.9l-47.3,154.6h36.3l11-39.7h44.3l11.9,39.7H336.4z M176,263l7.1-27.8c-6.2-3.2-20-6.9-38.1-6.9
				c-46.8,0-84.4,29.4-84.4,82.1c0,44,27.5,77.3,81,77.3c18.8,0,33.3-3.4,39.7-6.6l-5.3-27.3c-6.9,2.8-18.6,5-29.2,5
				c-31.2,0-49.6-19.5-49.6-50.5c0-34.4,21.6-51.2,49.4-51.2C159,257.2,168.9,260,176,263z"/>
			<path class="st1" d="M408,256.5c30.1,0,48.9,17,48.6,49.1c0,36.9-20.6,54.4-52.3,54.1c-4.3,0-9.2,0-12.2-0.7V257.9
				C395.1,257.2,400.2,256.5,408,256.5z"/>
			<path class="st1" d="M272.1,286.8l9.6,32.8h-34.2l9.2-32.8c2.5-8.9,4.8-20.6,7.1-29.8h0.4C266.6,266.2,269.4,277.6,272.1,286.8z"
				/>
		</g>
		<g>
		</g>
	</g>
</g>
</svg>
