<?xml version="1.0" encoding="utf-8"?>
<!-- Generator: Adobe Illustrator 21.1.0, SVG Export Plug-In . SVG Version: 6.00 Build 0)  -->
<svg version="1.1" id="Capa_1" xmlns="http://www.w3.org/2000/svg" xmlns:xlink="http://www.w3.org/1999/xlink" x="0px" y="0px"
	 viewBox="0 0 512 512" style="enable-background:new 0 0 512 512;" xml:space="preserve">
<style type="text/css">
	.st0{fill:#308BE6;}
	.st1{fill:#FFFFFF;}
</style>
<g>
	<g id="XMLID_1_">
		<g>
			<path class="st0" d="M275.5,60.7v390.6c0,4.2-2.1,8-5.7,10c-1.5,0.9-5.4,2.5-9.8,0.3L127.9,340.2v-44.8c0-5.4-4.4-9.8-9.9-9.8
				c-5.4,0-9.8,4.4-9.8,9.8v39.3l-88.6,0V167.4h88.6v39.4c0,5.5,4.4,9.9,9.8,9.9c5.5,0,9.9-4.4,9.9-9.9v-44.6L259.9,50.5
				c4.5-2.4,8.5-0.7,10,0.2C273.4,52.8,275.5,56.5,275.5,60.7z"/>
			<path class="st1" d="M381.8,69.5C459.7,96,512,168.9,512,251.1c0,82.1-52.2,155-129.9,181.5c-1.1,0.4-2.1,0.5-3.2,0.5
				c-4.1,0-7.9-2.6-9.3-6.7c-1.8-5.2,1-10.8,6.1-12.5c69.7-23.8,116.6-89.3,116.6-162.9c0-73.7-47-139.2-116.8-162.9
				c-5.1-1.8-7.9-7.4-6.2-12.5C371.1,70.6,376.7,67.8,381.8,69.5z"/>
			<path class="st1" d="M423.4,251.1c0,58.8-39.4,111.2-95.9,127.6c-0.9,0.3-1.8,0.4-2.7,0.4c-4.3,0-8.2-2.8-9.5-7.1
				c-1.5-5.2,1.5-10.7,6.7-12.2c48.1-13.9,81.7-58.6,81.7-108.7s-33.6-94.7-81.7-108.7c-5.2-1.5-8.2-7-6.7-12.2
				c1.5-5.2,6.9-8.2,12.2-6.7C384,139.9,423.4,192.3,423.4,251.1z"/>
			<path class="st1" d="M295.2,60.7v390.6c0,11.4-5.9,21.6-15.7,27.1c-4.7,2.6-9.8,4-14.8,4c-5.4,0-10.7-1.5-15.6-4.4
				c-0.6-0.3-1.1-0.7-1.6-1.2L114.3,354.4L9.8,354.4c-2.6,0-5.1-1-7-2.9s-2.9-4.3-2.9-7v-187c0-5.4,4.4-9.8,9.8-9.8h104.6
				L247.8,34.9c0.4-0.3,0.8-0.6,1.3-0.9c9.4-5.7,20.8-5.9,30.4-0.4C289.4,39.2,295.2,49.3,295.2,60.7z M275.5,451.3V60.7
				c0-4.2-2.1-8-5.7-10c-1.5-0.9-5.5-2.6-10-0.2L127.9,162.1v44.6c0,5.5-4.4,9.9-9.9,9.9c-5.4,0-9.8-4.4-9.8-9.9v-39.4H19.7v167.3
				l88.6,0v-39.3c0-5.4,4.4-9.8,9.8-9.8c5.5,0,9.9,4.4,9.9,9.8v44.8L260,461.5c4.4,2.3,8.3,0.6,9.8-0.3
				C273.4,459.3,275.5,455.5,275.5,451.3z"/>
		</g>
		<g>
		</g>
	</g>
</g>
</svg>
