<?xml version="1.0" encoding="utf-8"?>
<!-- Generator: Adobe Illustrator 21.1.0, SVG Export Plug-In . SVG Version: 6.00 Build 0)  -->
<svg version="1.1" id="Capa_1" xmlns="http://www.w3.org/2000/svg" xmlns:xlink="http://www.w3.org/1999/xlink" x="0px" y="0px"
	 viewBox="0 0 512 512" style="enable-background:new 0 0 512 512;" xml:space="preserve">
<style type="text/css">
	.st0{fill:#308BE6;}
	.st1{fill:#FFFFFF;}
</style>
<polygon class="st0" points="74,118.1 80,156 429,156 433,103.7 469.5,90.5 496.7,111 504,398 490,433 461,442 37,442 7,409 
	7,330.1 7,107 48,91 "/>
<g>
	<g id="XMLID_1_">
		<g>
			<path class="st1" d="M512,125.3v284.3c0,0.7-0.1,1.5-0.3,2.1c-2.5,21-20.5,37.4-42.2,37.4H249.3c-4.2,0-7.7-3.4-7.7-7.7
				c0-4.2,3.4-7.7,7.7-7.7h220.3c15,0,27.1-12.2,27.1-27.1s-12.2-27.1-27.1-27.1c-15,0-27.1,12.2-27.1,27.1c0,4.2-3.4,7.7-7.7,7.7
				c-4.2,0-7.7-3.4-7.7-7.7V165.9H220.2c-4.2,0-7.7-3.4-7.7-7.7c0-4.2,3.4-7.7,7.7-7.7h206.9v-25.2c0-23.4,19-42.5,42.5-42.5
				C493,82.8,512,101.9,512,125.3z M496.7,374V125.3c0-15-12.2-27.1-27.1-27.1c-15,0-27.1,12.2-27.1,27.1V374
				c7.4-6.1,16.8-9.8,27.1-9.8C479.8,364.2,489.3,367.9,496.7,374z"/>
			<path class="st1" d="M411.3,373.9v10.4c0,4.2-3.4,7.7-7.7,7.7c-4.2,0-7.7-3.4-7.7-7.7v-10.4c0-4.2,3.4-7.7,7.7-7.7
				C407.9,366.3,411.3,369.7,411.3,373.9z"/>
			<path class="st1" d="M411.3,330.7v10.4c0,4.2-3.4,7.7-7.7,7.7c-4.2,0-7.7-3.4-7.7-7.7v-10.4c0-4.2,3.4-7.7,7.7-7.7
				C407.9,323,411.3,326.4,411.3,330.7z"/>
			<path class="st1" d="M411.3,287.4v10.4c0,4.2-3.4,7.7-7.7,7.7c-4.2,0-7.7-3.4-7.7-7.7v-10.4c0-4.2,3.4-7.7,7.7-7.7
				C407.9,279.7,411.3,283.1,411.3,287.4z"/>
			<path class="st1" d="M411.3,244.1v10.4c0,4.2-3.4,7.7-7.7,7.7c-4.2,0-7.7-3.4-7.7-7.7v-10.4c0-4.2,3.4-7.7,7.7-7.7
				C407.9,236.4,411.3,239.9,411.3,244.1z"/>
			<path class="st1" d="M411.3,188.9v29.2c0,4.2-3.4,7.7-7.7,7.7c-4.2,0-7.7-3.4-7.7-7.7v-21.6h-34.7c-4.2,0-7.7-3.4-7.7-7.7
				c0-4.2,3.4-7.7,7.7-7.7h42.3C407.9,181.2,411.3,184.6,411.3,188.9z"/>
			<path class="st1" d="M411.3,89.4v2.2c0,14.6-11.9,26.5-26.5,26.5H369h-23.9H170.8h0c-0.3,0-0.7,0-1-0.1c-0.1,0-0.2,0-0.2,0
				c-0.3-0.1-0.7-0.1-1-0.2c0,0,0,0,0,0l0,0c0,0-0.1,0-0.1,0l-57.3-17.3c-3.1-0.9-5.3-3.8-5.5-7c-0.1-3.3,1.8-6.3,4.9-7.4L168,63.4
				c0,0,0.1,0,0.1,0c0.2-0.1,0.4-0.1,0.6-0.2c0.1,0,0.2,0,0.2-0.1c0.2,0,0.4-0.1,0.6-0.1c0.1,0,0.2,0,0.3,0c0.2,0,0.5,0,0.7,0
				c0.1,0,0.1,0,0.2,0c0,0,0,0,0,0h174.3H369h15.8C399.4,62.9,411.3,74.8,411.3,89.4z M396,91.6v-2.2c0-6.2-5-11.2-11.2-11.2h-8.1
				v24.5h8.1C391,102.8,396,97.8,396,91.6z M361.3,102.8V78.2h-8.5v24.5H361.3z M337.4,102.8V78.2h-159v24.5H337.4z M163.1,100.1
				V81.8l-26.3,10.3L163.1,100.1z"/>
			<path class="st0" d="M396,89.4v2.2c0,6.2-5,11.2-11.2,11.2h-8.1V78.2h8.1C391,78.2,396,83.3,396,89.4z"/>
			<rect x="352.8" y="78.2" class="st0" width="8.5" height="24.5"/>
			<path class="st1" d="M360.7,274.8v35.6c0,4.2-3.4,7.7-7.7,7.7h-23.8c-5.7,0-8,4.4-8.5,5.7c-0.6,1.3-2.1,6,2,10.1l18,18
				c3,3,3,7.9,0,10.8l-25.1,25.1c-1.4,1.4-3.4,2.3-5.4,2.3s-4-0.8-5.4-2.3l-14.1-14.1c-4.1-4.1-8.7-2.6-10.1-2
				c-1.3,0.6-5.7,2.8-5.7,8.5v16.1c0,4.2-3.4,7.7-7.7,7.7h-35.6c-4.2,0-7.7-3.4-7.7-7.7v-16.1c0-5.7-4.4-8-5.7-8.5
				c-1.3-0.5-6-2-10.1,2l-14.1,14.1c-3,3-7.8,3-10.8,0L158,362.6c-3-3-3-7.8,0-10.8l18-18c4.1-4.1,2.6-8.7,2-10.1
				c-0.6-1.3-2.8-5.7-8.5-5.7h-23.8c-4.2,0-7.7-3.4-7.7-7.7v-35.6c0-4.2,3.4-7.7,7.7-7.7h16.1c5.7,0,8-4.4,8.5-5.7
				c0.6-1.3,2-6-2-10.1L158,241.1c-1.4-1.4-2.3-3.4-2.3-5.4s0.8-4,2.3-5.4l25.1-25.1c3-3,7.9-3,10.8,0l14.1,14.1
				c4.1,4.1,8.7,2.6,10.1,2c1.3-0.6,5.7-2.8,5.7-8.5v-23.8c0-4.2,3.4-7.7,7.7-7.7h35.6c4.2,0,7.7,3.4,7.7,7.7v23.8
				c0,5.7,4.4,8,5.7,8.5c1.3,0.6,6,2.1,10.1-2l14.1-14.1c3-3,7.8-3,10.8,0l25.1,25.1c1.4,1.4,2.2,3.4,2.2,5.4c0,2-0.8,4-2.2,5.4
				l-10.3,10.3c-4.1,4.1-2.6,8.7-2,10.1c0.6,1.3,2.8,5.7,8.5,5.7H353C357.2,267.1,360.7,270.6,360.7,274.8z M345.3,302.7v-20.2h-8.5
				c-10.1,0-18.8-5.8-22.7-15.2c-3.9-9.4-1.8-19.6,5.3-26.8l4.8-4.8l-14.3-14.3l-8.7,8.7c-7.2,7.2-17.4,9.2-26.8,5.3
				c-9.4-3.9-15.2-12.6-15.2-22.7v-16.2h-20.2v16.2c0,10.1-5.8,18.8-15.2,22.7c-9.4,3.9-19.6,1.8-26.8-5.3l-8.7-8.7l-14.3,14.3
				l4.8,4.8c7.2,7.2,9.2,17.4,5.3,26.8c-3.9,9.4-12.6,15.2-22.7,15.2h-8.5v20.2h16.2c10.1,0,18.8,5.8,22.7,15.2
				c3.9,9.4,1.8,19.6-5.3,26.8l-12.5,12.6l14.3,14.3l8.7-8.7c7.2-7.2,17.4-9.2,26.8-5.3c9.3,3.9,15.2,12.6,15.2,22.7v8.5h20.2v-8.5
				c0-10.1,5.8-18.8,15.2-22.7c9.4-3.9,19.6-1.8,26.8,5.3l8.7,8.7l14.3-14.3l-12.6-12.6c-7.2-7.2-9.2-17.4-5.3-26.8
				c3.9-9.4,12.6-15.2,22.7-15.2H345.3z"/>
			<rect x="178.5" y="78.2" class="st0" width="159" height="24.5"/>
			<path class="st1" d="M302.1,292.6c0,29.1-23.7,52.8-52.8,52.8c-29.1,0-52.8-23.7-52.8-52.8c0-29.1,23.7-52.8,52.8-52.8
				C278.4,239.8,302.1,263.5,302.1,292.6z M286.8,292.6c0-20.7-16.8-37.5-37.5-37.5s-37.5,16.8-37.5,37.5
				c0,20.7,16.8,37.5,37.5,37.5S286.8,313.2,286.8,292.6z"/>
			<path class="st1" d="M209,433.8c4.2,0,7.7,3.4,7.7,7.7c0,4.2-3.4,7.7-7.7,7.7H42.5C19,449.1,0,430,0,406.6
				c0-23.4,19-42.5,42.5-42.5c10.3,0,19.8,3.7,27.1,9.8V125.3c0-15-12.2-27.1-27.1-27.1c-14.9,0-27.1,12.2-27.1,27.1v221.9
				c0,4.2-3.4,7.7-7.7,7.7c-4.2,0-7.7-3.4-7.7-7.7V125.3c0-23.4,19-42.5,42.5-42.5c23.4,0,42.5,19.1,42.5,42.5v25.2h101.6
				c4.2,0,7.7,3.4,7.7,7.7c0,4.2-3.4,7.7-7.7,7.7H84.9v240.8c0,4.2-3.4,7.7-7.7,7.7c-4.2,0-7.7-3.4-7.7-7.7
				c0-15-12.2-27.1-27.1-27.1s-27.1,12.2-27.1,27.1s12.2,27.1,27.1,27.1H209z"/>
			<polygon class="st0" points="163.1,81.8 163.1,100.1 136.8,92.2 			"/>
		</g>
		<g>
		</g>
	</g>
</g>
<path class="st1" d="M775,15"/>
</svg>
