<?xml version="1.0" encoding="utf-8"?>
<!-- Generator: Adobe Illustrator 21.1.0, SVG Export Plug-In . SVG Version: 6.00 Build 0)  -->
<svg version="1.1" id="Capa_1" xmlns="http://www.w3.org/2000/svg" xmlns:xlink="http://www.w3.org/1999/xlink" x="0px" y="0px"
	 viewBox="0 0 512 512" style="enable-background:new 0 0 512 512;" xml:space="preserve">
<style type="text/css">
	.st0{fill:#308BE6;}
	.st1{fill:#FFFFFF;}
</style>
<g>
	<g id="XMLID_1_">
		<g>
			<path class="st0" d="M494.9,25.6v25.6h-68.3V25.6c0-4.7,3.8-8.5,8.5-8.5h51.2C491.1,17.1,494.9,20.9,494.9,25.6z"/>
			<polygon class="st0" points="489.7,426.7 460.8,484.4 431.9,426.7 			"/>
			<rect x="469.3" y="68.3" class="st0" width="25.6" height="341.3"/>
			<rect x="426.7" y="68.3" class="st0" width="25.6" height="341.3"/>
			<path class="st0" d="M264.5,247.5c0,30-22.3,54.9-51.2,59v-59c0-4.7-3.8-8.5-8.5-8.5h-59.1c4.2-28.9,29-51.2,59.1-51.2
				C237.7,187.7,264.5,214.5,264.5,247.5z"/>
			<path class="st0" d="M196.3,256v50.5c-26.1-3.8-46.8-24.4-50.5-50.5H196.3z"/>
			<path class="st0" d="M196.3,323.8v34.6H93.9V256h34.6C132.5,291.5,160.7,319.8,196.3,323.8z"/>
			<path class="st0" d="M341.3,42.7v443.7c0,4.7-3.8,8.5-8.5,8.5H25.6c-4.7,0-8.5-3.8-8.5-8.5V42.7c0-4.7,3.8-8.5,8.5-8.5h17.1v8.5
				c0,4.7,3.8,8.5,8.5,8.5s8.5-3.8,8.5-8.5v-8.5h25.6v8.5c0,4.7,3.8,8.5,8.5,8.5c4.7,0,8.5-3.8,8.5-8.5v-8.5H128v8.5
				c0,4.7,3.8,8.5,8.5,8.5c4.7,0,8.5-3.8,8.5-8.5v-8.5h25.6v8.5c0,4.7,3.8,8.5,8.5,8.5c4.7,0,8.5-3.8,8.5-8.5v-8.5h25.6v8.5
				c0,4.7,3.8,8.5,8.5,8.5c4.7,0,8.5-3.8,8.5-8.5v-8.5H256v8.5c0,4.7,3.8,8.5,8.5,8.5s8.5-3.8,8.5-8.5v-8.5h25.6v8.5
				c0,4.7,3.8,8.5,8.5,8.5c4.7,0,8.5-3.8,8.5-8.5v-8.5h17.1C337.5,34.1,341.3,38,341.3,42.7z M213.3,323.8
				c38.3-4.3,68.3-36.8,68.3-76.3c0-42.4-34.5-76.8-76.8-76.8c-39.5,0-72,29.9-76.3,68.3H85.3c-4.7,0-8.5,3.8-8.5,8.5v119.5
				c0,4.7,3.8,8.5,8.5,8.5h119.5c4.7,0,8.5-3.8,8.5-8.5V323.8z"/>
			<path class="st1" d="M512,59.7v358.4c0,1.3-0.3,2.5-0.8,3.6c0,0.1,0,0.2-0.1,0.2l-42.7,85.3c-1.4,2.9-4.4,4.7-7.6,4.7
				c-3.2,0-6.2-1.8-7.6-4.7L410.5,422c0-0.1,0-0.2-0.1-0.2c-0.5-1.1-0.8-2.3-0.8-3.6V59.7V25.6c0-14.1,11.5-25.6,25.6-25.6h51.2
				C500.5,0,512,11.5,512,25.6V59.7z M494.9,409.6V68.3h-25.6v341.3H494.9z M494.9,51.2V25.6c0-4.7-3.8-8.5-8.5-8.5h-51.2
				c-4.7,0-8.5,3.8-8.5,8.5v25.6H494.9z M460.8,484.4l28.9-57.7h-57.7L460.8,484.4z M452.3,409.6V68.3h-25.6v341.3H452.3z"/>
			<path class="st1" d="M358.4,42.7v443.7c0,14.1-11.5,25.6-25.6,25.6H25.6C11.5,512,0,500.5,0,486.4V42.7
				c0-14.1,11.5-25.6,25.6-25.6h17.1V8.5c0-4.7,3.8-8.5,8.5-8.5s8.5,3.8,8.5,8.5v8.5h25.6V8.5c0-4.7,3.8-8.5,8.5-8.5
				c4.7,0,8.5,3.8,8.5,8.5v8.5H128V8.5c0-4.7,3.8-8.5,8.5-8.5c4.7,0,8.5,3.8,8.5,8.5v8.5h25.6V8.5c0-4.7,3.8-8.5,8.5-8.5
				c4.7,0,8.5,3.8,8.5,8.5v8.5h25.6V8.5c0-4.7,3.8-8.5,8.5-8.5c4.7,0,8.5,3.8,8.5,8.5v8.5H256V8.5c0-4.7,3.8-8.5,8.5-8.5
				c4.7,0,8.5,3.8,8.5,8.5v8.5h25.6V8.5c0-4.7,3.8-8.5,8.5-8.5c4.7,0,8.5,3.8,8.5,8.5v8.5h17.1C346.9,17.1,358.4,28.5,358.4,42.7z
				 M341.3,486.4V42.7c0-4.7-3.8-8.5-8.5-8.5h-17.1v8.5c0,4.7-3.8,8.5-8.5,8.5c-4.7,0-8.5-3.8-8.5-8.5v-8.5h-25.6v8.5
				c0,4.7-3.8,8.5-8.5,8.5s-8.5-3.8-8.5-8.5v-8.5h-25.6v8.5c0,4.7-3.8,8.5-8.5,8.5c-4.7,0-8.5-3.8-8.5-8.5v-8.5h-25.6v8.5
				c0,4.7-3.8,8.5-8.5,8.5c-4.7,0-8.5-3.8-8.5-8.5v-8.5h-25.6v8.5c0,4.7-3.8,8.5-8.5,8.5c-4.7,0-8.5-3.8-8.5-8.5v-8.5h-25.6v8.5
				c0,4.7-3.8,8.5-8.5,8.5c-4.7,0-8.5-3.8-8.5-8.5v-8.5H59.7v8.5c0,4.7-3.8,8.5-8.5,8.5s-8.5-3.8-8.5-8.5v-8.5H25.6
				c-4.7,0-8.5,3.8-8.5,8.5v443.7c0,4.7,3.8,8.5,8.5,8.5h307.2C337.5,494.9,341.3,491.1,341.3,486.4z"/>
			<path class="st1" d="M281.6,247.5c0,39.5-29.9,72-68.3,76.3v43.2c0,4.7-3.8,8.5-8.5,8.5H85.3c-4.7,0-8.5-3.8-8.5-8.5V247.5
				c0-4.7,3.8-8.5,8.5-8.5h43.2c4.3-38.3,36.8-68.3,76.3-68.3C247.1,170.7,281.6,205.1,281.6,247.5z M213.3,306.5
				c28.9-4.2,51.2-29,51.2-59c0-32.9-26.8-59.7-59.7-59.7c-30,0-54.9,22.3-59.1,51.2h59.1c4.7,0,8.5,3.8,8.5,8.5V306.5z
				 M196.3,358.4v-34.6c-35.5-4-63.8-32.2-67.8-67.8H93.9v102.4H196.3z M196.3,306.5V256h-50.5C149.5,282.1,170.2,302.8,196.3,306.5
				z"/>
		</g>
		<g>
		</g>
	</g>
</g>
</svg>
