<?xml version="1.0" encoding="utf-8"?>
<!-- Generator: Adobe Illustrator 21.1.0, SVG Export Plug-In . SVG Version: 6.00 Build 0)  -->
<svg version="1.1" id="Layer_1" xmlns="http://www.w3.org/2000/svg" xmlns:xlink="http://www.w3.org/1999/xlink" x="0px" y="0px"
	 viewBox="0 0 512 512" style="enable-background:new 0 0 512 512;" xml:space="preserve">
<style type="text/css">
	.st0{fill:#308BE6;}
	.st1{fill:#FFFFFF;}
</style>
<g>
	<g id="XMLID_1_">
		<g>
			<path class="st0" d="M421.8,97.3h-59.6c-5.2,0-9.4-4.2-9.4-9.4V28.3L421.8,97.3z"/>
			<path class="st0" d="M150.4,406.4v17.7c0,0.3-0.2,0.6-0.6,0.6h-17.7c-0.3,0-0.6-0.3-0.6-0.6v-17.7c0-0.3,0.3-0.6,0.6-0.6h17.7
				C150.1,405.8,150.4,406.1,150.4,406.4z"/>
			<path class="st0" d="M150.4,326.8v17.7c0,0.3-0.2,0.5-0.6,0.5h-17.7c-0.3,0-0.6-0.3-0.6-0.5v-17.7c0-0.3,0.3-0.5,0.6-0.5h17.7
				C150.1,326.2,150.4,326.5,150.4,326.8z"/>
			<path class="st1" d="M450.1,105.6V486c0,14.3-11.6,26-26,26H87.9c-14.3,0-26-11.7-26-26V26c0-14.3,11.7-26,26-26h256.6
				c2.2,0,4.3,0.9,5.9,2.4l97.3,97.3C449.2,101.3,450.1,103.4,450.1,105.6z M433.5,486V113.9h-71.3c-14.3,0-26-11.7-26-26V16.6H87.9
				c-5.2,0-9.4,4.2-9.4,9.4v460c0,5.2,4.2,9.4,9.4,9.4h336.2C429.3,495.4,433.5,491.2,433.5,486z M362.2,97.3h59.6l-69-69v59.6
				C352.8,93.1,357,97.3,362.2,97.3z"/>
			<path class="st0" d="M433.5,113.9V486c0,5.2-4.2,9.4-9.4,9.4H87.9c-5.2,0-9.4-4.2-9.4-9.4V26c0-5.2,4.2-9.4,9.4-9.4h248.3v71.3
				c0,14.3,11.7,26,26,26H433.5z M397,194.1c0-4.6-3.7-8.3-8.3-8.3H194.1c-4.6,0-8.3,3.7-8.3,8.3c0,4.6,3.7,8.3,8.3,8.3h194.6
				C393.3,202.4,397,198.6,397,194.1z M397,353.3c0-4.6-3.7-8.3-8.3-8.3H194.1c-4.6,0-8.3,3.7-8.3,8.3c0,4.6,3.7,8.3,8.3,8.3h194.6
				C393.3,361.6,397,357.9,397,353.3z M317.4,114.4c0-4.6-3.7-8.3-8.3-8.3h-115c-4.6,0-8.3,3.7-8.3,8.3c0,4.6,3.7,8.3,8.3,8.3h115
				C313.7,122.8,317.4,119,317.4,114.4z M317.4,158.7c0-4.6-3.7-8.3-8.3-8.3h-115c-4.6,0-8.3,3.7-8.3,8.3s3.7,8.3,8.3,8.3h115
				C313.7,167,317.4,163.3,317.4,158.7z M317.4,273.7c0-4.6-3.7-8.3-8.3-8.3h-115c-4.6,0-8.3,3.7-8.3,8.3c0,4.6,3.7,8.3,8.3,8.3h115
				C313.7,282,317.4,278.3,317.4,273.7z M317.4,317.9c0-4.6-3.7-8.3-8.3-8.3h-115c-4.6,0-8.3,3.7-8.3,8.3c0,4.6,3.7,8.3,8.3,8.3h115
				C313.7,326.2,317.4,322.5,317.4,317.9z M317.4,432.9c0-4.6-3.7-8.3-8.3-8.3h-115c-4.6,0-8.3,3.7-8.3,8.3c0,4.6,3.7,8.3,8.3,8.3
				h115C313.7,441.2,317.4,437.5,317.4,432.9z M282,79.1c0-4.6-3.7-8.3-8.3-8.3h-79.6c-4.6,0-8.3,3.7-8.3,8.3s3.7,8.3,8.3,8.3h79.6
				C278.3,87.4,282,83.7,282,79.1z M282,238.3c0-4.6-3.7-8.3-8.3-8.3h-79.6c-4.6,0-8.3,3.7-8.3,8.3s3.7,8.3,8.3,8.3h79.6
				C278.3,246.6,282,242.9,282,238.3z M282,397.5c0-4.6-3.7-8.3-8.3-8.3h-79.6c-4.6,0-8.3,3.7-8.3,8.3c0,4.6,3.7,8.3,8.3,8.3h79.6
				C278.3,405.8,282,402.1,282,397.5z M167,424.1v-17.7c0-9.5-7.7-17.1-17.1-17.1h-17.7c-9.4,0-17.1,7.7-17.1,17.1v17.7
				c0,9.5,7.7,17.1,17.1,17.1h17.7C159.3,441.2,167,433.5,167,424.1z M167,344.5v-17.7c0-9.4-7.7-17.1-17.1-17.1h-17.7
				c-9.4,0-17.1,7.7-17.1,17.1v17.7c0,9.5,7.7,17.1,17.1,17.1h17.7C159.3,361.6,167,353.9,167,344.5z M167,264.9v-17.7
				c0-9.4-7.7-17.1-17.1-17.1h-17.7c-9.4,0-17.1,7.7-17.1,17.1v17.7c0,9.4,7.7,17.1,17.1,17.1h17.7C159.3,282,167,274.3,167,264.9z
				 M167,185.2v-17.7c0-9.4-7.7-17.1-17.1-17.1h-17.7c-9.4,0-17.1,7.7-17.1,17.1v17.7c0,9.4,7.7,17.1,17.1,17.1h17.7
				C159.3,202.4,167,194.7,167,185.2z M167,105.6V87.9c0-9.5-7.7-17.1-17.1-17.1h-17.7c-9.4,0-17.1,7.7-17.1,17.1v17.7
				c0,9.4,7.7,17.1,17.1,17.1h17.7C159.3,122.8,167,115.1,167,105.6z"/>
			<path class="st1" d="M388.7,185.8c4.6,0,8.3,3.7,8.3,8.3c0,4.6-3.7,8.3-8.3,8.3H194.1c-4.6,0-8.3-3.7-8.3-8.3
				c0-4.6,3.7-8.3,8.3-8.3H388.7z"/>
			<path class="st1" d="M388.7,345c4.6,0,8.3,3.7,8.3,8.3c0,4.6-3.7,8.3-8.3,8.3H194.1c-4.6,0-8.3-3.7-8.3-8.3
				c0-4.6,3.7-8.3,8.3-8.3H388.7z"/>
			<path class="st1" d="M309.1,106.2c4.6,0,8.3,3.7,8.3,8.3c0,4.6-3.7,8.3-8.3,8.3h-115c-4.6,0-8.3-3.7-8.3-8.3
				c0-4.6,3.7-8.3,8.3-8.3H309.1z"/>
			<path class="st1" d="M309.1,150.4c4.6,0,8.3,3.7,8.3,8.3s-3.7,8.3-8.3,8.3h-115c-4.6,0-8.3-3.7-8.3-8.3s3.7-8.3,8.3-8.3H309.1z"
				/>
			<path class="st1" d="M309.1,265.4c4.6,0,8.3,3.7,8.3,8.3c0,4.6-3.7,8.3-8.3,8.3h-115c-4.6,0-8.3-3.7-8.3-8.3
				c0-4.6,3.7-8.3,8.3-8.3H309.1z"/>
			<path class="st1" d="M309.1,309.6c4.6,0,8.3,3.7,8.3,8.3c0,4.6-3.7,8.3-8.3,8.3h-115c-4.6,0-8.3-3.7-8.3-8.3
				c0-4.6,3.7-8.3,8.3-8.3H309.1z"/>
			<path class="st1" d="M309.1,424.6c4.6,0,8.3,3.7,8.3,8.3c0,4.6-3.7,8.3-8.3,8.3h-115c-4.6,0-8.3-3.7-8.3-8.3
				c0-4.6,3.7-8.3,8.3-8.3H309.1z"/>
			<path class="st1" d="M273.7,70.8c4.6,0,8.3,3.7,8.3,8.3s-3.7,8.3-8.3,8.3h-79.6c-4.6,0-8.3-3.7-8.3-8.3s3.7-8.3,8.3-8.3H273.7z"
				/>
			<path class="st1" d="M273.7,230c4.6,0,8.3,3.7,8.3,8.3s-3.7,8.3-8.3,8.3h-79.6c-4.6,0-8.3-3.7-8.3-8.3s3.7-8.3,8.3-8.3H273.7z"/>
			<path class="st1" d="M273.7,389.3c4.6,0,8.3,3.7,8.3,8.3c0,4.6-3.7,8.3-8.3,8.3h-79.6c-4.6,0-8.3-3.7-8.3-8.3
				c0-4.6,3.7-8.3,8.3-8.3H273.7z"/>
			<path class="st1" d="M167,406.4v17.7c0,9.5-7.7,17.1-17.1,17.1h-17.7c-9.4,0-17.1-7.7-17.1-17.1v-17.7c0-9.5,7.7-17.1,17.1-17.1
				h17.7C159.3,389.3,167,396.9,167,406.4z M150.4,424.1v-17.7c0-0.3-0.2-0.6-0.6-0.6h-17.7c-0.3,0-0.6,0.3-0.6,0.6v17.7
				c0,0.3,0.3,0.6,0.6,0.6h17.7C150.1,424.6,150.4,424.4,150.4,424.1z"/>
			<path class="st1" d="M167,326.8v17.7c0,9.5-7.7,17.1-17.1,17.1h-17.7c-9.4,0-17.1-7.7-17.1-17.1v-17.7c0-9.4,7.7-17.1,17.1-17.1
				h17.7C159.3,309.6,167,317.3,167,326.8z M150.4,344.5v-17.7c0-0.3-0.2-0.5-0.6-0.5h-17.7c-0.3,0-0.6,0.3-0.6,0.5v17.7
				c0,0.3,0.3,0.5,0.6,0.5h17.7C150.1,345,150.4,344.8,150.4,344.5z"/>
			<path class="st1" d="M167,247.1v17.7c0,9.4-7.7,17.1-17.1,17.1h-17.7c-9.4,0-17.1-7.7-17.1-17.1v-17.7c0-9.4,7.7-17.1,17.1-17.1
				h17.7C159.3,230,167,237.7,167,247.1z M150.4,264.9v-17.7c0-0.3-0.2-0.5-0.6-0.5h-17.7c-0.3,0-0.6,0.3-0.6,0.5v17.7
				c0,0.3,0.3,0.5,0.6,0.5h17.7C150.1,265.4,150.4,265.1,150.4,264.9z"/>
			<path class="st1" d="M167,167.5v17.7c0,9.4-7.7,17.1-17.1,17.1h-17.7c-9.4,0-17.1-7.7-17.1-17.1v-17.7c0-9.4,7.7-17.1,17.1-17.1
				h17.7C159.3,150.4,167,158.1,167,167.5z M150.4,185.2v-17.7c0-0.3-0.2-0.6-0.6-0.6h-17.7c-0.3,0-0.6,0.3-0.6,0.6v17.7
				c0,0.3,0.3,0.6,0.6,0.6h17.7C150.1,185.8,150.4,185.5,150.4,185.2z"/>
			<path class="st1" d="M167,87.9v17.7c0,9.4-7.7,17.1-17.1,17.1h-17.7c-9.4,0-17.1-7.7-17.1-17.1V87.9c0-9.5,7.7-17.1,17.1-17.1
				h17.7C159.3,70.8,167,78.5,167,87.9z M150.4,105.6V87.9c0-0.3-0.2-0.6-0.6-0.6h-17.7c-0.3,0-0.6,0.3-0.6,0.6v17.7
				c0,0.3,0.3,0.6,0.6,0.6h17.7C150.1,106.2,150.4,105.9,150.4,105.6z"/>
			<path class="st0" d="M150.4,247.1v17.7c0,0.3-0.2,0.5-0.6,0.5h-17.7c-0.3,0-0.6-0.3-0.6-0.5v-17.7c0-0.3,0.3-0.5,0.6-0.5h17.7
				C150.1,246.6,150.4,246.9,150.4,247.1z"/>
			<path class="st0" d="M150.4,167.5v17.7c0,0.3-0.2,0.6-0.6,0.6h-17.7c-0.3,0-0.6-0.3-0.6-0.6v-17.7c0-0.3,0.3-0.6,0.6-0.6h17.7
				C150.1,167,150.4,167.2,150.4,167.5z"/>
			<path class="st0" d="M150.4,87.9v17.7c0,0.3-0.2,0.6-0.6,0.6h-17.7c-0.3,0-0.6-0.3-0.6-0.6V87.9c0-0.3,0.3-0.6,0.6-0.6h17.7
				C150.1,87.4,150.4,87.6,150.4,87.9z"/>
		</g>
		<g>
		</g>
	</g>
</g>
</svg>
