<?xml version="1.0" encoding="utf-8"?>
<!-- Generator: Adobe Illustrator 21.1.0, SVG Export Plug-In . SVG Version: 6.00 Build 0)  -->
<svg version="1.1" id="Capa_1" xmlns="http://www.w3.org/2000/svg" xmlns:xlink="http://www.w3.org/1999/xlink" x="0px" y="0px"
	 viewBox="0 0 512 512" style="enable-background:new 0 0 512 512;" xml:space="preserve">
<style type="text/css">
	.st0{fill:#308BE6;}
	.st1{fill:#FFFFFF;}
</style>
<g>
	<g id="XMLID_1_">
		<g>
			<path class="st0" d="M471.2,119.7l-62.4,30.1c-0.4-0.3-0.8-0.6-1.3-0.8L193.8,45.8l62.2-30L471.2,119.7z"/>
			<polygon class="st0" points="396.8,172.3 396.8,250.9 355.7,270.7 355.7,192.1 			"/>
			<polygon class="st0" points="391.8,158.1 347.8,179.3 132.9,75.6 176.9,54.3 			"/>
			<path class="st0" d="M481,131.7v255.9l-217.5,105V236.7l51.9-25c3.7-1.8,5.3-6.3,3.5-10c-1.8-3.7-6.3-5.3-10-3.5L256,223.6
				l-20.8-10c-3.7-1.8-8.2-0.2-10,3.5s-0.2,8.2,3.5,10l19.8,9.6v255.9L31,387.6V131.7l165.6,79.9c1,0.5,2.2,0.8,3.3,0.8
				c2.8,0,5.5-1.6,6.8-4.2c1.8-3.7,0.2-8.2-3.5-10L40.8,119.7l74.5-36l225.3,108.8c0,0.1,0.1,0.1,0.1,0.1v90c0,2.6,1.3,5,3.5,6.4
				c1.2,0.8,2.6,1.1,4,1.1c1.1,0,2.2-0.3,3.3-0.8l56.1-27.1c2.6-1.3,4.2-3.9,4.2-6.8v-90.5L481,131.7z M127.8,348.1
				c1.8-3.7,0.2-8.2-3.5-10l-65.5-31.6c-3.7-1.8-8.2-0.2-10,3.5c-1.8,3.7-0.2,8.2,3.5,10l65.5,31.6c1,0.5,2.2,0.8,3.3,0.8
				C123.8,352.3,126.5,350.7,127.8,348.1z M96.4,368.5c1.8-3.7,0.2-8.2-3.5-10L58.8,342c-3.7-1.8-8.2-0.2-10,3.5s-0.2,8.2,3.5,10
				L86.4,372c1.1,0.5,2.2,0.8,3.3,0.8C92.4,372.7,95.1,371.2,96.4,368.5z"/>
			<path class="st1" d="M496,119.7v272.5c0,2.9-1.6,5.5-4.2,6.8L259.3,511.3c-1,0.5-2.2,0.8-3.3,0.8c-1.1,0-2.2-0.3-3.3-0.8
				L20.3,399c-2.6-1.3-4.2-3.9-4.2-6.8V119.7c0-2.9,1.6-5.5,4.2-6.8L252.7,0.8c2.1-1,4.5-1,6.5,0L491.7,113
				C494.3,114.2,496,116.8,496,119.7z M481,387.6V131.7l-69.2,33.4v90.5c0,2.9-1.6,5.5-4.2,6.8l-56.1,27.1c-1,0.5-2.2,0.8-3.3,0.8
				c-1.4,0-2.8-0.4-4-1.1c-2.2-1.4-3.5-3.8-3.5-6.4v-90c0,0-0.1-0.1-0.1-0.1L115.3,83.8l-74.5,36l162.4,78.4c3.7,1.8,5.3,6.3,3.5,10
				c-1.3,2.7-4,4.2-6.8,4.2c-1.1,0-2.2-0.2-3.3-0.8L31,131.7v255.9l217.5,105V236.7l-19.8-9.6c-3.7-1.8-5.3-6.3-3.5-10
				s6.3-5.3,10-3.5l20.8,10l52.9-25.5c3.7-1.8,8.2-0.2,10,3.5c1.8,3.7,0.2,8.2-3.5,10l-51.9,25v255.9L481,387.6z M408.8,149.8
				l62.4-30.1L256,15.8l-62.2,30L407.6,149C408,149.3,408.4,149.5,408.8,149.8z M396.8,250.9v-78.5l-41.1,19.8v78.6L396.8,250.9z
				 M347.8,179.3l44-21.3L176.9,54.3l-43.9,21.3L347.8,179.3z"/>
			<path class="st1" d="M124.3,338c3.7,1.8,5.3,6.3,3.5,10c-1.3,2.7-4,4.2-6.8,4.2c-1.1,0-2.2-0.2-3.3-0.8L52.3,320
				c-3.7-1.8-5.3-6.3-3.5-10c1.8-3.7,6.3-5.3,10-3.5L124.3,338z"/>
			<path class="st1" d="M92.9,358.5c3.7,1.8,5.3,6.3,3.5,10c-1.3,2.7-4,4.3-6.8,4.3c-1.1,0-2.2-0.2-3.3-0.8l-34.1-16.5
				c-3.7-1.8-5.3-6.3-3.5-10s6.3-5.3,10-3.5L92.9,358.5z"/>
		</g>
		<g>
		</g>
	</g>
</g>
</svg>
