<?xml version="1.0" encoding="utf-8"?>
<!-- Generator: Adobe Illustrator 21.1.0, SVG Export Plug-In . SVG Version: 6.00 Build 0)  -->
<svg version="1.1" id="Capa_1" xmlns="http://www.w3.org/2000/svg" xmlns:xlink="http://www.w3.org/1999/xlink" x="0px" y="0px"
	 viewBox="0 0 512 512" style="enable-background:new 0 0 512 512;" xml:space="preserve">
<style type="text/css">
	.st0{fill:#308BE6;}
	.st1{fill:#FFFFFF;}
</style>
<g>
	<g id="XMLID_1_">
		<g>
			<path class="st0" d="M397.9,201.3c4.5,31.4,9.1,63.9,9.1,98.9c0,41.3-43.2,68.7-104.1,102.9c-13.6,7.6-26.6,14.9-38.6,22.5v-73.2
				c54.4-4.2,97.3-49.9,97.3-105.3c0-55.4-43-101.1-97.3-105.3v-55c21.9,11.9,46.3,18.1,71.3,18.1c19.3,0,38.6-3.8,56.5-11.1
				C387.4,127.5,392.5,163.5,397.9,201.3z"/>
			<path class="st0" d="M296.7,237.1l-17,16.6c-2,1.9-2.9,4.6-2.4,7.3l4,23.4l-21-11c-2.4-1.3-5.3-1.3-7.7,0l-21,11l4-23.4
				c0.5-2.7-0.4-5.4-2.4-7.3l-17-16.6l23.5-3.4c2.7-0.4,5-2.1,6.3-4.5l10.5-21.3l10.5,21.3c1.2,2.4,3.6,4.1,6.3,4.5L296.7,237.1z"/>
			<path class="st0" d="M256,158.1c49.1,0,89,39.9,89,89c0,49.1-39.9,89-89,89s-89-39.9-89-89C167,198,206.9,158.1,256,158.1z
				 M314.7,242.7c3.4-3.3,4.5-8.1,3.1-12.5c-1.4-4.4-5.2-7.6-9.9-8.3l-28-4.1l-12.5-25.4c-2.1-4.2-6.3-6.8-10.9-6.8
				c-4.7,0-8.9,2.6-10.9,6.8L233,217.9l-28,4.1c-4.6,0.7-8.4,3.9-9.8,8.3c-1.4,4.4-0.3,9.2,3.1,12.5l20.2,19.7l-4.8,27.9
				c-0.8,4.6,1.1,9.2,4.8,11.9c3.8,2.8,8.7,3.1,12.9,0.9l25-13.2l25,13.2c1.8,0.9,3.8,1.4,5.7,1.4c2.5,0,5-0.8,7.2-2.3
				c3.8-2.8,5.7-7.3,4.9-11.9l-4.8-27.9L314.7,242.7z"/>
			<path class="st0" d="M247.7,352.4v73.2c-12-7.6-25-14.9-38.6-22.5c-61-34.2-104.1-61.6-104.1-102.9c0-35,4.6-67.5,9.1-98.9
				c5.4-37.8,10.5-73.8,5.8-107.4c17.9,7.3,37.1,11.1,56.5,11.1c25.1,0,49.5-6.2,71.3-18.1v55c-54.4,4.2-97.3,49.9-97.3,105.3
				C150.4,302.5,193.3,348.2,247.7,352.4z"/>
			<path class="st0" d="M419.2,19.4L454.7,55c-28.1,34.5-21.4,81.3-13.1,140.1c4.5,31.4,9.5,67,9.5,105.1c0,31-13.3,58.6-40.7,84.1
				c-24.6,23-57.2,41.2-86,57.4c-28.8,16.2-54.5,30.5-68.5,47.2c-14-16.6-39.6-31-68.5-47.2c-28.8-16.1-61.4-34.4-86-57.4
				c-27.4-25.5-40.7-53-40.7-84.1c0-38.1,5.1-73.7,9.6-105.1c8.4-58.7,15-105.6-13.1-140.1l35.6-35.6c20,26,50.8,41.3,83.5,41.3
				c30.6,0,59.7-13.4,79.6-36.3c20,22.9,49,36.3,79.6,36.3C368.4,60.7,399.2,45.4,419.2,19.4z M423.6,300.2
				c0-36.2-4.7-69.2-9.3-101.2c-6-42.4-11.8-82.5-2.9-117.6c0.8-3.2-0.4-6.6-3-8.6c-2.6-2-6.2-2.3-9.1-0.7
				c-19.5,10.7-41.5,16.3-63.8,16.3c-26.8,0-52.7-8-75-23.2c-2.8-1.9-6.5-1.9-9.3,0c-22.2,15.2-48.2,23.2-75,23.2
				c-22.2,0-44.3-5.7-63.8-16.3c-2.9-1.6-6.4-1.3-9.1,0.7s-3.8,5.4-3,8.6c8.9,35.1,3.2,75.2-2.9,117.6c-4.6,32-9.3,65.1-9.3,101.2
				c0,50.3,46.7,80.4,112.6,117.3c18.3,10.3,35.6,20,50.2,30.3c1.4,1,3.1,1.5,4.8,1.5c1.7,0,3.4-0.5,4.8-1.5
				c14.5-10.4,31.8-20.1,50.1-30.3C376.9,380.5,423.6,350.5,423.6,300.2z"/>
			<path class="st1" d="M470.2,47c4.2,4.1,4.3,10.8,0.3,15.1c-26.8,29-20.4,73.8-12.4,130.5c4.5,32,9.7,68.2,9.7,107.5
				c0,80.1-75,122.1-135.2,155.9c-31.4,17.6-61,34.2-69.1,51.2c-1.4,2.9-4.3,4.7-7.5,4.7s-6.1-1.8-7.5-4.7
				c-8.1-17-37.8-33.6-69.1-51.2c-60.2-33.8-135.2-75.8-135.2-155.9c0-39.3,5.2-75.5,9.7-107.5C62,136,68.4,91.2,41.5,62.2
				c-4-4.3-3.9-11,0.3-15.1L85.5,3.3c2.4-2.4,5.7-3.6,9-3.3c3.4,0.3,6.4,2.1,8.3,4.9c16.7,24.5,44.1,39.1,73.5,39.1
				c28.9,0,56.1-14.2,72.9-38c1.6-2.2,4.1-3.5,6.8-3.5c2.7,0,5.2,1.3,6.8,3.5c16.7,23.8,43.9,38,72.9,38c29.4,0,56.9-14.6,73.5-39.1
				c1.9-2.8,5-4.6,8.3-4.9c3.3-0.3,6.6,0.9,9,3.3L470.2,47z M454.7,55l-35.6-35.6c-20,26-50.8,41.3-83.5,41.3
				C305,60.7,276,47.3,256,24.4c-20,22.9-49,36.3-79.6,36.3c-32.8,0-63.6-15.3-83.5-41.3L57.3,55c28.1,34.5,21.4,81.3,13.1,140.1
				c-4.5,31.4-9.6,67-9.6,105.1c0,31,13.3,58.6,40.7,84.1c24.6,23,57.2,41.2,86,57.4c28.8,16.2,54.5,30.5,68.5,47.2
				c14-16.6,39.6-31,68.5-47.2c28.8-16.1,61.4-34.4,86-57.4c27.4-25.5,40.7-53,40.7-84.1c0-38.1-5.1-73.7-9.5-105.1
				C433.3,136.3,426.6,89.5,454.7,55z"/>
			<path class="st1" d="M414.3,198.9c4.6,32,9.3,65.1,9.3,101.2c0,50.3-46.7,80.4-112.6,117.3c-18.3,10.3-35.6,20-50.1,30.3
				c-1.4,1-3.1,1.5-4.8,1.5c-1.7,0-3.4-0.5-4.8-1.5c-14.5-10.4-31.8-20.1-50.2-30.3c-65.9-37-112.6-67-112.6-117.3
				c0-36.1,4.7-69.2,9.3-101.2c6-42.4,11.8-82.5,2.9-117.6c-0.8-3.2,0.4-6.6,3-8.6s6.2-2.3,9.1-0.7c19.5,10.7,41.5,16.3,63.8,16.3
				c26.8,0,52.7-8,75-23.2c2.8-1.9,6.5-1.9,9.3,0c22.2,15.2,48.2,23.2,75,23.2c22.2,0,44.3-5.7,63.8-16.3c2.9-1.6,6.4-1.3,9.1,0.7
				c2.6,2,3.8,5.4,3,8.6C402.5,116.5,408.3,156.5,414.3,198.9z M407,300.2c0-35-4.6-67.5-9.1-98.9c-5.4-37.8-10.5-73.8-5.8-107.4
				c-17.9,7.3-37.1,11.1-56.5,11.1c-25.1,0-49.5-6.2-71.3-18.1v55c54.4,4.2,97.3,49.9,97.3,105.3c0,55.5-43,101.1-97.3,105.3v73.2
				c12-7.6,25-14.9,38.6-22.5C363.8,368.9,407,341.5,407,300.2z M345,247.1c0-49.1-39.9-89-89-89s-89,39.9-89,89
				c0,49.1,39.9,89,89,89S345,296.2,345,247.1z M247.7,425.6v-73.2c-54.4-4.2-97.3-49.9-97.3-105.3c0-55.4,43-101.1,97.3-105.3v-55
				c-21.9,11.9-46.3,18.1-71.3,18.1c-19.4,0-38.6-3.8-56.5-11.1c4.8,33.7-0.4,69.7-5.8,107.4c-4.5,31.4-9.1,63.9-9.1,98.9
				c0,41.3,43.2,68.7,104.1,102.9C222.7,410.7,235.7,418,247.7,425.6z"/>
			<path class="st1" d="M317.8,230.2c1.4,4.4,0.3,9.2-3.1,12.5l-20.2,19.7l4.8,27.9c0.8,4.6-1.1,9.2-4.9,11.9
				c-2.1,1.5-4.6,2.3-7.2,2.3c-1.9,0-3.9-0.5-5.7-1.4l-25-13.2l-25,13.2c-4.1,2.2-9.1,1.8-12.9-0.9c-3.8-2.8-5.6-7.3-4.8-11.9
				l4.8-27.9l-20.2-19.7c-3.4-3.3-4.5-8.1-3.1-12.5c1.4-4.4,5.2-7.6,9.8-8.3l28-4.1l12.5-25.4c2.1-4.2,6.3-6.8,10.9-6.8
				c4.7,0,8.9,2.6,10.9,6.8l12.5,25.4l28,4.1C312.5,222.6,316.3,225.8,317.8,230.2z M279.7,253.6l17-16.6l-23.5-3.4
				c-2.7-0.4-5-2.1-6.3-4.5l-10.5-21.3L246,229.1c-1.2,2.4-3.6,4.1-6.3,4.5l-23.5,3.4l17,16.6c1.9,1.9,2.9,4.6,2.4,7.3l-4,23.4
				l21-11c2.4-1.3,5.3-1.3,7.7,0l21,11l-4-23.4C276.9,258.3,277.8,255.5,279.7,253.6z"/>
		</g>
		<g>
		</g>
	</g>
</g>
</svg>
