<?xml version="1.0" encoding="utf-8"?>
<!-- Generator: Adobe Illustrator 19.0.1, SVG Export Plug-In . SVG Version: 6.00 Build 0)  -->
<svg version="1.1" id="Layer_1" xmlns="http://www.w3.org/2000/svg" xmlns:xlink="http://www.w3.org/1999/xlink" x="0px" y="0px"
	 viewBox="-851 853.8 295.2 295.2" style="enable-background:new -851 853.8 295.2 295.2;" xml:space="preserve">
<style type="text/css">
	.st0{fill:#A1A1A1;}
</style>
<g>
	<g id="XMLID_1_">
		<g>
			<path class="st0" d="M-555.8,976.8c0,4.9-1.9,9.5-5.3,12.9l-51.8,51.8v93.3c0,7.9-6.4,14.3-14.3,14.3h-209.5
				c-7.9-0.1-14.3-6.5-14.3-14.3V868.1c0-7.9,6.4-14.3,14.3-14.3h209.5c7.9,0,14.3,6.4,14.3,14.3v9.2c3-5.5,4.8-11.8,4.8-18.7h9.5
				c0,23.1,14.9,38.1,38.1,38.1v9.5c-21,0-38.1,25.9-38.1,42.9h-9.5c0-6.5-1.7-13.3-4.8-19.5V990l26-26c3.5-3.4,8-5.3,12.9-5.3
				C-563.9,958.6-555.8,966.7-555.8,976.8z M-567.8,982.9c1.6-1.6,2.5-3.9,2.5-6.2c0-4.8-3.9-8.7-8.7-8.7c-2.3,0-4.5,0.9-6.2,2.5
				l-16.5,16.5l12.3,12.3L-567.8,982.9z M-591.1,1006.2L-591.1,1006.2l-12.3-12.3l0,0l-83.7,83.7l0,0l12.3,12.3l0,0L-591.1,1006.2z
				 M-602.8,928.1c4.6-10.1,12.4-19.7,22.2-25.6c-10.5-4.2-18.5-11.9-23.1-22.1c-4.8,9.5-12.7,17.1-22.4,21.5
				C-616,907.4-607.6,916.8-602.8,928.1z M-622.4,1134.8v-83.7l-49.7,49.7l-45.1,19.3l19.3-45.1l0.6-0.6l1.4-1.4h-26.6v-33.3h33.3
				v26.6l66.7-66.7v-83c-6.4-6.2-14.6-10.2-23.8-10.2v-9.5c9.1,0,17.3-3,23.8-8.2v-20.6c0-2.6-2.1-4.8-4.8-4.8h-209.4
				c-2.6,0-4.8,2.1-4.8,4.8v266.7c0,2.6,2.1,4.8,4.8,4.8h209.5C-624.6,1139.5-622.4,1137.4-622.4,1134.8z M-699.1,1101.9l15.9-6.8
				l-9.1-9.1L-699.1,1101.9z M-698.6,1063.3V1049h-14.3v14.3H-698.6z"/>
			<rect x="-597.3" y="991.4" class="st0" width="0" height="17.4"/>
			<rect x="-641.5" y="1120.5" class="st0" width="9.5" height="9.5"/>
			<rect x="-727.2" y="958.6" class="st0" width="85.7" height="9.5"/>
			<rect x="-727.2" y="930" class="st0" width="85.7" height="9.5"/>
			<rect x="-660.5" y="1120.5" class="st0" width="9.5" height="9.5"/>
			<rect x="-679.6" y="1015.7" class="st0" width="23.8" height="9.5"/>
			<rect x="-679.6" y="996.7" class="st0" width="23.8" height="9.5"/>
			<rect x="-727.2" y="901.4" class="st0" width="66.7" height="9.5"/>
			<rect x="-681" y="1075.1" class="st0" width="0" height="17.4"/>
			<path class="st0" d="M-689.1,991.9v33.3h-33.3v-33.3H-689.1z M-698.6,1015.7v-14.3h-14.3v14.3H-698.6z"/>
			<rect x="-808.1" y="1110.9" class="st0" width="85.7" height="9.5"/>
			<rect x="-808.1" y="1091.9" class="st0" width="85.7" height="9.5"/>
			<rect x="-765.3" y="1053.8" class="st0" width="23.8" height="9.5"/>
			<rect x="-765.3" y="1015.7" class="st0" width="23.8" height="9.5"/>
			<rect x="-765.3" y="996.7" class="st0" width="23.8" height="9.5"/>
			<rect x="-765.3" y="953.8" class="st0" width="9.5" height="9.5"/>
			<path class="st0" d="M-774.8,1039.5v33.3h-33.3v-33.3H-774.8z M-784.3,1063.3V1049h-14.3v14.3H-784.3z"/>
			<path class="st0" d="M-774.8,991.9v33.3h-33.3v-33.3H-774.8z M-784.3,1015.7v-14.3h-14.3v14.3H-784.3z"/>
			<rect x="-812.9" y="953.8" class="st0" width="38.1" height="9.5"/>
			<path class="st0" d="M-789.1,934.7c10.5,0,19-8.5,19-19s-8.5-19-19-19s-19,8.5-19,19S-799.6,934.7-789.1,934.7z M-789.1,887.1
				c15.8,0,28.6,12.8,28.6,28.6c0,15.8-12.8,28.6-28.6,28.6c-15.8,0-28.6-12.8-28.6-28.6C-817.7,900-804.8,887.1-789.1,887.1z"/>
			<rect x="-832" y="1120.5" class="st0" width="9.5" height="9.5"/>
		</g>
	</g>
</g>
</svg>
