<?xml version="1.0" encoding="utf-8"?>
<!-- Generator: Adobe Illustrator 19.0.1, SVG Export Plug-In . SVG Version: 6.00 Build 0)  -->
<svg version="1.1" id="Capa_1" xmlns="http://www.w3.org/2000/svg" xmlns:xlink="http://www.w3.org/1999/xlink" x="0px" y="0px"
	 viewBox="-743 745 512 512" style="enable-background:new -743 745 512 512;" xml:space="preserve">
<style type="text/css">
	.st0{fill:#A1A1A1;}
</style>
<g>
	<g id="XMLID_1_">
		<g>
			<path class="st0" d="M-231,787.7v51.2c0,23.5-19.1,42.6-42.7,42.7h-307.2c-14.1,0-25.6,11.5-25.6,25.6v307.2
				c0,23.6-19.1,42.6-42.7,42.7h-51.1c-23.6-0.1-42.7-19.2-42.7-42.8V804.7c0-32.9,26.8-59.7,59.7-59.7h409.6
				C-250.1,745-231,764.1-231,787.7z M-248.1,838.9v-51.2c0-14.1-11.5-25.6-25.6-25.6h-409.6c-23.5,0-42.6,19.1-42.7,42.7v409.6
				c0,14.1,11.5,25.6,25.6,25.6h51.2c14.1,0,25.6-11.5,25.6-25.6V907.1c0-23.6,19.1-42.6,42.7-42.7h307.2
				C-259.5,864.4-248.1,853-248.1,838.9z"/>
			<path class="st0" d="M-299.2,779.2c18.8,0,34.1,15.2,34.1,34.1c0,18.9-15.3,34.1-34.1,34.1c-18.9,0-34.1-15.3-34.1-34.1
				S-318,779.2-299.2,779.2z M-282.2,813.3c0-1.2-0.1-2.3-0.3-3.4c0-0.2-0.1-0.4-0.1-0.6c-0.2-0.9-0.5-1.8-0.9-2.6
				c-0.2-0.5-0.4-1-0.7-1.5c-0.5-0.8-1-1.6-1.5-2.3c-0.2-0.3-0.5-0.6-0.7-0.9c-0.4-0.5-0.9-1-1.4-1.4c-0.3-0.3-0.6-0.5-0.9-0.7
				c-0.7-0.6-1.5-1.1-2.3-1.5c-0.5-0.3-1-0.5-1.5-0.7c-0.9-0.4-1.7-0.7-2.6-0.9c-0.2,0-0.4-0.1-0.6-0.1c-1.1-0.2-2.3-0.3-3.4-0.3
				c-2.1,0-4,0.4-5.9,1c-6.5,2.4-11.2,8.7-11.2,16.1c0,1.2,0.1,2.3,0.4,3.4c0,0.2,0.1,0.4,0.1,0.6c0.2,0.9,0.5,1.8,0.9,2.6
				c0.2,0.5,0.5,1,0.7,1.5c0.5,0.8,1,1.6,1.5,2.3c0.2,0.3,0.5,0.6,0.7,0.9c0.4,0.5,0.9,1,1.4,1.4c0.3,0.3,0.6,0.5,0.9,0.7
				c0.7,0.6,1.5,1.1,2.3,1.5c0.5,0.3,1,0.5,1.5,0.7c0.9,0.4,1.7,0.7,2.6,0.9c0.2,0.1,0.4,0.1,0.6,0.1c1.1,0.2,2.3,0.3,3.4,0.3
				c8.3,0,15.2-5.9,16.8-13.7C-282.3,815.6-282.2,814.5-282.2,813.3z"/>
			<path class="st0" d="M-282.7,809.3c0.1,0.2,0.1,0.4,0.1,0.6C-282.6,809.7-282.6,809.5-282.7,809.3z"/>
			<path class="st0" d="M-283.5,806.7c-0.2-0.5-0.4-1-0.7-1.5C-284,805.7-283.7,806.2-283.5,806.7z"/>
			<path class="st0" d="M-285.8,802.8c-0.2-0.3-0.5-0.6-0.7-0.9C-286.3,802.2-286,802.5-285.8,802.8z"/>
			<path class="st0" d="M-282.5,816.7c-1.6,7.8-8.4,13.7-16.8,13.7C-291.1,830.3-284.1,824.5-282.5,816.7z"/>
			<path class="st0" d="M-312.1,824.7c-0.3-0.3-0.5-0.6-0.7-0.9C-312.6,824.1-312.3,824.4-312.1,824.7z"/>
			<path class="st0" d="M-315.1,819.9c0.2,0.5,0.5,1,0.7,1.5C-314.6,820.9-314.9,820.4-315.1,819.9z"/>
			<path class="st0" d="M-316,816.7c0,0.2,0.1,0.4,0.1,0.6C-316,817.1-316,816.9-316,816.7z"/>
			<path class="st0" d="M-487,779.2c18.8,0,34.1,15.2,34.1,34.1c0,18.9-15.3,34.1-34.1,34.1s-34.1-15.3-34.1-34.1
				S-505.8,779.2-487,779.2z M-469.9,813.3c0-1.2-0.1-2.3-0.4-3.4c0-0.2-0.1-0.4-0.1-0.6c-0.2-0.9-0.5-1.8-0.9-2.6
				c-0.2-0.5-0.5-1-0.7-1.5c-0.4-0.8-1-1.6-1.5-2.3c-0.2-0.3-0.5-0.6-0.7-0.9c-0.5-0.5-0.9-1-1.4-1.4c-0.3-0.3-0.6-0.5-0.9-0.7
				c-0.7-0.6-1.5-1.1-2.3-1.5c-0.5-0.3-1-0.5-1.5-0.7c-0.9-0.4-1.7-0.7-2.6-0.9c-0.2,0-0.4-0.1-0.6-0.1c-1.1-0.2-2.3-0.3-3.4-0.3
				s-2.3,0.1-3.4,0.3c-6.7,1.3-12,6.6-13.3,13.3c-0.2,1.1-0.4,2.3-0.4,3.5s0.1,2.3,0.4,3.4c0,0.2,0.1,0.4,0.1,0.6
				c0.2,0.9,0.5,1.8,0.9,2.6c0.2,0.5,0.4,1,0.7,1.5c0.4,0.8,1,1.6,1.5,2.3c0.2,0.3,0.5,0.6,0.7,0.9c0.4,0.5,0.9,1,1.4,1.4
				c0.3,0.3,0.6,0.5,0.9,0.7c0.7,0.6,1.5,1.1,2.3,1.5c0.5,0.3,1,0.5,1.5,0.7c0.9,0.4,1.7,0.7,2.6,0.9c0.2,0.1,0.4,0.1,0.6,0.1
				c1.1,0.2,2.3,0.3,3.4,0.3c8.3,0,15.2-5.9,16.8-13.7C-470,815.6-469.9,814.5-469.9,813.3z"/>
			<path class="st0" d="M-470.4,809.3c0,0.2,0.1,0.4,0.1,0.6C-470.3,809.7-470.3,809.5-470.4,809.3z"/>
			<path class="st0" d="M-471.2,806.7c-0.2-0.5-0.5-1-0.7-1.5C-471.7,805.7-471.5,806.2-471.2,806.7z"/>
			<path class="st0" d="M-473.5,802.8c-0.2-0.3-0.5-0.6-0.7-0.9C-474,802.2-473.7,802.5-473.5,802.8z"/>
			<path class="st0" d="M-470.2,816.7c-1.6,7.8-8.4,13.7-16.8,13.7C-478.8,830.3-471.9,824.5-470.2,816.7z"/>
			<path class="st0" d="M-499.8,824.7c-0.3-0.3-0.5-0.6-0.7-0.9C-500.3,824.1-500,824.4-499.8,824.7z"/>
			<path class="st0" d="M-502.8,819.9c0.2,0.5,0.4,1,0.7,1.5C-502.3,820.9-502.6,820.4-502.8,819.9z"/>
			<path class="st0" d="M-503.7,816.7c0,0.2,0.1,0.4,0.1,0.6C-503.7,817.1-503.7,816.9-503.7,816.7z"/>
			<path class="st0" d="M-640.6,813.3c0,18.9-15.3,34.1-34.1,34.1s-34.2-15.3-34.2-34.1s15.3-34.1,34.1-34.1
				C-655.9,779.2-640.6,794.4-640.6,813.3z M-674.7,830.4c9.5,0,17.1-7.7,17.1-17.1c0-9.2-7.3-16.7-16.3-17.1c-0.3,0-0.6,0-0.9,0
				s-0.5,0-0.8,0c-9,0.4-16.3,7.8-16.3,17.1c0,9.1,7.2,16.7,16.3,17.1C-675.3,830.4-675.1,830.4-674.7,830.4
				C-674.8,830.4-674.7,830.4-674.7,830.4z"/>
			<path class="st0" d="M-640.6,1001c0,18.9-15.3,34.1-34.1,34.1s-34.2-15.2-34.2-34.1s15.3-34.1,34.1-34.1
				C-655.9,966.9-640.6,982.2-640.6,1001z M-673.9,1018.1c9.1-0.4,16.3-7.9,16.3-17.1s-7.3-16.7-16.3-17.1c-0.3,0-0.6,0-0.9,0
				c-0.3,0-0.5,0-0.8,0c-9,0.4-16.3,7.8-16.3,17.1c0,9.2,7.2,16.7,16.3,17.1c0.3,0,0.5,0,0.8,0
				C-674.5,1018.1-674.2,1018.1-673.9,1018.1z"/>
			<path class="st0" d="M-674.7,1154.6c18.8,0,34.1,15.3,34.1,34.1c0,18.8-15.3,34.1-34.1,34.1s-34.1-15.3-34.1-34.1
				C-708.8,1169.8-693.5,1154.6-674.7,1154.6z M-657.6,1188.8c0-4.5-1.7-8.5-4.5-11.6c-0.3-0.4-0.7-0.7-1.1-1.1
				c-3-2.8-7.1-4.5-11.6-4.5c-9.4,0-17.1,7.6-17.1,17.1c0,4.2,1.5,8,4,11c0.2,0.2,0.3,0.4,0.5,0.6c0.3,0.4,0.7,0.7,1,1
				c0.2,0.2,0.4,0.4,0.6,0.5c3,2.5,6.8,4,11,4C-665.2,1205.9-657.6,1198.2-657.6,1188.8z"/>
			<path class="st0" d="M-657.7,813.3c0-9.1-7.1-16.6-16.2-17.1C-664.9,796.6-657.6,804.1-657.7,813.3c0.1,9.4-7.5,17.1-17,17.1
				C-665.2,830.3-657.7,822.7-657.7,813.3z"/>
			<path class="st0" d="M-657.7,1001c0-9.1-7.1-16.6-16.2-17.1C-664.9,984.3-657.6,991.8-657.7,1001c0.1,9.1-7.1,16.7-16.2,17.1
				C-664.8,1017.6-657.7,1010.1-657.7,1001z"/>
			<path class="st0" d="M-674.8,1205.8c9.5,0,17.1-7.7,17.1-17.1c0-4.4-1.7-8.4-4.4-11.5c2.8,3,4.5,7.1,4.5,11.6
				C-657.6,1198.2-665.2,1205.9-674.8,1205.8c-4.1,0.1-7.9-1.4-10.9-3.9C-682.7,1204.3-679,1205.8-674.8,1205.8z"/>
			<path class="st0" d="M-686.3,1201.4c0.2,0.2,0.4,0.4,0.6,0.5C-685.9,1201.7-686.1,1201.5-686.3,1201.4z"/>
		</g>
	</g>
</g>
</svg>
