<?xml version="1.0" encoding="utf-8"?>
<!-- Generator: Adobe Illustrator 19.0.1, SVG Export Plug-In . SVG Version: 6.00 Build 0)  -->
<svg version="1.1" id="Layer_1" xmlns="http://www.w3.org/2000/svg" xmlns:xlink="http://www.w3.org/1999/xlink" x="0px" y="0px"
	 viewBox="-743 745 512 512" style="enable-background:new -743 745 512 512;" xml:space="preserve">
<style type="text/css">
	.st0{fill:#A1A1A1;}
</style>
<g>
	<g id="XMLID_1_">
		<g>
			<path class="st0" d="M-487,1137.5c18.8,0,34.1,15.4,34.1,34.1c0,18.8-15.4,34.1-34.1,34.1s-34.1-15.4-34.1-34.1
				C-521.1,1152.9-505.8,1137.5-487,1137.5z M-469.9,1171.7c0-9.4-7.7-17.1-17.1-17.1s-17.1,7.7-17.1,17.1c0,9.4,7.7,17.1,17.1,17.1
				C-477.6,1188.7-469.9,1181-469.9,1171.7z"/>
			<path class="st0" d="M-547.6,796.1c0.2-0.5,0.4-1,0.5-1.6C-547.3,795.1-547.4,795.6-547.6,796.1z"/>
			<path class="st0" d="M-557.1,804.5c0.3-0.1,0.6-0.1,0.8-0.2C-556.6,804.4-556.8,804.5-557.1,804.5z"/>
			<path class="st0" d="M-572.5,792v-12.9c0-5.1-3.4-8.4-8.4-8.5h0.1c5.1,0,8.5,3.4,8.5,8.5v12.8c0,3.3,1.6,6.6,4.1,9.2
				c1.1,1,2.4,1.9,3.8,2.5c1.6,0.7,3.5,1,5.6,1.1c0.6,0,1.1-0.1,1.7-0.2c-0.6,0.2-1.3,0.2-1.9,0.3c-2.1-0.1-3.9-0.4-5.6-1.1
				c-1.4-0.6-2.6-1.5-3.8-2.5C-570.8,798.7-572.5,795.4-572.5,792z"/>
			<path class="st0" d="M-623.5,787.7v25.6v51.2v17.1c0,9.1,7.2,16.6,16.2,17.1c-9.1-0.3-16.4-7.9-16.4-17.1v-17.1v-51.2v-25.6
				c0-5.1-3.4-8.5-8.4-8.5h0.1C-626.9,779.2-623.5,782.6-623.5,787.7z"/>
			<path class="st0" d="M-650.9,829c6.1-2.6,10.4-8.7,10.4-15.7v-25.6c0-5.1,3.3-8.5,8.4-8.5c5,0,8.4,3.4,8.4,8.5v25.6v51.2v17.1
				c0,9.2,7.3,16.7,16.4,17.1c0.3,0,0.6,0,0.9,0c0.2,0,0.4,0,0.7,0c9.1-0.3,16.4-7.9,16.4-17.1v-17.1v-68.3v-4.3v-12.8
				c0-5.1,3.4-8.4,8.4-8.5c5,0,8.4,3.4,8.4,8.5V792c0,3.4,1.7,6.7,4.1,9.2c1.2,1,2.4,1.9,3.8,2.5c1.7,0.7,3.5,1,5.6,1.1
				c0.6-0.1,1.3-0.1,1.9-0.3c0.3,0,0.5-0.1,0.8-0.2c0.2,0,0.4-0.1,0.6-0.2c1.1-0.4,2.2-0.9,3.3-1.6c0.8-0.6,1.5-1.3,2.2-2.1
				c0.5-0.6,1-1.2,1.4-1.9c0.5-0.8,0.9-1.6,1.2-2.4c0.2-0.5,0.4-1,0.5-1.6c0.3-1.1,0.4-2.3,0.4-3.4v-29h-128h-0.2v49.5
				c0,10.1,7.5,17.6,15.8,18.7c0.1,0,0.1,0,0.2,0c0.3,0,0.6,0,0.9,0c0.2,0,0.4,0,0.7,0c2-0.1,3.9-0.4,5.7-1.1
				C-651.4,829.1-651.2,829.1-650.9,829C-651,829-651,829-650.9,829z M-239.5,864.5v76.8c0,5.1-3.4,8.5-8.5,8.5v59.7
				c0,23.9-18.8,42.7-42.7,42.7H-376c-10.2,0-20.5,4.3-26.4,11.9c-6.8,7.7-9.4,17.9-7.7,28.2l9.4,57.2c6,35.8-10.2,71.7-39.3,93
				c-14.6,10.2-30.8,14.5-47,14.5s-32.4-5.1-46.1-14.5c-29.9-20.5-45.2-57.2-39.3-92.2l9.4-57.2c1.7-10.2-1.7-20.5-7.7-28.2
				c-6.8-8.5-17.1-12.8-27.3-12.8h-85.3c-23.9,0-42.7-18.8-42.7-42.7v-59.7c-5.1,0-8.5-3.4-8.5-8.5v-76.8c0-5.1,3.4-8.5,8.5-8.5
				v-85.3c0.1-14.5,11.2-25.6,25.7-25.6h17.1h145.1h264.5c14.5,0,25.6,11.1,25.6,25.6v85.3C-243,855.9-239.5,859.3-239.5,864.5z
				 M-256.6,932.7V873h-315.7v8.5c0,18.8-15.4,34.1-34.1,34.1c-0.6,0-1.2,0-1.8-0.1c-1.2-0.1-2.3-0.2-3.4-0.3
				c-0.6-0.1-1.1-0.2-1.7-0.3c-1.7-0.3-3.3-0.8-4.8-1.4c-1.6-0.6-3.1-1.3-4.5-2.1c-2.4-1.3-4.7-2.9-6.7-4.8
				c-1.6-1.5-3.1-3.1-4.4-4.9c-1-1.3-1.9-2.7-2.7-4.1c-2.6-4.8-4.1-10.4-4.1-16.2V873h-76.9v59.7H-256.6z M-264.3,1009.5v-59.7
				h-444.6v17.1h42.7c5.1,0,8.5,3.4,8.5,8.5c0,5.1-3.4,8.5-8.5,8.5h-42.7v17.1h25.6c5.1,0,8.5,3.4,8.5,8.5s-3.4,8.5-8.5,8.5h-24.2
				c3.4,10.1,12.7,17.1,24.2,17.1h85.3c15.4,0,29.9,6.8,40.1,18.8c10.2,11.9,14.5,27.3,11.9,41.8l-9.4,57.2
				c-4.3,29,7.7,58.9,32.4,75.9c21.3,15.4,51.2,15.4,72.5,0c23.9-17.1,36.7-46.9,32.4-75.9l-9.4-57.2c-2.6-15.4,1.7-30.7,11.9-41.8
				c10.2-12,24.8-18.8,40.1-18.8h85.3C-275.4,1035.1-264.3,1024-264.3,1009.5z M-265.1,855.9v-85.3c0-5.1-3.4-8.5-8.5-8.5h-256v29
				v0.8c0,6.6-2.3,12.8-6.1,17.8c-4.9,6.6-12.2,11.1-20.4,12.1c-5.1,0.8-11.1,0-16.2-2.6v36.7C-572.3,855.9-265.1,855.9-265.1,855.9
				z M-640.6,855.9v-12.8c-3.9,2.6-8.8,3.7-14,4.1c-1,0.1-2.1,0.2-3.1,0.2c-0.1,0-0.3,0-0.4,0c-0.4,0-0.9,0-1.3,0
				c-3.5-0.2-6.8-0.9-10-2.1c-0.1,0-0.2-0.1-0.3-0.1c-0.3-0.1-0.6-0.2-0.9-0.4c-12.4-5.1-21.2-17.3-21.2-31.5v-1.7v-49.5h-8.5
				c-4.3,0-8.5,4.3-8.5,8.5v85.3H-640.6z"/>
			<path class="st0" d="M-674.7,811.6c0,10.1,7.4,17.6,15.8,18.7c-0.1,0-0.1,0-0.2,0c-8.3-1.1-15.8-8.6-15.8-18.7v-49.5h0.2V811.6z"
				/>
		</g>
	</g>
</g>
</svg>
