<?xml version="1.0" encoding="utf-8"?>
<!-- Generator: Adobe Illustrator 19.0.1, SVG Export Plug-In . SVG Version: 6.00 Build 0)  -->
<svg version="1.1" id="Capa_1" xmlns="http://www.w3.org/2000/svg" xmlns:xlink="http://www.w3.org/1999/xlink" x="0px" y="0px"
	 viewBox="-751 753 496 496" style="enable-background:new -751 753 496 496;" xml:space="preserve">
<style type="text/css">
	.st0{fill:#A1A1A1;}
</style>
<g>
	<g id="XMLID_1_">
		<g>
			<rect x="-439" y="857" class="st0" width="16" height="16"/>
			<path class="st0" d="M-431,889c13.2,0,24,10.8,24,24v40h-16v-40c0-4.4-3.6-8-8-8h-24v80h24c4.4,0,8-3.6,8-8v-8h16v8
				c0,13.2-10.8,24-24,24h-24v24c0,13.2,10.8,24,24,24h32c4.4,0,8-3.6,8-8V849c0-4.4-3.6-8-8-8h-32c-13.2,0-24,10.8-24,24v24H-431z
				 M-271,1121v128h-184c-0.3,0-0.5,0-0.8,0c-5.9,0-11.6-1-17-3.1c-5.4-2-10.5-5-14.9-8.8l-49.3-42.7c-3.6,8.6-12.1,14.6-22,14.6
				h-16c-13.2,0-24-10.8-24-24v-60.5V993c0-13.2,10.8-24,24-24v-80c0-13.2-10.8-24-24-24h-24v16h-56v5l49.5,57.8l-13.8,27.5
				l-60.9-26.1l-5.6,39.8h22.8v264h-64V993v-8V753h39.1l8,63.7l60.8-26l13.8,27.5l-12.9,14.8h19.2v16h24c22.1,0,40,17.9,40,40v80
				c13.2,0,24,10.8,24,24v107.2l72,61.7V1121c0-21.1,7.1-41.5,19.8-58.1c-16.1-5.2-27.8-20.1-27.8-37.9V865c0-22.1,17.9-40,40-40h32
				c11,0,20.2,7.5,23,17.6c5.6-0.9,11.3-1.6,17-1.6c57.3,0,104,46.7,104,104c0,42.1-25.1,78.3-61.1,94.6
				C-288.6,1057-271,1087.6-271,1121z M-308.7,1017.1c22.7-15.9,37.7-42.3,37.7-72.1c0-48.5-39.5-88-88-88c-5.4,0-10.7,0.7-16,1.6
				V889h21.8l8.2,24.6c14.8,2.8,26,15.8,26,31.4c0,14.7-10,27.1-23.5,30.9c2.1,14.3,10.5,27.2,23.1,34.8L-308.7,1017.1z M-287,1233
				v-112c0-32.7-20.2-62.2-50.4-74.3c-7,1.5-14.2,2.3-21.6,2.3c-5.7,0-11.4-0.6-17-1.6c-2.8,10.1-12,17.6-23,17.6h-25
				c-14.8,15-23,34.8-23,56v36.7l82.1-82c6.8-6.9,16-10.6,25.6-10.6c20,0,36.3,16.3,36.3,36.3c0,9.7-3.8,18.8-10.6,25.7L-419.7,1233
				H-287z M-324.9,1115.6c3.8-3.8,5.9-8.9,5.9-14.3c0-11.2-9.1-20.3-20.3-20.3c-5.4,0-10.5,2.1-14.3,5.9l-42.1,42.1l28.7,28.7
				L-324.9,1115.6z M-324.8,1026.1l-2.9-1.7C-347,1012.7-359,991.5-359,969v-8h8c8.8,0,16-7.2,16-16s-7.2-16-16-16h-5.8l-8-24H-375
				v126.4c5.3,1,10.6,1.6,16,1.6C-346.9,1033-335.3,1030.5-324.8,1026.1z M-432.8,1223.5l54.5-54.5l-28.7-28.7l-37.5,37.5l10.7,9.2
				l-10.4,12.1l-104.3-89.4c-3.5-3-8-4.7-12.7-4.7h-2.4c-10.7,0-19.5,8.7-19.5,19.5c0,5.6,2.4,11,6.7,14.7l99.1,85.8
				c5.9,5.2,13.5,8,21.4,8c4.4,0,8.6-0.9,12.6-2.5C-439.4,1228.9-435.9,1226.5-432.8,1223.5z M-551,1185v-2.7l-32-27.7v30.4
				c0,4.4,3.6,8,8,8h16C-554.6,1193-551,1189.4-551,1185z M-583,1094.9c5.6-3.7,12.3-5.9,19.5-5.9h2.4c3.4,0,6.8,0.6,10.1,1.6V1017
				h-32 M-551,1001v-8c0-4.4-3.6-8-8-8h-16c-4.4,0-8,3.6-8,8v8H-551z M-639,865v-16h-16.9l-13.7,16H-639z M-648.5,815.8l-2.2-4.5
				l-50.7,21.7h-16.7l-8-64h-8.9v216h9.1l8-56h16.6l50.6,21.7l2.2-4.5L-695,892v-22L-648.5,815.8z M-703,1233v-232h-32v232H-703z"/>
		</g>
	</g>
</g>
</svg>
