<svg xmlns="http://www.w3.org/2000/svg" width="36" height="44" viewBox="0 0 36 44">
  <metadata><?xpacket begin="﻿" id="W5M0MpCehiHzreSzNTczkc9d"?>
<x:xmpmeta xmlns:x="adobe:ns:meta/" x:xmptk="Adobe XMP Core 5.6-c140 79.160451, 2017/05/06-01:08:21        ">
   <rdf:RDF xmlns:rdf="http://www.w3.org/1999/02/22-rdf-syntax-ns#">
      <rdf:Description rdf:about=""/>
   </rdf:RDF>
</x:xmpmeta>
                                                                                                    
                                                                                                    
                                                                                                    
                                                                                                    
                                                                                                    
                                                                                                    
                                                                                                    
                                                                                                    
                                                                                                    
                                                                                                    
                                                                                                    
                                                                                                    
                                                                                                    
                                                                                                    
                                                                                                    
                                                                                                    
                                                                                                    
                                                                                                    
                                                                                                    
                                                                                                    
                           
<?xpacket end="w"?></metadata>
<defs>
    <style>
      .cls-1 {
        fill: #333;
        fill-rule: evenodd;
      }
    </style>
  </defs>
  <path id="Forma_1" data-name="Forma 1" class="cls-1" d="M1238.95,3379.17l-5.74-14.07a0.695,0.695,0,1,0-1.28.54l5.19,12.71-4.73-1.39a0.688,0.688,0,0,0-.8.34l-2.38,4.38-5.57-13.64a14.053,14.053,0,1,0-13.82-5.46l-6.77,16.59a0.7,0.7,0,0,0,.13.73,0.666,0.666,0,0,0,.7.21l5.59-1.64,2.8,5.17a0.7,0.7,0,0,0,.61.36h0.04a0.713,0.713,0,0,0,.6-0.43l5.36-13.14a0.711,0.711,0,0,0-.38-0.92,0.684,0.684,0,0,0-.9.38l-4.81,11.79-2.38-4.38a0.688,0.688,0,0,0-.8-0.34l-4.73,1.39,5.94-14.55a13.83,13.83,0,0,0,10.18,4.49c0.41,0,.82-0.02,1.23-0.05l6.25,15.33a0.713,0.713,0,0,0,.6.43h0.04a0.7,0.7,0,0,0,.61-0.36l2.8-5.17,5.59,1.64a0.666,0.666,0,0,0,.7-0.21A0.7,0.7,0,0,0,1238.95,3379.17Zm-30.5-25.02a12.551,12.551,0,1,1,12.55,12.74A12.666,12.666,0,0,1,1208.45,3354.15Zm20.54-2.64a0.683,0.683,0,0,0-.54-0.47l-4.66-.8-2.18-4.25a0.688,0.688,0,0,0-1.22,0l-2.18,4.25-4.66.8a0.683,0.683,0,0,0-.54.47,0.712,0.712,0,0,0,.16.71l3.31,3.42-0.7,4.74a0.7,0.7,0,0,0,.28.67,0.692,0.692,0,0,0,.72.06l4.22-2.14,4.22,2.14a0.7,0.7,0,0,0,.31.07,0.668,0.668,0,0,0,.41-0.13,0.7,0.7,0,0,0,.28-0.67l-0.7-4.74,3.31-3.42A0.712,0.712,0,0,0,1228.99,3351.51Zm-4.7,3.39a0.732,0.732,0,0,0-.19.6l0.55,3.75-3.34-1.69a0.721,0.721,0,0,0-.62,0l-3.34,1.69,0.55-3.75a0.732,0.732,0,0,0-.19-0.6l-2.62-2.7,3.68-.63a0.682,0.682,0,0,0,.5-0.37l1.73-3.36,1.73,3.36a0.682,0.682,0,0,0,.5.37l3.68,0.63Zm7.19-.04a0.683,0.683,0,0,0-.78.6,9.941,9.941,0,1,1,0-2.62,0.692,0.692,0,1,0,1.37-.19,11.346,11.346,0,1,0,0,2.99A0.69,0.69,0,0,0,1231.48,3354.86Z" transform="translate(-1203 -3340)"/>
</svg>
