<svg xmlns="http://www.w3.org/2000/svg" width="33" height="44" viewBox="0 0 33 44">
  <metadata><?xpacket begin="﻿" id="W5M0MpCehiHzreSzNTczkc9d"?>
<x:xmpmeta xmlns:x="adobe:ns:meta/" x:xmptk="Adobe XMP Core 5.6-c140 79.160451, 2017/05/06-01:08:21        ">
   <rdf:RDF xmlns:rdf="http://www.w3.org/1999/02/22-rdf-syntax-ns#">
      <rdf:Description rdf:about=""/>
   </rdf:RDF>
</x:xmpmeta>
                                                                                                    
                                                                                                    
                                                                                                    
                                                                                                    
                                                                                                    
                                                                                                    
                                                                                                    
                                                                                                    
                                                                                                    
                                                                                                    
                                                                                                    
                                                                                                    
                                                                                                    
                                                                                                    
                                                                                                    
                                                                                                    
                                                                                                    
                                                                                                    
                                                                                                    
                                                                                                    
                           
<?xpacket end="w"?></metadata>
<defs>
    <style>
      .cls-1 {
        fill: #333;
        fill-rule: evenodd;
      }
    </style>
  </defs>
  <path id="Forma_1" data-name="Forma 1" class="cls-1" d="M474.484,3350.34a0.68,0.68,0,1,1-1.36,0v-6.41H449.878v9.28H473.8a0.685,0.685,0,0,1,0,1.37H449.2a0.686,0.686,0,0,1-.681-0.69v-10.65a0.687,0.687,0,0,1,.681-0.69H473.8a0.686,0.686,0,0,1,.68.69v7.1h0Zm-22.455,9.08v-1.29h-2.151v1.29h2.151Zm1.363-1.97v2.66a0.686,0.686,0,0,1-.681.69H449.2a0.686,0.686,0,0,1-.681-0.69v-2.66a0.687,0.687,0,0,1,.681-0.69h3.515A0.686,0.686,0,0,1,453.392,3357.45Zm2.154,2.66v-2.66a0.687,0.687,0,0,1,.682-0.69h3.514a0.687,0.687,0,0,1,.682.69v2.66a0.687,0.687,0,0,1-.682.69h-3.515a0.686,0.686,0,0,1-.681-0.69h0Zm1.363-1.97v1.28h2.153v-1.28h-2.153Zm12.7,1.97v-2.66a0.685,0.685,0,0,1,.68-0.69H473.8a0.686,0.686,0,0,1,.68.69v2.66a0.686,0.686,0,0,1-.68.69h-3.514a0.686,0.686,0,0,1-.682-0.69h0Zm1.362-1.97v1.28h2.153v-1.28h-2.153Zm-4.878,1.28v-1.29h-2.152v1.29h2.152Zm1.362-1.97v2.66a0.686,0.686,0,0,1-.681.69h-3.514a0.686,0.686,0,0,1-.681-0.69v-2.66a0.687,0.687,0,0,1,.681-0.69h3.514A0.686,0.686,0,0,1,467.453,3357.45Zm-15.424,8.19v-1.29h-2.151v1.29h2.151Zm1.363-1.98v2.67a0.686,0.686,0,0,1-.681.69H449.2a0.686,0.686,0,0,1-.681-0.69v-2.67a0.678,0.678,0,0,1,.681-0.68h3.515A0.671,0.671,0,0,1,453.392,3363.66Zm2.154,2.67v-2.67a0.678,0.678,0,0,1,.682-0.68h3.514a0.685,0.685,0,0,1,.682.68v2.67a0.687,0.687,0,0,1-.682.69h-3.515a0.686,0.686,0,0,1-.681-0.69h0Zm1.363-1.98v1.29h2.153v-1.29h-2.153Zm12.7,1.98v-2.67a0.677,0.677,0,0,1,.68-0.68H473.8a0.684,0.684,0,0,1,.68.68v2.67a0.686,0.686,0,0,1-.68.69h-3.514a0.686,0.686,0,0,1-.682-0.69h0Zm1.362-1.98v1.29h2.153v-1.29h-2.153Zm-4.878,1.29v-1.29h-2.152v1.29h2.152Zm1.362-1.98v2.67a0.686,0.686,0,0,1-.681.69h-3.514a0.686,0.686,0,0,1-.681-0.69v-2.67a0.678,0.678,0,0,1,.681-0.68h3.514A0.671,0.671,0,0,1,467.453,3363.66Zm-15.424,8.19v-1.28h-2.151v1.28h2.151Zm1.363-1.97v2.66a0.686,0.686,0,0,1-.681.69H449.2a0.686,0.686,0,0,1-.681-0.69v-2.66a0.687,0.687,0,0,1,.681-0.69h3.515A0.686,0.686,0,0,1,453.392,3369.88Zm2.154,2.66v-2.66a0.687,0.687,0,0,1,.682-0.69h3.514a0.687,0.687,0,0,1,.682.69v2.66a0.687,0.687,0,0,1-.682.69h-3.515a0.686,0.686,0,0,1-.681-0.69h0Zm1.363-1.97v1.29h2.153v-1.29h-2.153Zm-4.88,7.5v-1.29h-2.151v1.29h2.151Zm1.363-1.97v2.66a0.686,0.686,0,0,1-.681.69H449.2a0.686,0.686,0,0,1-.681-0.69v-2.66a0.687,0.687,0,0,1,.681-0.69h3.515A0.686,0.686,0,0,1,453.392,3376.1Zm2.154,2.66v-2.66a0.687,0.687,0,0,1,.682-0.69h3.514a0.681,0.681,0,0,1,.682.69v2.66a0.687,0.687,0,0,1-.682.69h-3.515a0.686,0.686,0,0,1-.681-0.69h0Zm1.363-1.98v1.29h2.153v-1.29h-2.153Zm16.213-4.93v-1.28h-9.184v1.28h9.184Zm1.362-1.97v2.66a0.685,0.685,0,0,1-.68.69H463.258a0.686,0.686,0,0,1-.681-0.69v-2.66a0.687,0.687,0,0,1,.681-0.69H473.8A0.686,0.686,0,0,1,474.484,3369.88Zm-1.362,8.19v-1.29h-9.184v1.29h9.184Zm1.362-1.97v2.66a0.685,0.685,0,0,1-.68.69H463.258a0.686,0.686,0,0,1-.681-0.69v-2.66a0.687,0.687,0,0,1,.681-0.69H473.8A0.686,0.686,0,0,1,474.484,3376.1Zm-0.68-35.72H449.2a2.805,2.805,0,0,0-2,.84h0a2.867,2.867,0,0,0-.831,2.02v35.52a2.864,2.864,0,0,0,.832,2.02h0a2.805,2.805,0,0,0,2,.84H473.8a2.8,2.8,0,0,0,2-.84,2.865,2.865,0,0,0,.834-2.02v-35.52a2.865,2.865,0,0,0-.834-2.02l-0.03-.04a2.848,2.848,0,0,0-1.97-.8h0ZM449.2,3339H473.8a4.165,4.165,0,0,1,2.916,1.2l0.048,0.05a4.227,4.227,0,0,1,1.232,2.99v35.52a4.227,4.227,0,0,1-1.232,2.99A4.156,4.156,0,0,1,473.8,3383H449.2a4.153,4.153,0,0,1-2.964-1.25h0a4.258,4.258,0,0,1-1.232-2.99v-35.52a4.222,4.222,0,0,1,1.232-2.99l0-.01A4.185,4.185,0,0,1,449.2,3339Z" transform="translate(-445 -3339)"/>
</svg>
