<svg xmlns="http://www.w3.org/2000/svg" width="48" height="45" viewBox="0 0 48 45">
  <metadata><?xpacket begin="﻿" id="W5M0MpCehiHzreSzNTczkc9d"?>
<x:xmpmeta xmlns:x="adobe:ns:meta/" x:xmptk="Adobe XMP Core 5.6-c140 79.160451, 2017/05/06-01:08:21        ">
   <rdf:RDF xmlns:rdf="http://www.w3.org/1999/02/22-rdf-syntax-ns#">
      <rdf:Description rdf:about=""/>
   </rdf:RDF>
</x:xmpmeta>
                                                                                                    
                                                                                                    
                                                                                                    
                                                                                                    
                                                                                                    
                                                                                                    
                                                                                                    
                                                                                                    
                                                                                                    
                                                                                                    
                                                                                                    
                                                                                                    
                                                                                                    
                                                                                                    
                                                                                                    
                                                                                                    
                                                                                                    
                                                                                                    
                                                                                                    
                                                                                                    
                           
<?xpacket end="w"?></metadata>
<defs>
    <style>
      .cls-1 {
        fill: #333;
        fill-rule: evenodd;
      }
    </style>
  </defs>
  <path class="cls-1" d="M867,3484.3h-1.7v-12.72a3.382,3.382,0,0,0-3.393-3.36h-2.3l-2.351-4.18a2.043,2.043,0,0,0-1.78-1.04,2.125,2.125,0,0,0-.989.25l-9.023,4.97H822.392a3.382,3.382,0,0,0-3.392,3.36v33.06a3.382,3.382,0,0,0,3.392,3.36h39.519a3.382,3.382,0,0,0,3.393-3.36v-11.77H867v-8.57h0Zm-5.089-14.74a2.027,2.027,0,0,1,2.013,1.8h-2.55l-1-1.8h1.542Zm-6.757-5.13a0.685,0.685,0,0,1,.922.26l3.746,6.67H842.57Zm8.793,40.21a2.033,2.033,0,0,1-2.036,2.02H822.392a2.032,2.032,0,0,1-2.035-2.02v-33.06a2.032,2.032,0,0,1,2.035-2.02h20.639l-3.254,1.8h-16.96a0.67,0.67,0,1,0,0,1.34h41.13v11.61h-4.962a4.158,4.158,0,0,0-4.18,4.13v0.29a4.167,4.167,0,0,0,4.18,4.14h4.962v11.77h0Zm1.7-13.12h-6.658a2.809,2.809,0,0,1-2.823-2.79v-0.29a2.809,2.809,0,0,1,2.823-2.79h6.658v5.87Zm-4.58-2.88a1.5,1.5,0,1,1-1.5-1.48A1.488,1.488,0,0,1,861.063,3488.64Z" transform="translate(-819 -3463)"/>
</svg>
