<svg xmlns="http://www.w3.org/2000/svg" width="45" height="45" viewBox="0 0 45 45">
  <metadata><?xpacket begin="﻿" id="W5M0MpCehiHzreSzNTczkc9d"?>
<x:xmpmeta xmlns:x="adobe:ns:meta/" x:xmptk="Adobe XMP Core 5.6-c140 79.160451, 2017/05/06-01:08:21        ">
   <rdf:RDF xmlns:rdf="http://www.w3.org/1999/02/22-rdf-syntax-ns#">
      <rdf:Description rdf:about=""/>
   </rdf:RDF>
</x:xmpmeta>
                                                                                                    
                                                                                                    
                                                                                                    
                                                                                                    
                                                                                                    
                                                                                                    
                                                                                                    
                                                                                                    
                                                                                                    
                                                                                                    
                                                                                                    
                                                                                                    
                                                                                                    
                                                                                                    
                                                                                                    
                                                                                                    
                                                                                                    
                                                                                                    
                                                                                                    
                                                                                                    
                           
<?xpacket end="w"?></metadata>
<defs>
    <style>
      .cls-1 {
        fill: #333;
        fill-rule: evenodd;
      }
    </style>
  </defs>
  <path id="Forma_1" data-name="Forma 1" class="cls-1" d="M463.5,3473.83a11.67,11.67,0,1,0,11.666,11.67A11.684,11.684,0,0,0,463.5,3473.83Zm0,21.67a10,10,0,1,1,10-10A10.013,10.013,0,0,1,463.5,3495.5Zm20.182-15H482a19.087,19.087,0,0,0-1.883-4.55l1.188-1.19a2.31,2.31,0,0,0,0-3.27l-3.794-3.8a2.385,2.385,0,0,0-3.278,0l-1.188,1.19A19.171,19.171,0,0,0,468.5,3467v-1.68a2.32,2.32,0,0,0-2.316-2.32h-5.367a2.32,2.32,0,0,0-2.316,2.32V3467a19.2,19.2,0,0,0-4.548,1.88l-1.188-1.19a2.385,2.385,0,0,0-3.278,0l-3.794,3.8a2.31,2.31,0,0,0,0,3.27l1.189,1.19A19.046,19.046,0,0,0,445,3480.5h-1.681a2.32,2.32,0,0,0-2.317,2.32v5.36a2.32,2.32,0,0,0,2.317,2.32H445a19.087,19.087,0,0,0,1.883,4.55l-1.188,1.18a2.322,2.322,0,0,0,0,3.28l3.794,3.8a2.385,2.385,0,0,0,3.278,0l1.188-1.19A19.2,19.2,0,0,0,458.5,3504v1.68a2.321,2.321,0,0,0,2.317,2.32h5.366a2.32,2.32,0,0,0,2.316-2.32V3504a19.2,19.2,0,0,0,4.548-1.88l1.188,1.19a2.385,2.385,0,0,0,3.278,0l3.794-3.8a2.322,2.322,0,0,0,0-3.28l-1.189-1.18A19.09,19.09,0,0,0,482,3490.5h1.681a2.32,2.32,0,0,0,2.317-2.32v-5.36A2.322,2.322,0,0,0,483.682,3480.5Zm0.651,7.68a0.65,0.65,0,0,1-.651.65h-2.993l-0.15.65a17.509,17.509,0,0,1-2.177,5.26l-0.35.56,2.116,2.11a0.651,0.651,0,0,1,0,.92l-3.795,3.8a0.658,0.658,0,0,1-.92,0l-2.115-2.12-0.562.35a17.329,17.329,0,0,1-5.259,2.18l-0.644.15v2.99a0.65,0.65,0,0,1-.65.65h-5.367a0.65,0.65,0,0,1-.65-0.65v-2.99l-0.644-.15a17.605,17.605,0,0,1-5.259-2.18l-0.562-.35-2.115,2.12a0.658,0.658,0,0,1-.92,0l-3.794-3.8a0.649,0.649,0,0,1,0-.92l2.115-2.11-0.35-.56a17.483,17.483,0,0,1-2.177-5.26l-0.15-.65h-2.993a0.649,0.649,0,0,1-.65-0.65v-5.36a0.649,0.649,0,0,1,.65-0.65h2.993l0.15-.65a17.509,17.509,0,0,1,2.177-5.26l0.35-.56-2.115-2.11a0.649,0.649,0,0,1,0-.92l3.794-3.8a0.658,0.658,0,0,1,.92,0l2.115,2.12,0.562-.35a17.329,17.329,0,0,1,5.259-2.18l0.644-.15v-2.99a0.65,0.65,0,0,1,.65-0.65h5.366a0.65,0.65,0,0,1,.651.65v2.99l0.644,0.15a17.349,17.349,0,0,1,5.259,2.18l0.562,0.35,2.115-2.12a0.658,0.658,0,0,1,.92,0l3.795,3.8a0.651,0.651,0,0,1,0,.92l-2.116,2.11,0.35,0.56a17.483,17.483,0,0,1,2.177,5.26l0.15,0.65h2.993a0.65,0.65,0,0,1,.651.65v5.36ZM463.5,3477.17a8.33,8.33,0,1,0,8.333,8.33A8.337,8.337,0,0,0,463.5,3477.17Zm0,15a6.67,6.67,0,1,1,6.666-6.67A6.675,6.675,0,0,1,463.5,3492.17Z" transform="translate(-441 -3463)"/>
</svg>
