<svg xmlns="http://www.w3.org/2000/svg" width="36" height="47" viewBox="0 0 36 47">
  <metadata><?xpacket begin="﻿" id="W5M0MpCehiHzreSzNTczkc9d"?>
<x:xmpmeta xmlns:x="adobe:ns:meta/" x:xmptk="Adobe XMP Core 5.6-c140 79.160451, 2017/05/06-01:08:21        ">
   <rdf:RDF xmlns:rdf="http://www.w3.org/1999/02/22-rdf-syntax-ns#">
      <rdf:Description rdf:about=""/>
   </rdf:RDF>
</x:xmpmeta>
                                                                                                    
                                                                                                    
                                                                                                    
                                                                                                    
                                                                                                    
                                                                                                    
                                                                                                    
                                                                                                    
                                                                                                    
                                                                                                    
                                                                                                    
                                                                                                    
                                                                                                    
                                                                                                    
                                                                                                    
                                                                                                    
                                                                                                    
                                                                                                    
                                                                                                    
                                                                                                    
                           
<?xpacket end="w"?></metadata>
<defs>
    <style>
      .cls-1 {
        fill-rule: evenodd;
      }
    </style>
  </defs>
  <path id="Forma_1" data-name="Forma 1" class="cls-1" d="M829.66,3378.17a0.735,0.735,0,1,1,0-1.47h8.681a0.735,0.735,0,1,1,0,1.47H829.66Zm0.965,2.92a0.735,0.735,0,1,1,0-1.47h6.752a0.735,0.735,0,1,1,0,1.47h-6.752Zm2.673-10.16a0.744,0.744,0,0,1-1.488,0,38.155,38.155,0,0,0-.527-7.54,21.514,21.514,0,0,0-2.562-6.49,0.72,0.72,0,0,1,.288-0.99,0.749,0.749,0,0,1,1.012.28,22.837,22.837,0,0,1,2.726,6.92A39.475,39.475,0,0,1,833.3,3370.93Zm2.893,0a0.744,0.744,0,0,1-1.487,0,39.4,39.4,0,0,1,.551-7.82,22.859,22.859,0,0,1,2.725-6.92,0.748,0.748,0,0,1,1.011-.28,0.718,0.718,0,0,1,.288.99,21.514,21.514,0,0,0-2.562,6.49A38.164,38.164,0,0,0,836.191,3370.93Zm-7.047-13.69a0.726,0.726,0,0,1-.482-0.92,0.744,0.744,0,0,1,.936-0.47,8.711,8.711,0,0,1,1.385.59l0.04,0.02c0.649,0.32,1.189.57,1.59,0.25l0.918-.73a0.751,0.751,0,0,1,1.047.1,0.724,0.724,0,0,1-.109,1.03l-0.918.74c-1.143.91-2.078,0.47-3.205-.09l-0.034-.01A8.493,8.493,0,0,0,829.144,3357.24Zm5.6-16.66a0.747,0.747,0,0,1-1.493,0v-2.85a0.747,0.747,0,0,1,1.493,0v2.85Zm3.656,15.27a0.744,0.744,0,0,1,.937.47,0.726,0.726,0,0,1-.482.92,8.519,8.519,0,0,0-1.17.51l-0.035.01c-1.124.56-2.061,1.01-3.2,0.09l-0.918-.74a0.724,0.724,0,0,1-.109-1.03,0.751,0.751,0,0,1,1.047-.1l0.918,0.73c0.4,0.32.939,0.07,1.59-.25l0.04-.02A8.8,8.8,0,0,1,838.4,3355.85Zm4.992-7.44a12.9,12.9,0,0,1,1.337,16.95,46.61,46.61,0,0,1-3.347,3.99c-1.554,1.69-2.235,2.43-2.235,4.9a0.742,0.742,0,0,1-.747.74h-8.741a0.744,0.744,0,0,1-.748-0.74c0-2.44-.7-3.19-2.239-4.86h0a42.623,42.623,0,0,1-3.4-4.03,13.037,13.037,0,0,1-1.9-3.66,12.847,12.847,0,0,1,.356-9.04l0.014-.03a13.1,13.1,0,0,1,2.87-4.22,13.407,13.407,0,0,1,4.314-2.83h0a13.523,13.523,0,0,1,10.158,0,13.255,13.255,0,0,1,4.314,2.83h0Zm2.4,9.24a11.475,11.475,0,0,0-3.454-8.2,12,12,0,0,0-12.847-2.52h0a11.93,11.93,0,0,0-3.825,2.52,11.721,11.721,0,0,0-2.548,3.73l-0.016.04a11.485,11.485,0,0,0-.314,8.03,11.567,11.567,0,0,0,1.686,3.24,44.052,44.052,0,0,0,3.3,3.92h0c1.661,1.78,2.487,2.68,2.616,5.11h7.284c0.128-2.45.938-3.33,2.607-5.15a43.032,43.032,0,0,0,3.249-3.88A11.418,11.418,0,0,0,845.793,3357.65Zm-14.2,26.35a0.735,0.735,0,1,1,0-1.47h4.823a0.735,0.735,0,1,1,0,1.47h-4.823Zm11.573-40.81a0.753,0.753,0,0,1-1.016.27,0.729,0.729,0,0,1-.274-1l1.447-2.47a0.762,0.762,0,0,1,1.016-.27,0.727,0.727,0,0,1,.274,1Zm-17.035-.73a0.727,0.727,0,0,1-.273,1,0.752,0.752,0,0,1-1.015-.27l-1.446-2.47a0.717,0.717,0,0,1,.273-0.99,0.752,0.752,0,0,1,1.016.27Zm-6.507,5.86a0.728,0.728,0,0,1,.274,1,0.751,0.751,0,0,1-1.014.27l-2.507-1.42a0.727,0.727,0,0,1-.275-1,0.753,0.753,0,0,1,1.016-.27Zm29.5,1.27a0.753,0.753,0,0,1-1.016-.27,0.728,0.728,0,0,1,.274-1l2.506-1.42a0.753,0.753,0,0,1,1.016.27,0.728,0.728,0,0,1-.274,1Zm-22.879,10.97a0.719,0.719,0,0,1-.4.95,0.739,0.739,0,0,1-.974-0.39,9.5,9.5,0,0,1-.582-1.85,9.825,9.825,0,0,1-.2-1.94,0.747,0.747,0,0,1,1.494,0,8.17,8.17,0,0,0,.164,1.65,8.021,8.021,0,0,0,.494,1.58h0Zm0-6.45a0.756,0.756,0,0,1-.974.39,0.732,0.732,0,0,1-.4-0.96,9.831,9.831,0,0,1,.907-1.65h0a10.113,10.113,0,0,1,1.213-1.45,9.792,9.792,0,0,1,1.475-1.19h0a9.593,9.593,0,0,1,1.679-.9,10.662,10.662,0,0,1,1.885-.57,10,10,0,0,1,1.97-.19,0.735,0.735,0,1,1,0,1.47,8.291,8.291,0,0,0-1.679.16,7.819,7.819,0,0,0-1.6.48,8.84,8.84,0,0,0-1.422.76h0a8.584,8.584,0,0,0-2.283,2.25h0A8.028,8.028,0,0,0,826.243,3354.11Z" transform="translate(-816 -3337)"/>
</svg>
