<svg xmlns="http://www.w3.org/2000/svg" width="45" height="45" viewBox="0 0 45 45">
  <metadata><?xpacket begin="﻿" id="W5M0MpCehiHzreSzNTczkc9d"?>
<x:xmpmeta xmlns:x="adobe:ns:meta/" x:xmptk="Adobe XMP Core 5.6-c140 79.160451, 2017/05/06-01:08:21        ">
   <rdf:RDF xmlns:rdf="http://www.w3.org/1999/02/22-rdf-syntax-ns#">
      <rdf:Description rdf:about=""/>
   </rdf:RDF>
</x:xmpmeta>
                                                                                                    
                                                                                                    
                                                                                                    
                                                                                                    
                                                                                                    
                                                                                                    
                                                                                                    
                                                                                                    
                                                                                                    
                                                                                                    
                                                                                                    
                                                                                                    
                                                                                                    
                                                                                                    
                                                                                                    
                                                                                                    
                                                                                                    
                                                                                                    
                                                                                                    
                                                                                                    
                           
<?xpacket end="w"?></metadata>
<defs>
    <style>
      .cls-1 {
        fill: #333;
        fill-rule: evenodd;
      }
    </style>
  </defs>
  <path id="benefits_6" class="cls-1" d="M1224.5,3463a22.5,22.5,0,1,0,22.5,22.5A22.521,22.521,0,0,0,1224.5,3463Zm0,43.5a21,21,0,1,1,21-21A21.023,21.023,0,0,1,1224.5,3506.5Zm0.75-23.98v-7.61a0.75,0.75,0,0,0-1.5,0v7.61a2.975,2.975,0,0,0-2.14,2.14h-5.36a0.75,0.75,0,0,0,0,1.5h5.36A2.992,2.992,0,1,0,1225.25,3482.52Zm-0.75,4.39a1.5,1.5,0,1,1,1.5-1.5A1.5,1.5,0,0,1,1224.5,3486.91Zm0-16.5a0.755,0.755,0,0,0,.75-0.75v-0.75a0.75,0.75,0,0,0-1.5,0v0.75A0.755,0.755,0,0,0,1224.5,3470.41Zm0,30a0.749,0.749,0,0,0-.75.75v0.75a0.75,0.75,0,0,0,1.5,0v-0.75A0.749,0.749,0,0,0,1224.5,3500.41Zm16.5-15.75h-0.75a0.75,0.75,0,0,0,0,1.5H1241A0.75,0.75,0,0,0,1241,3484.66Zm-32.25,0H1208a0.75,0.75,0,0,0,0,1.5h0.75A0.75,0.75,0,0,0,1208.75,3484.66Zm26.89-11.45-0.53.53a0.737,0.737,0,0,0,0,1.06,0.71,0.71,0,0,0,.53.22,0.742,0.742,0,0,0,.53-0.22l0.53-.53A0.75,0.75,0,1,0,1235.64,3473.21Zm-22.81,22.81-0.53.53a0.754,0.754,0,0,0,0,1.06,0.786,0.786,0,0,0,.53.22,0.767,0.767,0,0,0,.53-0.22l0.53-.53A0.75,0.75,0,0,0,1212.83,3496.02Zm23.34,0a0.75,0.75,0,0,0-1.06,1.06l0.53,0.53a0.749,0.749,0,0,0,.53.22,0.786,0.786,0,0,0,.53-0.22,0.754,0.754,0,0,0,0-1.06Zm-22.81-22.81a0.75,0.75,0,1,0-1.06,1.06l0.53,0.53a0.742,0.742,0,0,0,.53.22,0.71,0.71,0,0,0,.53-0.22,0.737,0.737,0,0,0,0-1.06Z" transform="translate(-1202 -3463)"/>
</svg>
