<?xml version="1.0" encoding="utf-8"?>
<!-- Generator: Adobe Illustrator 19.0.1, SVG Export Plug-In . SVG Version: 6.00 Build 0)  -->
<svg version="1.1" id="Capa_1" xmlns="http://www.w3.org/2000/svg" xmlns:xlink="http://www.w3.org/1999/xlink" x="0px" y="0px"
	 viewBox="-743 745 512 512" style="enable-background:new -743 745 512 512;" xml:space="preserve">
<style type="text/css">
	.st0{fill:#FFFFFF;}
	.st1{fill:#308BE6;}
</style>
<g>
	<g id="XMLID_1_">
		<g>
			<path d="M-231,753.5V1018c0,2.3-0.9,4.4-2.5,6l-230.4,230.5c-1.6,1.6-3.8,2.5-6,2.5h-264.6c-2.3,0-4.4-0.9-6-2.5s-2.5-3.8-2.5-6
				V983.9c0-2.3,0.9-4.4,2.5-6l230.4-230.4c1.6-1.6,3.8-2.5,6-2.5h51.2c4.7,0,8.5,3.8,8.5,8.5V895l147.6-147.5
				c1.6-1.6,3.8-2.5,6-2.5h51.2c1.1,0,2.2,0.2,3.3,0.7C-233.1,747-231,750.1-231,753.5z M-248.1,1014.5V774.1l-213.3,213.4v240.4
				L-248.1,1014.5z M-473.5,975.4l213.4-213.3h-27.1l-159.6,159.6l-53.7,53.7H-473.5z M-461.4,912.1v-138l-213.3,213.4v189.2
				l145.1-145.1v-47.7c0-2.3,0.9-4.4,2.5-6L-461.4,912.1z M-686.8,975.4l213.3-213.3h-27h-0.1l-213.3,213.3H-686.8z M-478.5,1240
				L-478.5,1240V992.5h-34.1h-0.1v204.8c0,2.2-0.9,4.4-2.5,6c-1.4,1.4-3.2,2.3-5.2,2.5c-0.1,0-0.3,0-0.4,0c-0.1,0-0.2,0-0.3,0
				h-162.2c-4.7,0-8.5-3.8-8.5-8.5V992.5h-34.1V1240H-478.5z M-529.7,1188.7v-133l-133,133H-529.7z"/>
			<polygon class="st0" points="-260.1,762.1 -473.5,975.4 -500.5,975.4 -446.8,921.7 -287.2,762.1 			"/>
			<path d="M-515.1,1203.3c-1.4,1.4-3.3,2.3-5.3,2.5C-518.4,1205.6-516.6,1204.7-515.1,1203.3c1.5-1.6,2.4-3.8,2.4-6V992.5h0.1
				v204.8C-512.6,1199.6-513.5,1201.7-515.1,1203.3z"/>
			<path d="M-520.8,1205.8c0.1,0,0.3,0,0.4,0C-520.5,1205.8-520.6,1205.8-520.8,1205.8z"/>
			<path class="st1" d="M-691.8,1197.3c0,4.7,3.8,8.5,8.5,8.5h162.2c0.1,0,0.2,0,0.3,0c0.1,0,0.3,0,0.4,0c2-0.2,3.8-1,5.3-2.5
				c1.6-1.6,2.5-3.7,2.5-6V992.5h34.1v247.4v0.1h-247.4V992.5h34.1C-691.8,992.5-691.8,1197.3-691.8,1197.3z"/>
		</g>
	</g>
</g>
</svg>
