<?xml version="1.0" encoding="utf-8"?>
<!-- Generator: Adobe Illustrator 19.0.1, SVG Export Plug-In . SVG Version: 6.00 Build 0)  -->
<svg version="1.1" id="Capa_1" xmlns="http://www.w3.org/2000/svg" xmlns:xlink="http://www.w3.org/1999/xlink" x="0px" y="0px"
	 viewBox="-743 745 512 512" style="enable-background:new -743 745 512 512;" xml:space="preserve">
<style type="text/css">
	.st0{fill:#308BE6;}
	.st1{fill:#FFFFFF;}
</style>
<g>
	<g id="XMLID_1_">
		<g>
			<path d="M-231,787.7v204.8c0,9.4-7.6,17-17.1,17.1h-107.4l-123,123V1240c0,9.4-7.6,17.1-17.1,17.1h-204.7
				c-23.6-0.1-42.7-19.2-42.7-42.8V804.7c0-32.9,26.8-59.7,59.7-59.7h409.6C-250.1,745-231,764.1-231,787.7z M-248.1,992.5v-90.3
				l-90.3,90.3H-248.1z M-248.1,867.4v-79.7c0-14.1-11.5-25.6-25.6-25.6h-409.6c-23.5,0-42.6,19.1-42.7,42.7v409.6
				c0,14.1,11.5,25.6,25.6,25.6h79.7c6.8,0,13.3-2.7,18.1-7.5L-493,1123l128-128l109.5-109.5C-250.8,880.7-248.1,874.2-248.1,867.4z
				 M-495.5,1239.9v-90.3l-90.3,90.3L-495.5,1239.9L-495.5,1239.9z"/>
			<path class="st0" d="M-324.9,813.3c14.1,0,25.6,11.5,25.6,25.6c0,0.9,0,1.8-0.1,2.6s-0.2,1.7-0.4,2.5c-2,10-9.9,17.9-19.9,19.9
				c-1.7,0.3-3.4,0.5-5.1,0.5c-14.1,0-25.6-11.5-25.6-25.6c0-1.8,0.2-3.5,0.5-5.2c2.1-10,10-17.9,19.9-19.9c0.8-0.2,1.7-0.3,2.5-0.4
				C-326.6,813.3-325.8,813.3-324.9,813.3z"/>
			<path d="M-330,813.8c0.8-0.2,1.7-0.3,2.5-0.4C-328.4,813.5-329.2,813.7-330,813.8z"/>
			<path d="M-350,833.8c2-10,9.9-17.9,19.9-19.9C-340,815.9-347.9,823.8-350,833.8z"/>
			<path d="M-350.5,838.9c0,14.1,11.5,25.6,25.6,25.6c1.8,0,3.5-0.2,5.1-0.5c10-2,17.9-9.9,19.9-19.9c0.2-0.8,0.3-1.7,0.4-2.5
				c0.1-0.8,0.1-1.7,0.1-2.6c0-14.1-11.5-25.6-25.6-25.6c-0.9,0-1.8,0-2.6,0.1c-0.9,0.1-1.7,0.2-2.5,0.4c-10,2-17.9,9.9-19.9,19.9
				C-350.3,835.4-350.5,837.1-350.5,838.9z M-324.9,796.2c23.6,0,42.7,19.1,42.7,42.7c0,23.6-19.1,42.7-42.7,42.7
				s-42.6-19.1-42.7-42.7C-367.5,815.3-348.4,796.2-324.9,796.2z"/>
			<path d="M-628.6,1178.4c3.2-4.3,5.1-9.6,5.1-15.3C-623.5,1168.9-625.4,1174.2-628.6,1178.4z"/>
			<path class="st1" d="M-649.1,813.3c14.1,0,25.6,11.5,25.6,25.6c0,14.1-11.5,25.6-25.6,25.6c-14.1,0-25.6-11.5-25.6-25.6
				c0-0.9,0-1.8,0.1-2.6c0.1-0.8,0.2-1.7,0.4-2.5c2.1-10,9.9-17.9,19.9-19.9c0.8-0.2,1.7-0.3,2.5-0.4
				C-650.9,813.3-650,813.3-649.1,813.3z"/>
			<path d="M-629.4,1179.4c-0.5,0.6-1.1,1.2-1.7,1.8C-630.5,1180.6-629.9,1180-629.4,1179.4z"/>
			<path class="st0" d="M-649.1,1137.5c14.1,0,25.6,11.5,25.6,25.6c0,5.8-1.9,11.1-5.1,15.3c-0.3,0.3-0.5,0.6-0.8,1
				c-0.5,0.6-1.1,1.2-1.7,1.8c-1.2,1.2-2.4,2.2-3.8,3.1c-0.7,0.5-1.4,0.9-2.1,1.3l0,0c-1.1,0.6-2.2,1.1-3.4,1.5
				c-0.4,0.1-0.8,0.3-1.2,0.4c-0.7,0.2-1.4,0.4-2.2,0.6c-0.2,0.1-0.3,0.1-0.5,0.1c-0.8,0.2-1.5,0.3-2.3,0.4
				c-0.9,0.1-1.7,0.1-2.6,0.1c-14.1,0-25.6-11.5-25.6-25.6c0-0.9,0-1.8,0.1-2.6c0.1-0.9,0.2-1.7,0.4-2.5c2.1-10,9.9-17.9,19.9-19.9
				C-652.6,1137.7-650.9,1137.5-649.1,1137.5z"/>
			<path d="M-674.7,838.9c0,14.1,11.5,25.6,25.6,25.6c14.1,0,25.6-11.5,25.6-25.6c0-14.1-11.5-25.6-25.6-25.6c-0.9,0-1.8,0-2.6,0.1
				c-0.8,0.1-1.7,0.2-2.5,0.4c-10.1,2-17.9,9.9-19.9,19.9c-0.2,0.8-0.3,1.7-0.4,2.5C-674.7,837.1-674.7,838-674.7,838.9z
				 M-649.1,796.2c23.6,0,42.7,19.1,42.7,42.7c0,23.6-19.1,42.7-42.7,42.7c-23.6,0-42.6-19.1-42.7-42.7
				C-691.8,815.3-672.7,796.2-649.1,796.2z"/>
			<path d="M-651.7,813.4c-0.8,0.1-1.7,0.2-2.5,0.4C-653.4,813.6-652.6,813.5-651.7,813.4z"/>
			<path d="M-654.2,813.8c-10,2.1-17.9,9.9-19.9,19.9C-672.2,823.7-664.3,815.8-654.2,813.8z"/>
			<path d="M-654.2,1138c-10,2.1-17.9,10-19.9,19.9C-672.1,1148-664.3,1140.1-654.2,1138z"/>
			<path d="M-674.7,1163.1c0,14.1,11.5,25.6,25.6,25.6c0.9,0,1.8,0,2.6-0.1s1.6-0.2,2.3-0.4c0.2,0,0.3,0,0.5-0.1
				c0.7-0.1,1.5-0.3,2.2-0.6c0.4-0.1,0.8-0.3,1.2-0.4c1.2-0.4,2.3-0.9,3.4-1.5l0,0c0.7-0.4,1.4-0.8,2.1-1.3c1.4-0.9,2.6-2,3.8-3.1
				c0.6-0.6,1.1-1.2,1.7-1.8c0.3-0.3,0.5-0.6,0.8-1c3.2-4.3,5.1-9.6,5.1-15.3c0-14.1-11.5-25.6-25.6-25.6c-1.8,0-3.5,0.2-5.2,0.5
				c-10,2-17.9,9.9-19.9,19.9c-0.2,0.8-0.3,1.7-0.4,2.5C-674.7,1161.4-674.7,1162.2-674.7,1163.1z M-649.1,1120.5
				c23.6,0,42.7,19.1,42.7,42.7c0,23.6-19.1,42.6-42.7,42.7c-23.6,0-42.7-19.1-42.7-42.7C-691.8,1139.6-672.7,1120.5-649.1,1120.5z"
				/>
			<path d="M-674.2,833.8c-0.2,0.8-0.3,1.7-0.4,2.5C-674.5,835.4-674.4,834.6-674.2,833.8z"/>
			<path d="M-674.2,1158c-0.2,0.8-0.3,1.7-0.4,2.5C-674.5,1159.6-674.3,1158.8-674.2,1158z"/>
		</g>
	</g>
</g>
</svg>
