<?xml version="1.0" encoding="utf-8"?>
<!-- Generator: Adobe Illustrator 19.0.1, SVG Export Plug-In . SVG Version: 6.00 Build 0)  -->
<svg version="1.1" id="Capa_1" xmlns="http://www.w3.org/2000/svg" xmlns:xlink="http://www.w3.org/1999/xlink" x="0px" y="0px"
	 viewBox="-743 745 512 512" style="enable-background:new -743 745 512 512;" xml:space="preserve">
<style type="text/css">
	.st0{fill:#308BE6;}
</style>
<g>
	<g id="XMLID_1_">
		<g>
			<path d="M-231,1060.7v187.7c0,2.3-0.9,4.4-2.5,6s-3.8,2.5-6,2.5h-495c-2.3,0-4.4-0.9-6-2.5s-2.5-3.8-2.5-6v-187.7
				c0-1.8,0.6-3.5,1.6-5l221.9-307.2c1.6-2.2,4.2-3.5,6.9-3.5h51.2c2.7,0,5.3,1.3,6.9,3.5l221.9,307.2
				C-231.6,1057.2-231,1058.9-231,1060.7z M-248,1240v-17.1h-0.1v-0.1h-477.8v0.1v17v0.1H-248z M-248,1205.8v-102.4h-0.1h-17h-0.1
				v102.4h0.1h17H-248z M-248.1,1086.3v-22.8l-217.7-301.4h-42.5l-217.6,301.4v22.8H-248.1z M-282.2,1205.8v-69.6l-106.7,69.6
				H-282.2z M-282.2,1115.8v-12.4h-15.1l-157,102.4h34.2L-282.2,1115.8z M-461.4,1190l132.8-86.6h-132.8V1190z M-478.5,1205.8
				v-102.4h-17.1v102.4H-478.5z M-512.6,1190v-86.6h-132.8L-512.6,1190z M-553.8,1205.8h34.2l-157-102.4h-15.2v12.4L-553.8,1205.8z
				 M-691.8,1205.8h106.7l-106.7-69.6V1205.8z M-708.8,1205.8v-102.4h-0.1h-17v102.4h17H-708.8z"/>
			<rect x="-248.1" y="1103.4" width="0.1" height="102.4"/>
			<polygon points="-248,1240 -725.9,1240 -725.9,1239.9 -248.1,1239.9 -248.1,1222.9 -248,1222.9 			"/>
			<rect x="-725.9" y="1222.9" class="st0" width="477.8" height="17"/>
			<rect x="-265.1" y="1103.4" class="st0" width="17" height="102.4"/>
			<path d="M-274.7,1055.7c1.9,2.6,2.1,6,0.7,8.9c-1.5,2.9-4.4,4.6-7.6,4.6h-94.5c-2.3,0-4.4-0.9-6-2.5c-1.6-1.6-2.5-3.8-2.5-6
				V929.9c0-0.2,0.1-0.4,0.1-0.7c0.2-2.2,1.3-4.3,3-5.8c0.2-0.1,0.3-0.3,0.4-0.5c0.3-0.1,0.5-0.3,0.8-0.4c1-0.6,2.1-1,3.3-1.1
				c0.3-0.1,0.6-0.1,0.9-0.2c0.2,0,0.4,0.1,0.6,0.1c2.2,0.2,4.3,1.3,5.8,3c0.1,0.2,0.4,0.3,0.5,0.4L-274.7,1055.7z M-298.3,1052.2
				l-69.2-95.9v95.9H-298.3z"/>
			<path d="M-401.7,882.6v178.1c0,2.3-0.9,4.4-2.5,6c-1.6,1.6-3.8,2.5-6,2.5h-59.7c-2.3,0-4.4-0.9-6-2.5c-1.6-1.6-2.5-3.8-2.5-6V800
				c0-0.2,0.1-0.4,0.1-0.7c0.2-2.2,1.3-4.3,2.9-5.8c0.2-0.1,0.3-0.4,0.5-0.5c0.3-0.2,0.5-0.3,0.8-0.4c1-0.6,2.1-1,3.3-1.1
				c0.3-0.1,0.6-0.1,0.9-0.2c0.2,0,0.4,0.1,0.6,0.1c1.6,0.2,3.2,0.8,4.5,1.8c0.5,0.3,0.9,0.7,1.3,1.2c0.1,0.2,0.4,0.3,0.5,0.5
				l59.7,82.7c0.1,0.3,0.3,0.5,0.4,0.8c0.6,1,1,2.1,1.1,3.3C-401.8,882-401.7,882.3-401.7,882.6z M-418.7,1052.2V885.4l-42.7-59.1
				v225.9H-418.7L-418.7,1052.2z"/>
			<path d="M-495.5,800v260.8c0,2.3-0.9,4.4-2.5,6c-1.6,1.6-3.8,2.5-6,2.5h-59.7c-2.3,0-4.4-0.9-6-2.5c-1.6-1.6-2.5-3.8-2.5-6V882.6
				c0-0.3,0.1-0.6,0.2-0.9c0.1-1.2,0.5-2.3,1.1-3.3c0.1-0.3,0.2-0.6,0.4-0.8L-511,795c0.1-0.2,0.3-0.3,0.5-0.5
				c1.5-1.7,3.6-2.7,5.8-3c0.2,0,0.4-0.1,0.6-0.1c0.3,0,0.6,0.1,0.9,0.2c1.2,0.1,2.3,0.5,3.3,1.1c0.3,0.1,0.6,0.2,0.8,0.4
				c0.2,0.1,0.3,0.3,0.5,0.5c1.2,1.1,2.1,2.5,2.6,4.1c0.2,0.6,0.3,1.1,0.3,1.7C-495.6,799.5-495.5,799.7-495.5,800z M-512.6,1052.2
				V826.3l-42.7,59.1v166.8H-512.6z"/>
			<path d="M-589.4,929.9v130.8c0,2.3-0.9,4.4-2.5,6c-1.6,1.6-3.8,2.5-6,2.5h-94.5c-3.2,0-6.1-1.8-7.6-4.6c-1.5-2.8-1.2-6.3,0.7-8.9
				l94.5-130.8c0.1-0.2,0.3-0.3,0.5-0.4c1.5-1.7,3.6-2.7,5.8-3c0.2,0,0.4-0.1,0.7-0.1s0.6,0.1,0.9,0.2c1.2,0.1,2.3,0.5,3.3,1.1
				c0.3,0.1,0.5,0.2,0.8,0.4c0.2,0.1,0.3,0.3,0.4,0.5c1.7,1.5,2.7,3.6,3,5.8C-589.5,929.5-589.4,929.7-589.4,929.9z M-606.5,1052.2
				v-95.9l-69.2,95.9H-606.5z"/>
			<rect x="-708.9" y="1103.4" width="0.1" height="102.4"/>
			<rect x="-725.9" y="1103.4" class="st0" width="17" height="102.4"/>
		</g>
	</g>
</g>
</svg>
