<?xml version="1.0" encoding="utf-8"?>
<!-- Generator: Adobe Illustrator 19.0.1, SVG Export Plug-In . SVG Version: 6.00 Build 0)  -->
<svg version="1.1" id="Capa_1" xmlns="http://www.w3.org/2000/svg" xmlns:xlink="http://www.w3.org/1999/xlink" x="0px" y="0px"
	 viewBox="-743 745.1 511.9 511.9" style="enable-background:new -743 745.1 511.9 511.9;" xml:space="preserve">
<style type="text/css">
	.st0{fill:#308BE6;}
</style>
<g>
	<g id="XMLID_1_">
		<g>
			<path class="st0" d="M-632,1086.4c33,0,59.7,26.7,59.7,59.7s-26.7,59.7-59.7,59.7s-59.8-26.7-59.8-59.7
				C-691.7,1113.1-665,1086.4-632,1086.4z"/>
			<path d="M-263.6,777.6c43.3,43.3,43.3,113.4,0.1,156.8l-290.1,290.1c-20.8,20.8-49,32.5-78.4,32.4c-44.9,0-85.3-27-102.5-68.4
				c-17.2-41.4-7.7-89.1,24-120.8l290.1-290.2C-377,734.3-306.9,734.3-263.6,777.6z M-275.5,922.3c36.6-36.7,36.6-96.1,0-132.8
				c-36.7-36.7-96.1-36.7-132.8,0l-248.5,248.6c37.2-8.6,76.2,2.5,103.2,29.5s38.2,66,29.5,103.2L-275.5,922.3z M-538.2,1146.1
				c0-38-22.9-72.2-57.9-86.7c-11.6-4.8-23.8-7.1-35.9-7.1c-24.4,0-48.4,9.5-66.4,27.5c-17.7,17.5-27.6,41.4-27.6,66.3
				s9.9,48.8,27.6,66.4c26.8,26.8,67.2,34.9,102.3,20.4C-561,1218.3-538.2,1184.1-538.2,1146.1z"/>
			<path d="M-268.7,859.2c0.7,2.6,0.1,5.3-1.5,7.3c-0.8,1-1.8,1.9-3,2.4c-1.1,0.6-2.4,0.9-3.8,0.9c-3.9,0-7.3-2.7-8.3-6.4
				c-8.5-33.1-34.3-58.9-67.4-67.5c-3-0.8-5.3-3-6.1-6c-0.8-2.9,0-6.1,2.1-8.3s5.3-3,8.2-2.3C-309.2,789.6-278.7,820.1-268.7,859.2z
				"/>
			<path d="M-301.6,892.6c0.6,2.6,0.1,5.3-1.5,7.4c-0.8,1-1.8,1.9-3,2.4c-1.2,0.6-2.4,0.9-3.8,0.9c-3.9,0-7.3-2.7-8.3-6.4
				c-8.5-33.1-34.3-58.9-67.4-67.5c-2.9-0.8-5.3-3-6.1-6c-0.8-2.9,0-6.1,2.1-8.3s5.3-3,8.2-2.3C-342.1,823-311.6,853.5-301.6,892.6z
				"/>
			<path d="M-334.5,926c0.6,2.6,0.1,5.3-1.5,7.3c-0.8,1-1.8,1.9-3,2.4c-1.2,0.6-2.4,0.9-3.8,0.9c-3.9,0-7.3-2.6-8.3-6.4
				c-8.5-33.1-34.3-58.9-67.4-67.5c-2.9-0.8-5.3-3-6.1-6c-0.8-2.9,0-6.1,2.1-8.3s5.3-3,8.2-2.3C-375,856.4-344.5,886.9-334.5,926z"
				/>
			<path d="M-367.4,959.4c0.7,2.6,0.1,5.3-1.5,7.4c-0.8,1-1.8,1.9-3,2.4c-1.2,0.6-2.4,0.9-3.8,0.9c-3.9,0-7.3-2.6-8.3-6.4
				c-8.5-33.1-34.3-58.9-67.4-67.5c-3-0.8-5.3-3-6.1-6c-0.8-2.9,0-6.1,2.1-8.3s5.3-3,8.2-2.3C-407.9,889.7-377.5,920.3-367.4,959.4z
				"/>
			<path d="M-400.3,992.7c0.6,2.6,0.1,5.3-1.5,7.4c-0.8,1-1.8,1.9-3,2.4c-1.2,0.6-2.4,0.9-3.8,0.9c-3.9,0-7.3-2.6-8.3-6.4
				c-8.5-33.1-34.3-58.9-67.4-67.5c-3-0.8-5.3-3-6.1-6c-0.8-2.9,0-6.1,2.1-8.3c2.1-2.2,5.3-3,8.2-2.3
				C-440.8,923.1-410.4,953.7-400.3,992.7z"/>
			<path d="M-433.2,1026.1c0.6,2.6,0.1,5.3-1.5,7.4c-0.8,1-1.8,1.9-3,2.4c-1.1,0.6-2.4,0.9-3.8,0.9c-3.9,0-7.3-2.6-8.3-6.4
				c-8.5-33.1-34.3-58.9-67.4-67.5c-2.9-0.8-5.3-3-6.1-6c-0.8-2.9,0-6.1,2.1-8.3c2.1-2.2,5.3-3,8.2-2.3
				C-473.7,956.5-443.2,987-433.2,1026.1z"/>
			<path d="M-466.1,1059.5c0.6,2.6,0.1,5.3-1.5,7.4c-0.8,1-1.8,1.9-3,2.4c-1.2,0.6-2.4,0.9-3.8,0.9c-3.9,0-7.3-2.6-8.3-6.4
				c-8.5-33.1-34.3-58.9-67.4-67.5c-2.9-0.8-5.3-3-6.1-6c-0.8-2.9,0-6.1,2.1-8.3s5.3-3,8.2-2.3
				C-506.6,989.9-476.1,1020.4-466.1,1059.5z"/>
			<path d="M-499,1092.9c0.6,2.5,0.1,5.3-1.5,7.4c-0.8,1-1.8,1.9-3,2.4c-1.2,0.6-2.4,0.9-3.8,0.9c-3.9,0-7.3-2.6-8.3-6.4
				c-8.5-33.1-34.3-58.9-67.4-67.5c-4.6-1.2-7.3-5.8-6.1-10.4c1.2-4.6,5.8-7.3,10.4-6.1C-539.5,1023.2-509.1,1053.8-499,1092.9z"/>
			<path d="M-577.7,1091.8c22,22,28.5,55,16.7,83.7c-11.9,28.7-39.9,47.4-71,47.4c-42.4,0-76.8-34.4-76.8-76.8
				c0-31.1,18.7-59.1,47.4-71C-632.7,1063.3-599.7,1069.8-577.7,1091.8z M-572.3,1146.1c0-33-26.7-59.7-59.7-59.7
				s-59.7,26.8-59.7,59.7c0,33,26.7,59.7,59.7,59.7S-572.3,1179.1-572.3,1146.1z"/>
		</g>
	</g>
</g>
</svg>
