<?xml version="1.0" encoding="utf-8"?>
<!-- Generator: Adobe Illustrator 19.0.1, SVG Export Plug-In . SVG Version: 6.00 Build 0)  -->
<svg version="1.1" id="Layer_1" xmlns="http://www.w3.org/2000/svg" xmlns:xlink="http://www.w3.org/1999/xlink" x="0px" y="0px"
	 viewBox="-743 745 512 512" style="enable-background:new -743 745 512 512;" xml:space="preserve">
<style type="text/css">
	.st0{fill:#308BE6;}
</style>
<g>
	<g id="XMLID_1_">
		<g>
			<path d="M-286,796.3c4.4,0,8,3.6,8,8c0,4.4-3.6,8-8,8h-68.4c-4.4,0-8-3.6-8-8c0-4.4,3.6-8,8-8C-354.4,796.3-286,796.3-286,796.3z
				"/>
			<path d="M-320.2,1027.2c4.4,0,8,3.6,8,8c0,4.4-3.6,8-8,8h-77c-4.4,0-8-3.6-8-8c0-4.4,3.6-8,8-8H-320.2z"/>
			<path d="M-319,931.4L-319,931.4l-23.2-6.5c-1.1-0.3-2-0.8-2.8-1.4c0.8,0.6,1.7,1.1,2.7,1.4L-319,931.4z"/>
			<path d="M-333.9,892.4L-333.9,892.4l-24.1-0.7c-2-0.1-3.7-0.9-5.1-2.1c1.3,1.2,3,1.9,5,2L-333.9,892.4z"/>
			<path d="M-338.9,955.5c0.4,2.1,1.7,4,3.5,5.1C-337.2,959.5-338.5,957.6-338.9,955.5z"/>
			<path d="M-388.5,860.9c1.8,1.8,4.5,2.7,7.2,2.2l23.7-5v0.1l-23.6,5C-384,863.8-386.7,862.8-388.5,860.9z"/>
			<path d="M-583.2,854.6c0.5,5.2-4.4,9.6-9.6,8.5l-23.7-5l7.8,22.9c1.7,5-2,10.4-7.3,10.6l-24.2,0.8l13,20.4
				c2.8,4.4,0.5,10.6-4.6,12l-23.2,6.6l17.5,16.6c0.2,0.2,0.4,0.4,0.6,0.6c3,3.6,2.3,9.3-1.8,11.9l-10.3,6.8h66.5
				c2.9-50.2,44.6-90.2,95.5-90.2s92.6,40,95.5,90.2h66.5l-10.4-6.7c-1.8-1.1-3-3-3.5-5.1c-0.1-0.3-0.1-0.6-0.1-0.9c0-0.5,0-1,0-1.5
				c0.2-1.9,1.1-3.7,2.5-5l17.5-16.6h-0.1l0.1-0.1l-23.3-6.6c-1-0.3-1.9-0.8-2.7-1.4l-0.1-0.1c-2.9-2.5-3.8-7-1.7-10.4l13-20.4h-0.2
				l0.1-0.1l-24.2-0.8c-1.9-0.1-3.6-0.8-5-2c-0.3-0.2-0.5-0.5-0.7-0.7c-1.8-2.1-2.5-5-1.5-7.8l7.8-22.9h-0.1v-0.1l-23.7,5
				c-2.7,0.6-5.4-0.3-7.2-2.2c-0.2-0.2-0.3-0.3-0.5-0.5c-1.3-1.5-2-3.6-1.8-5.8l2.1-24.1l-0.1,0.1v-0.2l-21.8,10.6
				c-3.2,1.5-6.8,0.7-9.1-1.5c-0.2-0.2-0.3-0.3-0.4-0.5c-0.9-1.1-1.6-2.4-1.8-3.9l-3.7-23.9l-0.1,0.1v-0.2l-18.6,15.4
				c-3.3,2.6-7.9,2.2-10.8-0.6c-0.1-0.1-0.2-0.2-0.4-0.4c-0.5-0.6-1-1.3-1.3-2.1l-9.4-22.3l0,0l-0.1-0.2l-14.4,19.4
				c-2.8,3.8-8.1,4.2-11.6,1.4c-0.1-0.1-0.2-0.2-0.4-0.3c-0.1-0.1-0.2-0.2-0.2-0.2c-0.2-0.2-0.4-0.5-0.6-0.8l-14.4-19.4l0,0
				l-0.1-0.1l-9.4,22.3c-2.1,4.9-8.4,6.5-12.5,3.1l-18.6-15.4l-3.6,24.1c-0.8,5.2-6.6,8.3-11.4,6l-21.8-10.5L-583.2,854.6z
				 M-235.3,849.2v156.1c0,39.8-32.4,72.1-72.1,72.1h-94.1c-30.9,0-56.1,25.2-56.1,56.1v19.2c0,57.5-46.8,104.2-104.2,104.2h-168.9
				c-4.4,0-8-3.6-8-8V932.6c0-4.4,3.6-8,8-8c4.4,0,8,3.6,8,8v94.6h77.5c4.4,0,8,3.6,8,8c0,4.4-3.6,8-8,8h-77.5v146.4h51.8
				c4.4,0,8,3.6,8,8s-3.6,8-8,8h-51.8v35.4h160.9c48.6,0,88.2-39.6,88.2-88.2v-19.2c0-4.6,0.5-9,1.3-13.4h-70.2c-4.4,0-8-3.6-8-8
				c0-4.4,3.6-8,8-8h75.2c11.3-25.2,36.6-42.8,65.9-42.8h94.1c30.9,0,56.1-25.2,56.1-56.1v-21.9h-425c-3.5,0-6.6-2.3-7.6-5.6
				c-1.1-3.4,0.3-7.2,3.3-9.1l24.6-15.9l-20.3-19.3c-4.4-4.2-2.5-11.9,3.3-13.5l26.4-7.5l-14.8-23.1c-3.3-5.1,0.4-12.1,6.5-12.3
				l27.4-0.9l-8.8-26c-2-5.8,3.3-11.7,9.2-10.4l26.9,5.6l-2.4-27.3c-0.5-6.1,6-10.6,11.5-7.9l24.8,11.9l4.2-27.1
				c0.9-6,8.3-8.8,13-4.9l21.2,17.5l10.7-25.3c2.4-5.6,10.2-6.6,13.8-1.7l16.4,22l16.4-22c3.6-4.9,11.5-3.9,13.8,1.7l10.7,25.3
				l21-17.9c4.7-3.9,12.1-1.1,13,4.9l4.3,27.1l24.7-11.8c5.5-2.6,12,1.8,11.5,7.9l-2.4,27.3l26.9-5.6c6-1.3,11.2,4.6,9.2,10.4
				l-8.8,26l27.4,0.9c6.1,0.2,9.8,7.2,6.5,12.3l-14.8,23.1l26.4,7.5c5.9,1.7,7.8,9.3,3.3,13.5l-20.4,19.3l22.6,14.6h44.1v-86.6H-286
				c-4.4,0-8-3.6-8-8c0-4.4,3.6-8,8-8h34.7V849c0-48.6-39.6-88.2-88.2-88.2H-363c-4.4,0-8-3.6-8-8c0-4.4,3.6-8,8-8h23.5
				C-282,745-235.3,791.8-235.3,849.2z M-449.5,967.3h41.9c-2.8-41.3-37.4-74.1-79.4-74.1s-76.6,32.8-79.4,74.1h41.9
				c2.7-18.3,18.5-32.4,37.5-32.4S-452.1,949-449.5,967.3z M-508.2,967.3h42.4c-2.5-9.4-11-16.4-21.2-16.4S-505.7,957.9-508.2,967.3
				z"/>
			<path d="M-405.8,745c4.4,0,8,3.6,8,8s-3.6,8-8,8h-316.9v35.3h86.1c4.4,0,8,3.6,8,8c0,4.4-3.6,8-8,8h-86.1v77.5c0,4.4-3.6,8-8,8
				c-4.4,0-8-3.6-8-8V753c0-4.4,3.6-8,8-8H-405.8z"/>
			<path d="M-410.6,841l21.8-10.5v0.2L-410.6,841c-3.1,1.6-6.8,0.8-9.1-1.5C-417.4,841.7-413.8,842.5-410.6,841z"/>
			<path d="M-431.4,1027.2c4.4,0,8,3.6,8,8c0,4.4-3.6,8-8,8h-171c-4.4,0-8-3.6-8-8c0-4.4,3.6-8,8-8H-431.4z"/>
			<path d="M-444.3,826.5l18.6-15.4v0.2L-444.3,826.5c-3.2,2.8-8,2.3-10.8-0.6C-452.2,828.7-447.6,829.1-444.3,826.5z"/>
			<path d="M-480.6,820.5l14.4-19.4l0.1,0.2l-14.4,19.3c-2.7,3.8-8.2,4.2-11.7,1.3C-488.7,824.7-483.4,824.3-480.6,820.5z"/>
			<path d="M-492.5,821.6c0.1,0.1,0.2,0.2,0.4,0.3C-492.3,821.8-492.4,821.7-492.5,821.6z"/>
			<path d="M-534,1189.7c4.4,0,8,3.6,8,8c0,4.4-3.6,8-8,8h-94.1c-4.4,0-8-3.6-8-8c0-4.4,3.6-8,8-8H-534z"/>
			<path d="M-585.3,1104.1c4.4,0,8,3.6,8,8s-3.6,8-8,8h-85.5c-4.4,0-8-3.6-8-8s3.6-8,8-8H-585.3z"/>
			<path class="st0" d="M-616.4,858.2l23.7,5c5.1,1.1,10-3.2,9.6-8.5l-2.1-24.1l21.8,10.5c4.8,2.3,10.6-0.8,11.4-6l3.7-23.9
				l18.6,15.4c4.1,3.3,10.5,1.8,12.5-3.1l9.4-22.3l14.3,19.3c0.2,0.3,0.5,0.6,0.7,0.9c0.1,0.1,0.2,0.2,0.2,0.2
				c0.1,0.1,0.2,0.2,0.4,0.3c3.4,2.9,8.9,2.5,11.7-1.3l14.4-19.3l9.3,22.2c0.3,0.8,0.8,1.5,1.4,2.2c0.1,0.1,0.2,0.3,0.4,0.4
				c2.8,2.9,7.5,3.4,10.8,0.7l18.5-15.3l3.7,23.5c0.2,1.6,0.9,2.9,1.9,4c0.1,0.2,0.3,0.3,0.4,0.5c2.3,2.3,6,3.2,9.2,1.6l21.7-10.4
				l-2.1,23.9c-0.2,2.3,0.6,4.3,1.9,5.9c0.1,0.2,0.3,0.3,0.5,0.5c1.8,1.9,4.5,2.8,7.3,2.3l23.6-5l-7.8,22.8c-1,2.8-0.2,5.8,1.6,7.9
				c0.2,0.3,0.4,0.5,0.7,0.7c1.3,1.2,3.1,2,5.1,2.1l24,0.8l-12.9,20.3c-2.3,3.6-1.3,8.1,1.8,10.5l0.1,0.1c0.8,0.7,1.7,1.2,2.8,1.4
				l23.1,6.6l-17.4,16.5c-1.4,1.4-2.3,3.2-2.5,5.1c-0.1,0.5-0.1,1,0,1.5c0,0.3,0.1,0.6,0.1,0.9c0.4,2.1,1.6,4,3.5,5.1l10.4,6.7
				h-66.5c-2.9-50.2-44.6-90.2-95.5-90.2s-92.6,40-95.5,90.2H-649l10.4-6.7c4.1-2.7,4.8-8.4,1.7-12c-0.2-0.2-0.4-0.4-0.6-0.6
				l-17.5-16.6l23.3-6.5c5.1-1.4,7.4-7.5,4.6-12l-13-20.4l24.2-0.8c5.3-0.2,9-5.6,7.3-10.6L-616.4,858.2z"/>
			<path d="M-615.9,891.7l-24.2,0.8l13,20.4c2.8,4.5,0.5,10.6-4.6,12l-23.3,6.5l23.2-6.6c5.1-1.4,7.4-7.6,4.6-12l-13-20.4
				L-615.9,891.7c5.2-0.3,8.9-5.7,7.2-10.7l-7.8-22.9l23.7,5c5.2,1.1,10.1-3.3,9.6-8.5l-2.1-24.1l21.8,10.5c4.8,2.3,10.6-0.8,11.4-6
				l3.7-23.9l18.6,15.4c4.1,3.4,10.4,1.8,12.5-3.1l9.4-22.3l0.1,0.1l-9.4,22.3c-2,4.9-8.4,6.4-12.5,3.1l-18.6-15.4l-3.7,23.9
				c-0.8,5.2-6.6,8.3-11.4,6l-21.8-10.5l2.1,24.1c0.4,5.3-4.5,9.6-9.6,8.5l-23.7-5l7.8,22.9C-606.9,886.1-610.6,891.5-615.9,891.7z"
				/>
			<path d="M-653.7,847.6c4.4,0,8,3.6,8,8c0,4.4-3.6,8-8,8h-42.8c-4.4,0-8-3.6-8-8c0-4.4,3.6-8,8-8H-653.7z"/>
		</g>
	</g>
</g>
</svg>
