<?xml version="1.0" encoding="utf-8"?>
<!-- Generator: Adobe Illustrator 19.0.1, SVG Export Plug-In . SVG Version: 6.00 Build 0)  -->
<svg version="1.1" id="Capa_1" xmlns="http://www.w3.org/2000/svg" xmlns:xlink="http://www.w3.org/1999/xlink" x="0px" y="0px"
	 viewBox="-743 745 512 512" style="enable-background:new -743 745 512 512;" xml:space="preserve">
<style type="text/css">
	.st0{fill:#308BE6;}
	.st1{fill:#FFFFFF;}
</style>
<g>
	<g id="XMLID_1_">
		<g>
			<path class="st0" d="M-367.4,781.8c21.1,13.6,21.2,44.4,0,58.1c11.1,15.2,0.3,36.8-18.7,36.8c-4.1,0-7.5-3.4-7.5-7.5
				c0-4.1,3.4-7.5,7.5-7.5c4.5,0,8.1-3.7,8.1-8.1c0-4.5-3.7-8.1-8.1-8.1c-4.1,0-7.5-3.4-7.5-7.5c0-4.2,3.4-7.5,7.5-7.5
				c10.8,0,19.6-8.8,19.6-19.5c0-10.8-8.8-19.6-19.6-19.6c-4.1,0-7.5-3.3-7.5-7.5c0-4.1,3.4-7.5,7.5-7.5c4.5,0,8.1-3.7,8.1-8.1
				c0-4.4-3.7-8.1-8.1-8.1c-4.1,0-7.5-3.4-7.5-7.5c0-4.1,3.4-7.5,7.5-7.5C-367.1,745-356.3,766.6-367.4,781.8z"/>
			<path class="st0" d="M-408,783.5c0,11.6-9.4,21-21,21h-41c-4.1,0-7.5-3.4-7.5-7.5s3.4-7.5,7.5-7.5h41c3.3,0,6-2.7,6-6s-2.7-6-6-6
				c-4.1,0-7.5-3.4-7.5-7.5C-436.5,755.9-408,762.5-408,783.5z"/>
			<path class="st0" d="M-429,816.4c11.6,0,21,9.4,21,21c0,21.1-28.5,27.5-28.5,13.5c0-4.1,3.4-7.5,7.5-7.5c3.3,0,6-2.7,6-6
				c0-3.3-2.7-6-6-6h-41c-4.1,0-7.5-3.3-7.5-7.5c0-4.1,3.4-7.5,7.5-7.5H-429z"/>
			<path class="st0" d="M-483.5,882.2c3.3,0,6,2.7,6,6c0,0.4,0,0.8-0.1,1.2c-0.5,2.3-2.3,4.2-4.6,4.7c-0.4,0.1-0.8,0.1-1.2,0.1
				h-113.9c-3.3,0-6-2.7-6-6s2.7-6,6-6C-584.3,882.2-496.2,882.2-483.5,882.2z"/>
			<path class="st1" d="M-515.8,804.8v12h-4.4c-3.3,0-6-2.7-6-6s2.7-6,6-6C-520.2,804.8-515.8,804.8-515.8,804.8z"/>
			<path d="M-515.8,789.8v0.1h-4.4c-11.2,0-20.4,8.8-21,19.9c0.5-11.2,9.7-20,21-20C-520.2,789.8-515.8,789.8-515.8,789.8z"/>
			<path d="M-520.2,816.8h4.4v-12h-4.4c-3.3,0-6,2.7-6,6S-523.5,816.8-520.2,816.8z M-603.3,888.2c0,3.3,2.7,6,6,6h113.8
				c0.4,0,0.8,0,1.2-0.1c2.4-0.5,4.2-2.3,4.6-4.7c0.1-0.4,0.1-0.8,0.1-1.2c0-3.3-2.7-6-6-6c-12.7,0-100.8,0-113.8,0
				C-600.6,882.2-603.3,884.9-603.3,888.2z M-467.9,1135v-25.5c-3.6-1.3-7.3-2.2-11-2.6c-7.2-0.8-12.8-6.4-13.6-13.6
				c-1.9-17.8-13.5-31.9-28.5-38.3c-3.8-1.6-5.6-6-4-9.8c1.6-3.8,6-5.6,9.8-4c21.2,8.9,35.2,28.6,37.6,50.4c0.1,0.9,1.3-0.1,9.7,2.1
				v-156h-67.6c-4.1,0-7.5-3.4-7.5-7.5s3.4-7.5,7.5-7.5h67.5v-9c0-2.4-2.1-4.5-4.5-4.5c-16.4,0-119.9,0-136.5,0
				c-2.4,0-4.5,2.1-4.5,4.5v23.9c14.1,10.2,23.2,26,25.2,43.1c0.1,0.4,0.4,0.6,0.8,0.7c24.1,2.8,43.2,18.9,51,39.9
				c1.4,3.9-0.5,8.2-4.4,9.7c-3.9,1.4-8.2-0.5-9.6-4.4c-6-15.9-20.5-28.2-38.7-30.3c-7.4-0.9-13.1-6.6-13.9-13.9
				c-1-9-4.6-17.4-10.3-24.4v128.4c4.2,1.8,8.7,3,13.2,3.5c7.4,0.9,13.1,6.6,13.9,13.9c2.5,21.8,19.8,39,41.7,41.4
				c7.2,0.8,12.8,6.4,13.6,13.6c1,9,4.4,17.2,9.9,24.2v-28.5c0-10.8,8.8-19.5,19.5-19.5H-467.9L-467.9,1135z M-345.5,1154.6v87
				c0,8.5-6.9,15.4-15.4,15.4h-248c-10.8,0-19.5-8.8-19.5-19.5v-20.2c0-4.1,3.4-7.5,7.5-7.5c4.1,0,7.5,3.4,7.5,7.5v20.2
				c0,2.4,2.1,4.5,4.5,4.5h87.9v-38.3c-14.6-10.8-23.1-26.9-24.8-43.2c-0.1-1.2-19.4,0-37.5-18.1c-10-10-16.2-22.7-17.8-36.8
				c-0.2-1.6-2.3-0.1-12.3-3.2v79.9c0,4.1-3.4,7.5-7.5,7.5c-4.1,0-7.5-3.4-7.5-7.5c0-8.2,0-251.9,0-268.6c0-8,4.8-14.8,11.6-17.8
				c-4.6-11.7,2-24.7,14.1-28c2.8-11.6,11.2-20.9,22.1-25.2V786c0-10.8,8.8-19.5,19.5-19.5h40.8c10.8,0,19.5,8.8,19.5,19.5
				c0,19.9,0,36.4,0,56.5c11.2,4.2,19.8,13.7,22.7,25.5c12.1,3.2,18.9,16.4,14,28.2c6.5,3.2,11.1,9.8,11.1,17.6
				c0,14.9,0,212.3,0,221.4h28.2c4.1,0,7.5,3.4,7.5,7.5c0,4.1-3.4,7.5-7.5,7.5c-15.3,0-61.7,0-76.8,0c-2.4,0-4.5,2.1-4.5,4.5
				c0,20.9,0,39.2,0,60.4h122.8c4.1,0,7.5,3.4,7.5,7.5s-3.4,7.5-7.5,7.5h-122.8v12H-361c0.9,0,0.2,4.6,0.4-87.4
				c0-2.4-2.1-4.5-4.5-4.5h-24.7c-4.1,0-7.5-3.4-7.5-7.5c0-4.1,3.4-7.5,7.5-7.5h24.7C-354.3,1135.1-345.5,1143.8-345.5,1154.6z
				 M-586.6,867.2h92.4c-3.5-7.1-10.8-12-19.2-12h-54C-575.7,855.2-583.1,860.1-586.6,867.2z M-515.8,840.2v-8.3v-0.1h-4.4
				c-11.2,0-20.4-8.8-21-19.9c0-0.4,0-0.7,0-1.1c0-0.3,0-0.7,0-1c0.6-11.1,9.7-19.9,21-19.9h4.4v-0.1V786c0-2.4-2.1-4.5-4.5-4.5
				h-40.8c-2.4,0-4.5,2.1-4.5,4.5v54.2H-515.8z"/>
		</g>
	</g>
</g>
</svg>
