<?xml version="1.0" encoding="utf-8"?>
<!-- Generator: Adobe Illustrator 19.0.1, SVG Export Plug-In . SVG Version: 6.00 Build 0)  -->
<svg version="1.1" id="Capa_1" xmlns="http://www.w3.org/2000/svg" xmlns:xlink="http://www.w3.org/1999/xlink" x="0px" y="0px"
	 viewBox="-824 826 350 350" style="enable-background:new -824 826 350 350;" xml:space="preserve">
<style type="text/css">
	.st0{fill:#308BE6;}
	.st1{fill:#FFFFFF;}
</style>
<g>
	<g id="XMLID_1_">
		<g>
			<path d="M-531,833c2.2,0,4,1.8,4,4s-1.8,4-4,4h-8.4v6.9h0.3c2.2,0,4,1.8,4,4v117.8c0,2.2-1.8,4-4,4h-7.5v86.5
				c0,24-19.5,43.4-43.4,43.4h-3v50.4c0,2.2-1.8,4-4,4h-8.5v14c0,2.2-1.8,4-4,4h-17c-2.2,0-4-1.8-4-4v-14h-103v14c0,2.2-1.8,4-4,4
				h-17c-2.2,0-4-1.8-4-4v-14h-8.5c-2.2,0-4-1.8-4-4V881c0-2.2,1.8-4,4-4h170c2.2,0,4,1.8,4,4v214.7h2.9c19.6,0,35.4-15.9,35.4-35.4
				v-86.5h-7.5c-2.2,0-4-1.8-4-4V851.9c0-2.2,1.8-4,4-4h0.3V841H-684c-2.2,0-4-1.8-4-4s1.8-4,4-4h122.1v-3c0-2.2,1.8-4,4-4
				c2.2,0,4,1.8,4,4v3h6.5v-3c0-2.2,1.8-4,4-4c2.2,0,4,1.8,4,4v3H-531z M-543.1,965.7v-6.5h-15v6.5H-543.1z M-543.1,951.2v-7h-15v7
				H-543.1z M-543.1,936.2v-7h-15v7H-543.1z M-543.1,921.2v-65.3h-15v65.3C-558.1,921.2-543.1,921.2-543.1,921.2z M-547.4,847.9V841
				h-6.5v6.9H-547.4z M-601,1150V885h-162v265H-601z M-613.5,1168v-10h-9v10H-613.5z M-741.5,1168v-10h-9v10H-741.5z"/>
			<path d="M-607,934v190.2c0,10.9-8.9,19.8-19.8,19.8h-110.4c-10.9,0-19.8-8.9-19.8-19.8V934c0-10.9,8.9-19.8,19.8-19.8h110.4
				C-615.9,914.2-607,923.1-607,934z M-615,1124.2V934c0-6.5-5.3-11.8-11.8-11.8h-110.4c-6.5,0-11.8,5.3-11.8,11.8v190.2
				c0,6.5,5.3,11.8,11.8,11.8h110.4C-620.3,1136-615,1130.7-615,1124.2z"/>
			<path d="M-624.8,936.9c2.2,0,4,1.8,4,4c0,2.2-1.8,4-4,4h-37.7c-2.2,0-4-1.8-4-4c0-2.2,1.8-4,4-4H-624.8z"/>
			<path d="M-624.8,949.9c2.2,0,4,1.8,4,4c0,2.2-1.8,4-4,4h-37.7c-2.2,0-4-1.8-4-4c0-2.2,1.8-4,4-4
				C-662.5,949.9-624.8,949.9-624.8,949.9z"/>
			<path d="M-624.8,963c2.2,0,4,1.8,4,4s-1.8,4-4,4h-37.7c-2.2,0-4-1.8-4-4s1.8-4,4-4H-624.8z"/>
			<path d="M-644.8,1047.4c1.8,0.6,3.3,2,3.8,3.9C-641.5,1049.4-643,1047.9-644.8,1047.4z"/>
			<path d="M-644.8,1099.4c1.8,0.6,3.3,2,3.8,3.9C-641.5,1101.4-643,1100-644.8,1099.4z"/>
			<path d="M-647.7,1047.2c0.4-0.1,0.8-0.1,1.2-0.1c0.6,0,1.2,0.1,1.7,0.3c1.8,0.6,3.3,2.1,3.8,3.9c0.2,0.5,0.3,1.1,0.3,1.7
				c0,0.2,0,0.5,0,0.7c0,0.2,0,0.3-0.1,0.5c0,0.2-0.1,0.4-0.1,0.6c-0.1,0.2-0.1,0.4-0.2,0.6c-0.5,1.2-1.4,2.3-2.6,2.9
				c-0.2,0.1-0.3,0.2-0.5,0.3c-0.3,0.1-0.7,0.3-1.1,0.3c-0.4,0-0.8,0.1-1.2,0.1c-0.4,0-0.8,0-1.2-0.1c-2.6-0.6-4.6-2.9-4.6-5.8
				c0-2.4,1.5-4.5,3.5-5.4l0,0C-648.4,1047.4-648.1,1047.3-647.7,1047.2z"/>
			<path d="M-647.7,1099.2c0.4-0.1,0.8-0.1,1.2-0.1c0.6,0,1.2,0.1,1.7,0.3c1.8,0.6,3.3,2.1,3.8,3.9c0.2,0.5,0.3,1.1,0.3,1.7
				c0,0.2,0,0.5,0,0.7c0,0.2,0,0.3-0.1,0.5c0,0.2-0.1,0.4-0.1,0.6c-0.1,0.2-0.1,0.4-0.2,0.5c-0.5,1.2-1.4,2.3-2.6,2.9
				c-0.2,0.1-0.3,0.2-0.5,0.3c-0.3,0.1-0.7,0.3-1.1,0.3c-0.4,0-0.8,0.1-1.2,0.1c-0.4,0-0.8,0-1.2-0.1c-2.6-0.5-4.6-2.9-4.6-5.8
				c0-2.4,1.5-4.5,3.5-5.4l0,0C-648.4,1099.4-648.1,1099.3-647.7,1099.2z"/>
			<path class="st0" d="M-646.5,1066c-7.2,0-13-5.8-13-13s5.8-13,13-13s13,5.8,13,13S-639.3,1066-646.5,1066z M-640.7,1053
				c0-0.6-0.1-1.2-0.3-1.7c-0.6-1.9-2-3.3-3.8-3.9c-0.5-0.2-1.1-0.3-1.7-0.3c-0.4,0-0.8,0-1.2,0.1c-0.4,0.1-0.8,0.2-1.1,0.3l0,0
				c-2.1,0.9-3.6,3-3.6,5.4c0,2.9,2,5.3,4.7,5.8c0.4,0.1,0.8,0.1,1.2,0.1c0.4,0,0.8,0,1.2-0.1c0.4-0.1,0.7-0.2,1.1-0.3
				c0.2-0.1,0.3-0.2,0.5-0.3c1.2-0.6,2.1-1.7,2.6-2.9c0.1-0.2,0.2-0.4,0.2-0.6c0.1-0.2,0.1-0.4,0.1-0.6s0.1-0.3,0.1-0.5
				C-640.7,1053.5-640.7,1053.2-640.7,1053z"/>
			<path class="st1" d="M-646.5,1118c-7.2,0-13-5.8-13-13s5.8-13,13-13s13,5.8,13,13S-639.3,1118-646.5,1118z M-640.7,1105
				c0-0.6-0.1-1.2-0.3-1.7c-0.6-1.9-2-3.3-3.8-3.9c-0.5-0.2-1.1-0.3-1.7-0.3c-0.4,0-0.8,0-1.2,0.1c-0.4,0.1-0.8,0.2-1.1,0.3l0,0
				c-2.1,0.9-3.6,3-3.6,5.4c0,2.9,2,5.3,4.7,5.8c0.4,0.1,0.8,0.1,1.2,0.1c0.4,0,0.8,0,1.2-0.1c0.4-0.1,0.7-0.2,1.1-0.3
				c0.2-0.1,0.3-0.1,0.5-0.3c1.2-0.6,2.1-1.6,2.6-2.9c0.1-0.2,0.2-0.4,0.2-0.5c0.1-0.2,0.1-0.4,0.1-0.6c0-0.2,0.1-0.3,0.1-0.5
				C-640.7,1105.5-640.7,1105.2-640.7,1105z"/>
			<path d="M-646.5,1066c7.2,0,13-5.8,13-13s-5.8-13-13-13s-13,5.8-13,13S-653.7,1066-646.5,1066z M-646.5,1032c11.6,0,21,9.4,21,21
				s-9.4,21-21,21s-21-9.4-21-21S-658.1,1032-646.5,1032z"/>
			<path d="M-646.5,1118c7.2,0,13-5.8,13-13s-5.8-13-13-13s-13,5.8-13,13S-653.7,1118-646.5,1118z M-646.5,1084c11.6,0,21,9.4,21,21
				s-9.4,21-21,21s-21-9.4-21-21S-658.1,1084-646.5,1084z"/>
			<path d="M-678.5,1049c2.2,0,4,1.8,4,4s-1.8,4-4,4h-20c-2.2,0-4-1.8-4-4s1.8-4,4-4H-678.5z"/>
			<path d="M-678.5,1101c2.2,0,4,1.8,4,4s-1.8,4-4,4h-6v6c0,2.2-1.8,4-4,4s-4-1.8-4-4v-6h-6c-2.2,0-4-1.8-4-4s1.8-4,4-4h6v-6
				c0-2.2,1.8-4,4-4s4,1.8,4,4v6H-678.5z"/>
			<path d="M-677,940.9V967c0,2.2-1.8,4-4,4h-58c-2.2,0-4-1.8-4-4v-26.2c0-2.2,1.8-4,4-4h58C-678.8,936.9-677,938.7-677,940.9z
				 M-685,963.1L-685,963.1v-18.2v-0.1h-50v0.1V963v0.1H-685z"/>
			<rect x="-735" y="963" width="50" height="0.1"/>
			<rect x="-735" y="944.9" class="st0" width="50" height="18.1"/>
		</g>
	</g>
</g>
</svg>
