<?xml version="1.0" encoding="utf-8"?>
<!-- Generator: Adobe Illustrator 19.0.1, SVG Export Plug-In . SVG Version: 6.00 Build 0)  -->
<svg version="1.1" id="Слой_1" xmlns="http://www.w3.org/2000/svg" xmlns:xlink="http://www.w3.org/1999/xlink" x="0px" y="0px"
	 viewBox="-926 938.2 146.4 124.8" style="enable-background:new -926 938.2 146.4 124.8;" xml:space="preserve">
<style type="text/css">
	.st0{fill:none;stroke:#1F1B20;stroke-width:3;}
	.st1{fill:none;stroke:#1F1B20;stroke-width:2;}
	.st2{fill:none;stroke:#308BE6;stroke-width:2;}
	.st3{fill:none;stroke:#1F1B20;stroke-width:3;stroke-linejoin:round;}
	.st4{fill:#308BE6;stroke:#308BE6;stroke-width:2;}
	.st5{fill:none;stroke:#1F1B20;stroke-width:3;stroke-linecap:round;stroke-linejoin:round;}
	.st6{fill:none;stroke:#308BE6;stroke-width:3;stroke-linecap:round;stroke-linejoin:round;}
</style>
<g id="Слой_x0020_2">
	<path class="st0" d="M-916.5,990.3h13.5c0.9,0,1.6,0.7,1.6,1.6v4.4c0,0.9-0.7,1.6-1.6,1.6h-13.5c-0.9,0-1.6-0.7-1.6-1.6v-4.4
		C-918.1,991-917.4,990.3-916.5,990.3z"/>
	<path class="st1" d="M-914.7,1004.7c1.4,0,2.6,1.2,2.6,2.6c0,1.4-1.2,2.6-2.6,2.6c-1.4,0-2.6-1.2-2.6-2.6
		C-917.3,1005.9-916.1,1004.7-914.7,1004.7z"/>
	<path class="st1" d="M-905,1004.7c1.4,0,2.6,1.2,2.6,2.6c0,1.4-1.2,2.6-2.6,2.6c-1.5,0-2.6-1.2-2.6-2.6
		C-907.6,1005.9-906.5,1004.7-905,1004.7z"/>
	<path class="st2" d="M-914.7,1014.3c1.4,0,2.6,1.2,2.6,2.6c0,1.5-1.2,2.6-2.6,2.6c-1.4,0-2.6-1.2-2.6-2.6
		C-917.3,1015.5-916.1,1014.3-914.7,1014.3z"/>
	<path class="st1" d="M-905,1014.3c1.4,0,2.6,1.2,2.6,2.6c0,1.5-1.2,2.6-2.6,2.6c-1.5,0-2.6-1.2-2.6-2.6
		C-907.6,1015.5-906.5,1014.3-905,1014.3z"/>
	<path class="st1" d="M-914.7,1023.7c1.4,0,2.6,1.2,2.6,2.6c0,1.5-1.2,2.6-2.6,2.6c-1.4,0-2.6-1.2-2.6-2.6
		C-917.3,1024.9-916.1,1023.7-914.7,1023.7z"/>
	<path class="st1" d="M-905,1023.7c1.4,0,2.6,1.2,2.6,2.6c0,1.5-1.2,2.6-2.6,2.6c-1.5,0-2.6-1.2-2.6-2.6
		C-907.6,1024.9-906.5,1023.7-905,1023.7z"/>
	<path class="st0" d="M-921.3,984h22.8c2,0,3.6,1.6,3.6,3.6v45c0,2-1.6,3.6-3.6,3.6h-22.8c-2,0-3.6-1.6-3.6-3.6v-45
		C-924.9,985.6-923.3,984-921.3,984z"/>
	<path class="st3" d="M-780.8,1026.2h-114.1v6.3c0,2-1.6,3.6-3.6,3.6H-909c0,8.6,0,17.1,0,25.7h39.2l6.4-16.3h37.3l8,16.3h37.3
		V1026.2z"/>
	<path class="st0" d="M-889.1,946.1h21.4v19.7h-21.4V946.1z M-825.1,946.1h24.9v19.7h-24.9V946.1z"/>
	<path class="st0" d="M-894.9,1026.2v-38.7c0-2-1.6-3.6-3.6-3.6h-3.8v-40.8c0-1.5,1.2-2.8,2.8-2.8h7.5c1.5,0,2.8,1.3,2.8,2.8v83.1
		H-894.9z"/>
	<path class="st0" d="M-800.2,1026.2v-83.1c0-1.5,1.2-2.8,2.8-2.8h7.5c1.5,0,2.8,1.3,2.8,2.8v83.1H-800.2z"/>
	<path class="st0" d="M-865.3,939.3h37.7c1.4,0,2.5,1.1,2.5,2.5V970c0,1.3-1.1,2.4-2.5,2.4h-37.7c-1.3,0-2.4-1.1-2.4-2.4v-28.1
		C-867.7,940.5-866.6,939.3-865.3,939.3z"/>
	<path class="st2" d="M-851.1,946.1c5.4,0,9.8,4.4,9.8,9.9s-4.4,9.9-9.8,9.9c-5.5,0-9.9-4.4-9.9-9.9S-856.6,946.1-851.1,946.1z"/>
	<path class="st1" d="M-835,946.6c1.7,0,3.1,1.4,3.1,3.1c0,1.7-1.4,3.1-3.1,3.1c-1.7,0-3.1-1.4-3.1-3.1
		C-838.1,948-836.7,946.6-835,946.6z"/>
	<line class="st2" x1="-861" y1="956" x2="-841.3" y2="956"/>
	<path class="st4" d="M-850.9,953.3c1.5,0,2.8,1.3,2.8,2.8c0,1.5-1.2,2.8-2.8,2.8c-1.6,0-2.8-1.3-2.8-2.8
		C-853.7,954.6-852.5,953.3-850.9,953.3z"/>
	<path class="st0" d="M-837.8,972.4v11.3c0,0.7-0.6,1.4-1.4,1.4h-10.3c-0.8,0-1.4-0.7-1.4-1.4v-11.3H-837.8z"/>
	<path class="st5" d="M-841.1,985c0,2.2,0,4.5,0,6.8c-0.9,0.9-1.9,1.8-2.8,2.8c-0.2,0-0.5,0-0.7,0c-0.9-1-1.8-1.9-2.8-2.8V985
		H-841.1z"/>
	<line class="st5" x1="-813.4" y1="1037.4" x2="-789.5" y2="1037.4"/>
	<line class="st6" x1="-813.4" y1="1043.9" x2="-789.5" y2="1043.9"/>
	<line class="st5" x1="-813.4" y1="1050.2" x2="-789.5" y2="1050.2"/>
	<polygon class="st3" points="-882.5,1020.4 -806.2,1020.4 -806.2,1026.2 -882.5,1026.2 	"/>
</g>
</svg>
