<svg xmlns="http://www.w3.org/2000/svg" width="15" height="19" viewBox="0 0 15 19">
  <metadata><?xpacket begin="﻿" id="W5M0MpCehiHzreSzNTczkc9d"?>
<x:xmpmeta xmlns:x="adobe:ns:meta/" x:xmptk="Adobe XMP Core 5.6-c140 79.160451, 2017/05/06-01:08:21        ">
   <rdf:RDF xmlns:rdf="http://www.w3.org/1999/02/22-rdf-syntax-ns#">
      <rdf:Description rdf:about=""/>
   </rdf:RDF>
</x:xmpmeta>
                                                                                                    
                                                                                                    
                                                                                                    
                                                                                                    
                                                                                                    
                                                                                                    
                                                                                                    
                                                                                                    
                                                                                                    
                                                                                                    
                                                                                                    
                                                                                                    
                                                                                                    
                                                                                                    
                                                                                                    
                                                                                                    
                                                                                                    
                                                                                                    
                                                                                                    
                                                                                                    
                           
<?xpacket end="w"?></metadata>
<defs>
    <style>
      .cls-1 {
        fill: #fff;
        fill-rule: evenodd;
      }
    </style>
  </defs>
  <path id="Forma_1" data-name="Forma 1" class="cls-1" d="M1202.5,515h-10a2.44,2.44,0,0,0-2.5,2.375v14.25a2.44,2.44,0,0,0,2.5,2.375h10a2.44,2.44,0,0,0,2.5-2.375v-14.25A2.44,2.44,0,0,0,1202.5,515Zm0.83,16.625a0.81,0.81,0,0,1-.83.791h-10a0.81,0.81,0,0,1-.83-0.791v-14.25a0.811,0.811,0,0,1,.83-0.792h10a0.811,0.811,0,0,1,.83.792v14.25Zm-8.57-8.479a0.878,0.878,0,0,0-1.19,0,0.8,0.8,0,0,0-.24.562,0.784,0.784,0,0,0,.07.3,0.74,0.74,0,0,0,.45.427,0.89,0.89,0,0,0,.32.064,0.862,0.862,0,0,0,.59-0.23A0.778,0.778,0,0,0,1194.76,523.146Zm0,3.166a0.907,0.907,0,0,0-1.19,0v0a0.773,0.773,0,0,0,0,1.12,0.866,0.866,0,0,0,.28.166,0.89,0.89,0,0,0,.32.063,0.857,0.857,0,0,0,.59-0.229v0A0.765,0.765,0,0,0,1194.76,526.312Zm3.33-3.161a0.866,0.866,0,0,0-1.18,0,0.726,0.726,0,0,0-.24.562,0.774,0.774,0,0,0,.06.3,0.746,0.746,0,0,0,.18.261,0.936,0.936,0,0,0,.27.166,0.89,0.89,0,0,0,.32.064,0.843,0.843,0,0,0,.58-0.23A0.764,0.764,0,0,0,1198.09,523.151Zm0,3.158a0.867,0.867,0,0,0-1.18,0,0.723,0.723,0,0,0-.24.562,0.774,0.774,0,0,0,.06.3,0.746,0.746,0,0,0,.18.261,0.936,0.936,0,0,0,.27.166,0.912,0.912,0,0,0,.32.064,0.843,0.843,0,0,0,.58-0.23A0.765,0.765,0,0,0,1198.09,526.309Zm-3.33,3.17a0.868,0.868,0,0,0-.91-0.166,0.848,0.848,0,0,0-.28.166v0a0.772,0.772,0,0,0,0,1.119,0.868,0.868,0,0,0,.28.167,0.911,0.911,0,0,0,.32.063,0.853,0.853,0,0,0,.59-0.23v0A0.765,0.765,0,0,0,1194.76,529.479Zm3.33,0a0.867,0.867,0,0,0-1.18,0,0.726,0.726,0,0,0-.24.562,0.774,0.774,0,0,0,.06.3,0.75,0.75,0,0,0,.18.262,0.982,0.982,0,0,0,.27.166,0.911,0.911,0,0,0,.32.063,0.846,0.846,0,0,0,.58-0.229A0.765,0.765,0,0,0,1198.09,529.476Zm3.33-6.33a0.849,0.849,0,0,0-.9-0.166,0.988,0.988,0,0,0-.28.166,0.8,0.8,0,0,0-.24.562,0.637,0.637,0,0,0,.07.3,0.878,0.878,0,0,0,.17.261,0.988,0.988,0,0,0,.28.166,0.838,0.838,0,0,0,.31.064,0.922,0.922,0,0,0,.6-0.23,0.878,0.878,0,0,0,.17-0.261,0.784,0.784,0,0,0,.07-0.3A0.771,0.771,0,0,0,1201.42,523.146Zm-0.59,2.937a0.811,0.811,0,0,0-.83.792v3.166a0.81,0.81,0,0,0,.83.792,0.819,0.819,0,0,0,.84-0.792v-3.166A0.82,0.82,0,0,0,1200.83,526.083Zm-9.16-6.341h11.66v1.583h-11.66v-1.583Z" transform="translate(-1190 -515)"/>
</svg>
