<?xml version="1.0" encoding="utf-8"?>
<!-- Generator: Adobe Illustrator 21.1.0, SVG Export Plug-In . SVG Version: 6.00 Build 0)  -->
<svg version="1.1" id="Capa_1" xmlns="http://www.w3.org/2000/svg" xmlns:xlink="http://www.w3.org/1999/xlink" x="0px" y="0px"
	 viewBox="0 0 512 512" style="enable-background:new 0 0 512 512;" xml:space="preserve">
<style type="text/css">
	.st0{fill:#308BE6;}
	.st1{fill:#FFFFFF;}
</style>
<g>
	<g id="XMLID_1_">
		<g>
			<path class="st0" d="M426.4,85.6c45.5,45.5,70.6,106,70.6,170.4s-25.1,124.9-70.6,170.4S320.4,497,256,497
				s-124.9-25.1-170.4-70.6S15,320.4,15,256S40.1,131.1,85.6,85.6S191.6,15,256,15S380.9,40.1,426.4,85.6z M471.8,263.8
				c2-54.4-16.5-107.1-51.8-148.3c-2.7-3.1-7.4-3.5-10.6-0.8c-3.1,2.7-3.5,7.4-0.8,10.6c32.9,38.3,50,87.3,48.2,138
				c-1.8,50.9-22.7,98.8-58.7,134.8c-36,36-83.9,56.9-134.8,58.7c-50.7,1.8-99.7-15.3-138-48.2c-3.1-2.7-7.9-2.3-10.6,0.8
				c-2.7,3.1-2.3,7.9,0.8,10.6c39.2,33.7,88.8,52,140.4,52c2.6,0,5.2-0.1,7.8-0.1c54.7-2,106.2-24.4,144.9-63.1
				C447.4,369.9,469.8,318.5,471.8,263.8z M439.9,256c0-4.1-3.4-7.5-7.5-7.5h-24c-4.1,0-7.5,3.4-7.5,7.5c0,4.1,3.4,7.5,7.5,7.5h24
				C436.5,263.5,439.9,260.1,439.9,256z M412.5,174.3c3.6-2.1,4.8-6.7,2.7-10.3c-2.1-3.6-6.7-4.8-10.2-2.7l-13.9,8
				c-3.6,2.1-4.8,6.7-2.7,10.3c1.4,2.4,3.9,3.8,6.5,3.8c1.3,0,2.6-0.3,3.7-1L412.5,174.3z M415.2,347.9c2.1-3.6,0.8-8.2-2.7-10.3
				l-13.9-8c-3.6-2.1-8.2-0.9-10.2,2.7s-0.8,8.2,2.7,10.3l13.9,8c1.2,0.7,2.5,1,3.7,1C411.3,351.7,413.8,350.3,415.2,347.9z
				 M397.3,102.6c2.7-3.1,2.3-7.9-0.8-10.6c-41.2-35.4-93.8-53.8-148.3-51.8c-54.7,1.9-106.2,24.4-144.9,63.1s-61.2,90.2-63.1,144.9
				c-2,54.4,16.4,107.1,51.8,148.3c1.5,1.7,3.6,2.6,5.7,2.6c1.7,0,3.5-0.6,4.9-1.8c3.1-2.7,3.5-7.4,0.8-10.6
				c-32.9-38.3-50-87.3-48.2-138c1.8-50.9,22.7-98.8,58.7-134.8c36-36.1,83.9-56.9,134.8-58.7c50.7-1.8,99.6,15.3,137.9,48.2
				C389.9,106.1,394.6,105.8,397.3,102.6z M367.7,256c0-4.1-3.4-7.5-7.5-7.5h-81.9c-2.3-6.9-7.8-12.5-14.8-14.8v-97.9
				c0-4.1-3.4-7.5-7.5-7.5c-4.1,0-7.5,3.4-7.5,7.5v97.9c-6.9,2.3-12.5,7.9-14.8,14.8h-9.8c-4.1,0-7.5,3.4-7.5,7.5
				c0,4.1,3.4,7.5,7.5,7.5h9.8c2.3,7,7.9,12.5,14.8,14.8v9.8c0,4.1,3.4,7.5,7.5,7.5c4.1,0,7.5-3.4,7.5-7.5v-9.8
				c7-2.3,12.5-7.8,14.8-14.8h81.9C364.4,263.5,367.7,260.1,367.7,256z M350.7,107c2.1-3.6,0.8-8.2-2.7-10.2
				c-3.6-2.1-8.2-0.8-10.3,2.7l-8,13.9c-2.1,3.6-0.9,8.2,2.7,10.2c1.2,0.7,2.5,1,3.7,1c2.6,0,5.1-1.4,6.5-3.8L350.7,107z
				 M347.9,415.2c3.6-2.1,4.8-6.6,2.7-10.2l-8-13.9c-2.1-3.6-6.7-4.8-10.3-2.7s-4.8,6.7-2.7,10.2l8,13.9c1.4,2.4,3.9,3.8,6.5,3.8
				C345.5,416.2,346.8,415.9,347.9,415.2z M263.5,432.4v-24c0-4.1-3.4-7.5-7.5-7.5c-4.1,0-7.5,3.4-7.5,7.5v24c0,4.1,3.4,7.5,7.5,7.5
				C260.1,439.9,263.5,436.5,263.5,432.4z M263.5,103.7v-24c0-4.2-3.4-7.5-7.5-7.5c-4.1,0-7.5,3.3-7.5,7.5v24c0,4.1,3.4,7.5,7.5,7.5
				C260.1,111.2,263.5,107.8,263.5,103.7z M179.6,123.7c3.6-2.1,4.8-6.7,2.7-10.2l-8-13.9c-2.1-3.6-6.7-4.8-10.3-2.7
				c-3.6,2.1-4.8,6.7-2.7,10.2l8,13.9c1.4,2.4,3.9,3.8,6.5,3.8C177.1,124.7,178.4,124.3,179.6,123.7z M182.3,398.6
				c2.1-3.6,0.8-8.2-2.7-10.2s-8.2-0.8-10.3,2.7l-8,13.9c-2.1,3.6-0.8,8.2,2.7,10.2c1.2,0.7,2.5,1,3.8,1c2.6,0,5.1-1.4,6.5-3.8
				L182.3,398.6z M123.7,179.6c2.1-3.6,0.8-8.2-2.7-10.3l-13.9-8c-3.6-2.1-8.2-0.8-10.2,2.7c-2.1,3.6-0.8,8.2,2.7,10.3l13.9,8
				c1.2,0.7,2.5,1,3.7,1C119.7,183.3,122.3,182,123.7,179.6z M120.9,342.7c3.6-2.1,4.8-6.7,2.7-10.3s-6.7-4.8-10.2-2.7l-13.9,8
				c-3.6,2.1-4.8,6.7-2.7,10.3c1.4,2.4,3.9,3.8,6.5,3.8c1.3,0,2.6-0.3,3.7-1L120.9,342.7z M111.2,256c0-4.1-3.4-7.5-7.5-7.5H79.6
				c-4.1,0-7.5,3.4-7.5,7.5c0,4.1,3.4,7.5,7.5,7.5h24.1C107.8,263.5,111.2,260.1,111.2,256z"/>
			<path class="st1" d="M437,75c48.4,48.3,75,112.6,75,181s-26.6,132.7-75,181s-112.6,75-181,75s-132.7-26.6-181-75S0,324.4,0,256
				S26.6,123.3,75,75S187.6,0,256,0S388.7,26.6,437,75z M497,256c0-64.4-25.1-124.9-70.6-170.4S320.4,15,256,15
				S131.1,40.1,85.6,85.6S15,191.6,15,256s25.1,124.9,70.6,170.4S191.6,497,256,497s124.9-25.1,170.4-70.6S497,320.4,497,256z"/>
			<path class="st1" d="M420,115.5c35.4,41.2,53.8,93.8,51.8,148.3c-2,54.7-24.4,106.2-63.1,144.9c-38.7,38.7-90.2,61.1-144.9,63.1
				c-2.6,0.1-5.2,0.1-7.8,0.1c-51.6,0-101.2-18.3-140.4-52c-3.1-2.7-3.5-7.4-0.8-10.6c2.7-3.1,7.4-3.5,10.6-0.8
				c38.3,32.9,87.3,50,138,48.2c50.9-1.8,98.8-22.7,134.8-58.7c36-36,56.9-83.9,58.7-134.8c1.8-50.7-15.3-99.6-48.2-138
				c-2.7-3.2-2.3-7.9,0.8-10.6C412.5,112,417.3,112.4,420,115.5z"/>
			<path class="st1" d="M432.4,248.5c4.1,0,7.5,3.4,7.5,7.5c0,4.1-3.4,7.5-7.5,7.5h-24c-4.1,0-7.5-3.4-7.5-7.5
				c0-4.1,3.4-7.5,7.5-7.5H432.4z"/>
			<path class="st1" d="M415.2,164.1c2.1,3.6,0.9,8.2-2.7,10.3l-13.9,8c-1.2,0.7-2.5,1-3.7,1c-2.6,0-5.1-1.3-6.5-3.8
				c-2.1-3.6-0.8-8.2,2.7-10.3l13.9-8C408.6,159.3,413.1,160.5,415.2,164.1z"/>
			<path class="st1" d="M412.5,337.7c3.6,2.1,4.8,6.7,2.7,10.3c-1.4,2.4-3.9,3.8-6.5,3.8c-1.3,0-2.6-0.3-3.7-1l-13.9-8
				c-3.6-2.1-4.8-6.7-2.7-10.3s6.7-4.8,10.2-2.7L412.5,337.7z"/>
			<path class="st1" d="M396.5,92c3.2,2.7,3.5,7.4,0.8,10.6c-2.7,3.2-7.4,3.5-10.6,0.8c-38.3-32.9-87.3-50-137.9-48.2
				C197.9,57,150,77.9,113.9,113.9C77.9,150,57,197.9,55.2,248.8c-1.8,50.7,15.3,99.7,48.2,138c2.7,3.1,2.3,7.9-0.8,10.6
				c-1.4,1.2-3.2,1.8-4.9,1.8c-2.1,0-4.2-0.9-5.7-2.6c-35.4-41.2-53.8-93.8-51.8-148.3c1.9-54.7,24.4-106.2,63.1-144.9
				s90.2-61.2,144.9-63.1C302.7,38.3,355.3,56.7,396.5,92z"/>
			<path class="st1" d="M360.2,248.5c4.1,0,7.5,3.4,7.5,7.5c0,4.1-3.4,7.5-7.5,7.5h-81.9c-2.3,7-7.8,12.5-14.8,14.8v9.8
				c0,4.1-3.4,7.5-7.5,7.5c-4.1,0-7.5-3.4-7.5-7.5v-9.8c-6.9-2.3-12.5-7.8-14.8-14.8h-9.8c-4.1,0-7.5-3.4-7.5-7.5
				c0-4.1,3.4-7.5,7.5-7.5h9.8c2.3-6.9,7.9-12.5,14.8-14.8v-97.9c0-4.1,3.4-7.5,7.5-7.5c4.1,0,7.5,3.4,7.5,7.5v97.9
				c7,2.3,12.5,7.9,14.8,14.8H360.2z M264.5,256c0-4.7-3.8-8.5-8.5-8.5c-4.7,0-8.5,3.8-8.5,8.5c0,4.7,3.8,8.5,8.5,8.5
				C260.7,264.5,264.5,260.7,264.5,256z"/>
			<path class="st1" d="M347.9,96.8c3.6,2.1,4.8,6.7,2.7,10.2l-8,13.9c-1.4,2.4-3.9,3.8-6.5,3.8c-1.3,0-2.6-0.3-3.7-1
				c-3.6-2.1-4.8-6.7-2.7-10.2l8-13.9C339.8,95.9,344.3,94.7,347.9,96.8z"/>
			<path class="st1" d="M350.7,405c2.1,3.6,0.8,8.2-2.7,10.2c-1.2,0.7-2.5,1-3.8,1c-2.6,0-5.1-1.4-6.5-3.8l-8-13.9
				c-2.1-3.6-0.9-8.2,2.7-10.2s8.2-0.8,10.3,2.7L350.7,405z"/>
			<path class="st1" d="M263.5,408.3v24c0,4.1-3.4,7.5-7.5,7.5c-4.1,0-7.5-3.4-7.5-7.5v-24c0-4.1,3.4-7.5,7.5-7.5
				C260.1,400.8,263.5,404.2,263.5,408.3z"/>
			<path class="st1" d="M263.5,79.7v24c0,4.1-3.4,7.5-7.5,7.5c-4.1,0-7.5-3.4-7.5-7.5v-24c0-4.2,3.4-7.5,7.5-7.5
				C260.1,72.2,263.5,75.5,263.5,79.7z"/>
			<path class="st1" d="M182.3,113.4c2.1,3.6,0.8,8.2-2.7,10.2c-1.2,0.7-2.5,1-3.7,1c-2.6,0-5.1-1.4-6.5-3.8l-8-13.9
				c-2.1-3.6-0.8-8.2,2.7-10.2c3.6-2.1,8.2-0.8,10.3,2.7L182.3,113.4z"/>
			<path class="st1" d="M179.6,388.4c3.6,2.1,4.8,6.7,2.7,10.2l-8,13.9c-1.4,2.4-3.9,3.8-6.5,3.8c-1.3,0-2.6-0.3-3.8-1
				c-3.6-2.1-4.8-6.6-2.7-10.2l8-13.9C171.4,387.5,176,386.3,179.6,388.4z"/>
			<path class="st1" d="M120.9,169.3c3.6,2.1,4.8,6.7,2.7,10.3c-1.4,2.4-3.9,3.8-6.5,3.8c-1.3,0-2.6-0.3-3.7-1l-13.9-8
				c-3.6-2.1-4.8-6.7-2.7-10.3c2.1-3.6,6.7-4.8,10.2-2.7L120.9,169.3z"/>
			<path class="st1" d="M123.7,332.4c2.1,3.6,0.8,8.2-2.7,10.3l-13.9,8c-1.2,0.7-2.5,1-3.7,1c-2.6,0-5.1-1.4-6.5-3.8
				c-2.1-3.6-0.8-8.2,2.7-10.3l13.9-8C117,327.6,121.6,328.8,123.7,332.4z"/>
			<path class="st1" d="M103.7,248.5c4.1,0,7.5,3.4,7.5,7.5c0,4.1-3.4,7.5-7.5,7.5H79.6c-4.1,0-7.5-3.4-7.5-7.5
				c0-4.1,3.4-7.5,7.5-7.5H103.7z"/>
		</g>
		<g>
		</g>
	</g>
</g>
</svg>
