<svg xmlns="http://www.w3.org/2000/svg" width="11" height="9" viewBox="0 0 11 9">
  <metadata><?xpacket begin="﻿" id="W5M0MpCehiHzreSzNTczkc9d"?>
<x:xmpmeta xmlns:x="adobe:ns:meta/" x:xmptk="Adobe XMP Core 5.6-c140 79.160451, 2017/05/06-01:08:21        ">
   <rdf:RDF xmlns:rdf="http://www.w3.org/1999/02/22-rdf-syntax-ns#">
      <rdf:Description rdf:about=""/>
   </rdf:RDF>
</x:xmpmeta>
                                                                                                    
                                                                                                    
                                                                                                    
                                                                                                    
                                                                                                    
                                                                                                    
                                                                                                    
                                                                                                    
                                                                                                    
                                                                                                    
                                                                                                    
                                                                                                    
                                                                                                    
                                                                                                    
                                                                                                    
                                                                                                    
                                                                                                    
                                                                                                    
                                                                                                    
                                                                                                    
                           
<?xpacket end="w"?></metadata>
<defs>
    <style>
      .cls-1 {
        fill: #308be6;
        fill-rule: evenodd;
      }
    </style>
  </defs>
  <path id="Forma_1" data-name="Forma 1" class="cls-1" d="M1280.06,896.774c0.13,0.1.55,0.406,1.25,0.911s1.24,0.894,1.61,1.167c0.04,0.029.13,0.094,0.26,0.2s0.25,0.181.33,0.243,0.2,0.131.32,0.207a2,2,0,0,0,.36.173,0.927,0.927,0,0,0,.3.057h0.02a0.927,0.927,0,0,0,.3-0.057,2,2,0,0,0,.36-0.173c0.12-.077.23-0.146,0.32-0.207s0.19-.143.33-0.243,0.22-.166.26-0.2c0.37-.273,1.33-0.966,2.87-2.078a2.97,2.97,0,0,0,.75-0.787,1.74,1.74,0,0,0,.3-0.965,1.02,1.02,0,0,0-.29-0.723,0.948,0.948,0,0,0-.69-0.3h-9.04a0.875,0.875,0,0,0-.73.332,1.324,1.324,0,0,0-.25.831,1.5,1.5,0,0,0,.34.873A2.9,2.9,0,0,0,1280.06,896.774Zm9.33,0.684q-2.025,1.419-3.06,2.206-0.345.268-.57,0.418a3.227,3.227,0,0,1-.58.307,1.705,1.705,0,0,1-.67.157h-0.02a1.705,1.705,0,0,1-.67-0.157,3.227,3.227,0,0,1-.58-0.307q-0.225-.15-0.57-0.418c-0.55-.422-1.57-1.158-3.05-2.206a3.431,3.431,0,0,1-.62-0.556v5.076a1.016,1.016,0,0,0,.29.722,0.914,0.914,0,0,0,.69.3h9.04a0.914,0.914,0,0,0,.69-0.3,1.016,1.016,0,0,0,.29-0.722V896.9A3.688,3.688,0,0,1,1289.39,897.458Z" transform="translate(-1279 -894)"/>
</svg>
