<svg width="34" height="34" viewBox="0 0 34 34" fill="none" xmlns="http://www.w3.org/2000/svg">
<path d="M25.7181 27.7213C23.3043 29.9922 20.101 31.234 16.7872 31.1834C13.4735 31.1329 10.3096 29.794 7.9661 27.4505C5.62263 25.107 4.28375 21.9432 4.2332 18.6294C4.18265 15.3156 5.4244 12.1123 7.69531 9.69848L1.97339 3.97798L3.97797 1.9734L32.0266 30.0234L30.022 32.0266L25.7181 27.7199V27.7213ZM9.69989 11.7045C7.97069 13.588 7.03582 16.0666 7.09045 18.6229C7.14508 21.1792 8.18498 23.6156 9.99306 25.4235C11.8012 27.2314 14.2377 28.2711 16.794 28.3255C19.3503 28.3798 21.8288 27.4447 23.7121 25.7153L9.7013 11.7045H9.69989ZM28.9198 22.95L26.6546 20.6847C27.0412 19.0411 27.0014 17.3259 26.539 15.7019C26.0766 14.0779 25.2069 12.599 24.0125 11.4056L17 4.39165L13.6807 7.7109L11.6776 5.70915L17 0.385315L26.0156 9.40098C27.7542 11.1392 28.9532 13.3428 29.4685 15.7466C29.9837 18.1504 29.7932 20.6519 28.9198 22.95Z" fill="#1881DD"/>
</svg>
