<svg width="34" height="34" viewBox="0 0 34 34" fill="none" xmlns="http://www.w3.org/2000/svg">
<path d="M23.1341 19.125C24.3138 18.1978 25.2674 17.0146 25.9226 15.6648C26.5779 14.3149 26.9178 12.8338 26.9166 11.3333H29.7499C29.7513 13.3314 29.2825 15.3018 28.3812 17.0851C27.48 18.8684 26.1716 20.4146 24.5621 21.5985L28.1434 27.8006C28.5191 28.4514 28.6209 29.2248 28.4264 29.9506C28.232 30.6764 27.7571 31.2952 27.1064 31.671L22.1098 23.018C20.4986 23.7229 18.7586 24.0856 16.9999 24.0833C15.2412 24.0856 13.5012 23.7229 11.89 23.018L6.8934 31.671C6.24266 31.2952 5.76782 30.6764 5.57335 29.9506C5.37887 29.2248 5.48069 28.4514 5.8564 27.8006L13.029 15.3765C12.3135 14.673 11.7976 13.7923 11.5338 12.8242C11.27 11.8561 11.2679 10.8354 11.5276 9.86622C11.7873 8.89705 12.2996 8.01416 13.0121 7.30771C13.7246 6.60127 14.6119 6.09657 15.5832 5.84515V2.83331H18.4166V5.84515C19.3879 6.09657 20.2752 6.60127 20.9877 7.30771C21.7002 8.01416 22.2125 8.89705 22.4722 9.86622C22.7319 10.8354 22.7298 11.8561 22.466 12.8242C22.2022 13.7923 21.6863 14.673 20.9708 15.3765L23.1341 19.125ZM20.6832 20.5445L18.5186 16.7946C17.5258 17.0701 16.4768 17.0701 15.4841 16.7946L13.3194 20.5445C14.4584 20.9992 15.6994 21.25 17.0013 21.25C18.3018 21.25 19.5442 20.9992 20.6832 20.5445ZM16.9999 14.1666C17.7513 14.1666 18.472 13.8681 19.0034 13.3368C19.5347 12.8054 19.8332 12.0848 19.8332 11.3333C19.8332 10.5819 19.5347 9.8612 19.0034 9.32984C18.472 8.79849 17.7513 8.49998 16.9999 8.49998C16.2484 8.49998 15.5278 8.79849 14.9964 9.32984C14.4651 9.8612 14.1666 10.5819 14.1666 11.3333C14.1666 12.0848 14.4651 12.8054 14.9964 13.3368C15.5278 13.8681 16.2484 14.1666 16.9999 14.1666Z" fill="#1881DD"/>
</svg>
