<svg width="142" height="142" viewBox="0 0 142 142" fill="none" xmlns="http://www.w3.org/2000/svg">
<path d="M71.0002 130.167C38.3224 130.167 11.8335 103.678 11.8335 71C11.8335 38.3223 38.3224 11.8334 71.0002 11.8334C103.678 11.8334 130.167 38.3223 130.167 71C130.167 103.678 103.678 130.167 71.0002 130.167ZM71.0002 118.333C83.5537 118.333 95.5932 113.346 104.47 104.47C113.347 95.593 118.334 83.5536 118.334 71C118.334 58.4465 113.347 46.407 104.47 37.5303C95.5932 28.6536 83.5537 23.6667 71.0002 23.6667C58.4466 23.6667 46.4072 28.6536 37.5304 37.5303C28.6537 46.407 23.6668 58.4465 23.6668 71C23.6668 83.5536 28.6537 95.593 37.5304 104.47C46.4072 113.346 58.4466 118.333 71.0002 118.333ZM65.1012 94.6667L39.9968 69.5623L48.363 61.1961L65.1012 77.9344L98.5659 44.4638L106.938 52.83L65.1012 94.6667Z" fill="#E7EEF5"/>
</svg>
