<svg width="34" height="34" viewBox="0 0 34 34" fill="none" xmlns="http://www.w3.org/2000/svg">
<path d="M29.7499 4.25C30.1256 4.25 30.486 4.39926 30.7517 4.66493C31.0173 4.93061 31.1666 5.29094 31.1666 5.66667V28.3333C31.1666 28.7091 31.0173 29.0694 30.7517 29.3351C30.486 29.6007 30.1256 29.75 29.7499 29.75H4.24992C3.8742 29.75 3.51386 29.6007 3.24818 29.3351C2.98251 29.0694 2.83325 28.7091 2.83325 28.3333V5.66667C2.83325 5.29094 2.98251 4.93061 3.24818 4.66493C3.51386 4.39926 3.8742 4.25 4.24992 4.25H29.7499ZM28.3333 7.08333H5.66659V26.9167H28.3333V7.08333ZM18.4166 24.0833V21.25H22.6666V17H25.4999V24.0833H18.4166ZM15.5833 9.91667V12.75H11.3333V17H8.49992V9.91667H15.5833Z" fill="#1881DD"/>
</svg>
