<svg width="34" height="34" viewBox="0 0 34 34" fill="none" xmlns="http://www.w3.org/2000/svg">
<path d="M7.08338 18.4167C7.08338 11.2087 11.196 5.049 17 2.5755C22.8041 5.049 26.9167 11.2087 26.9167 18.4167C26.9167 19.5826 26.809 20.7202 26.605 21.8209L29.3534 24.4163C29.467 24.5238 29.5418 24.6659 29.5662 24.8205C29.5905 24.975 29.563 25.1332 29.488 25.2705L25.9534 31.7518C25.9007 31.8485 25.8261 31.9317 25.7356 31.9945C25.6451 32.0574 25.5412 32.0983 25.4321 32.114C25.3231 32.1297 25.2118 32.1197 25.1073 32.0849C25.0028 32.05 24.9078 31.9913 24.83 31.9133L21.6651 28.7484C21.3995 28.4827 21.0392 28.3334 20.6635 28.3333H13.3365C12.9608 28.3334 12.6006 28.4827 12.335 28.7484L9.17013 31.9133C9.09229 31.9913 8.99732 32.05 8.89279 32.0849C8.78825 32.1197 8.67702 32.1297 8.56795 32.114C8.45887 32.0983 8.35496 32.0574 8.26447 31.9945C8.17399 31.9317 8.09942 31.8485 8.04671 31.7518L4.51213 25.2705C4.43708 25.1332 4.40958 24.975 4.43392 24.8205C4.45827 24.6659 4.53309 24.5238 4.64671 24.4163L7.39504 21.8209C7.19246 20.7202 7.08338 19.5826 7.08338 18.4167ZM9.17438 27.9027L10.3318 26.7453C11.1286 25.9482 12.2095 25.5002 13.3365 25.5H20.6635C21.7906 25.5002 22.8714 25.9482 23.6683 26.7453L24.8257 27.9027L26.2169 25.3527L24.6585 23.8793C24.3141 23.5541 24.0568 23.1476 23.91 22.6972C23.7633 22.2468 23.7318 21.7667 23.8185 21.301C23.9941 20.3603 24.0834 19.3956 24.0834 18.4167C24.0834 12.9342 21.2571 8.075 17 5.72333C12.743 8.075 9.91671 12.9342 9.91671 18.4167C9.91671 19.3956 10.006 20.3603 10.1816 21.3024C10.2683 21.7682 10.2368 22.2482 10.0901 22.6986C9.94331 23.149 9.68596 23.5555 9.34154 23.8808L7.78321 25.3527L9.17438 27.9027ZM17 18.4167C16.2486 18.4167 15.5279 18.1182 14.9966 17.5868C14.4652 17.0555 14.1667 16.3348 14.1667 15.5833C14.1667 14.8319 14.4652 14.1112 14.9966 13.5799C15.5279 13.0485 16.2486 12.75 17 12.75C17.7515 12.75 18.4722 13.0485 19.0035 13.5799C19.5349 14.1112 19.8334 14.8319 19.8334 15.5833C19.8334 16.3348 19.5349 17.0555 19.0035 17.5868C18.4722 18.1182 17.7515 18.4167 17 18.4167Z" fill="#1881DD"/>
</svg>
