<svg width="34" height="34" viewBox="0 0 34 34" fill="none" xmlns="http://www.w3.org/2000/svg">
<path d="M4.25 29.3334H29.75V32.1667H4.25V29.3334Z" fill="#1881DD"/>
<path d="M10.6668 21.7625L10.6668 7.44328L7.83391 7.44328L7.83391 21.7625L9.25036 23.1789L10.6668 21.7625ZM13.5007 22.9355L9.25036 27.1859L5 22.9355L5 6.02583C5.00006 5.65018 5.14931 5.28993 5.41493 5.02431C5.68056 4.75868 6.0408 4.60943 6.41645 4.60938L12.0843 4.60938C12.4599 4.60943 12.8202 4.75868 13.0858 5.02431C13.3514 5.28993 13.5007 5.65018 13.5007 6.02583V22.9355Z" fill="#1881DD"/>
<path d="M21.364 16.193L27.556 10L28.971 11.414L21.364 19.021L17 14.657L18.414 13.243L21.364 16.193Z" fill="#1881DD"/>
</svg>
