<svg width="34" height="34" viewBox="0 0 34 34" fill="none" xmlns="http://www.w3.org/2000/svg">
<path d="M16.9998 5.66666C25.6061 5.66666 32.5832 9.47182 32.5832 14.1667V19.8333C32.5832 24.5282 25.6061 28.3333 16.9998 28.3333C8.54659 28.3333 1.66584 24.6627 1.42359 20.0841L1.4165 19.8333V14.1667C1.4165 9.47182 8.39359 5.66666 16.9998 5.66666ZM16.9998 22.6667C11.7298 22.6667 7.069 21.2401 4.24984 19.0542V19.8333C4.24984 22.4995 9.75075 25.5 16.9998 25.5C24.0973 25.5 29.5203 22.6242 29.7428 20.0005L29.7498 19.8333L29.7513 19.0542C26.9321 21.2387 22.2713 22.6667 16.9998 22.6667ZM16.9998 8.49999C9.75075 8.49999 4.24984 11.5005 4.24984 14.1667C4.24984 16.8328 9.75075 19.8333 16.9998 19.8333C24.2489 19.8333 29.7498 16.8328 29.7498 14.1667C29.7498 11.5005 24.2489 8.49999 16.9998 8.49999Z" fill="#1881DD"/>
</svg>
