<svg width="142" height="142" viewBox="0 0 142 142" fill="none" xmlns="http://www.w3.org/2000/svg">
<path d="M124.25 17.75C125.819 17.75 127.324 18.3734 128.434 19.483C129.543 20.5925 130.167 22.0975 130.167 23.6667V118.333C130.167 119.903 129.543 121.407 128.434 122.517C127.324 123.627 125.819 124.25 124.25 124.25H17.7502C16.181 124.25 14.676 123.627 13.5664 122.517C12.4569 121.407 11.8335 119.903 11.8335 118.333V23.6667C11.8335 22.0975 12.4569 20.5925 13.5664 19.483C14.676 18.3734 16.181 17.75 17.7502 17.75H124.25ZM88.7502 29.5833H23.6668V112.417H88.7502V29.5833ZM118.333 29.5833H100.583V112.417H118.333V29.5833Z" fill="#E7EEF5"/>
</svg>
