<?xml version="1.0" encoding="utf-8"?>
<!-- Generator: Adobe Illustrator 21.1.0, SVG Export Plug-In . SVG Version: 6.00 Build 0)  -->
<svg version="1.1" id="Layer_1" xmlns="http://www.w3.org/2000/svg" xmlns:xlink="http://www.w3.org/1999/xlink" x="0px" y="0px"
	 viewBox="0 0 585 676.1" style="enable-background:new 0 0 585 676.1;" xml:space="preserve">
<style type="text/css">
	.st0{fill:#4786C6;}
	.st1{fill-rule:evenodd;clip-rule:evenodd;fill:#40C3F1;}
	.st2{fill-rule:evenodd;clip-rule:evenodd;fill:#2279BE;}
	.st3{fill:#FFFFFF;}
</style>
<g>
	<path class="st0" d="M585,507.2L292.6,676.1L0.2,507.4L0,169.8L292.4,0.9l292.5,168.7L585,507.2z"/>
	<path class="st1" d="M584,169.2l0.9,335.5L293,337.2L291.1,0L584,169.2z"/>
	<path class="st2" d="M293,338.4l291,167l-291,169L0,507.4L293,338.4z"/>
	<polygon class="st3" points="490.9,223.6 292.9,109.4 95,223.7 95,223.7 189.8,278.6 189.8,278.4 293,218.8 396.1,278.3 293,337.9 
		396.2,397.4 293,456.9 190.1,397.6 95.1,452.2 293.1,566.4 491,452.1 	"/>
</g>
</svg>
