<svg xmlns="http://www.w3.org/2000/svg" viewBox="0 0 28 28">
  <metadata><?xpacket begin="﻿" id="W5M0MpCehiHzreSzNTczkc9d"?>
<x:xmpmeta xmlns:x="adobe:ns:meta/" x:xmptk="Adobe XMP Core 5.6-c140 79.160451, 2017/05/06-01:08:21        ">
   <rdf:RDF xmlns:rdf="http://www.w3.org/1999/02/22-rdf-syntax-ns#">
      <rdf:Description rdf:about=""/>
   </rdf:RDF>
</x:xmpmeta>
                                                                                                    
                                                                                                    
                                                                                                    
                                                                                                    
                                                                                                    
                                                                                                    
                                                                                                    
                                                                                                    
                                                                                                    
                                                                                                    
                                                                                                    
                                                                                                    
                                                                                                    
                                                                                                    
                                                                                                    
                                                                                                    
                                                                                                    
                                                                                                    
                                                                                                    
                                                                                                    
                           
<?xpacket end="w"?></metadata>
<defs>
    <style>
      .cls-1 {
        fill: #333;
        fill-rule: evenodd;
      }
    </style>
  </defs>
  <path id="Forma_1" data-name="Forma 1" class="cls-1" d="M828.925,2508.66l-3.482-3.48a2.464,2.464,0,0,0-3.481,0l-1.582,1.58a1.861,1.861,0,0,1-2.637,0h0l-5.5-5.49a1.856,1.856,0,0,1,0-2.63l1.583-1.58a2.471,2.471,0,0,0,0-3.49l-3.482-3.48a2.462,2.462,0,0,0-3.48,0c0,0.01-1.161,1.16-1.161,1.16a8.893,8.893,0,0,0-.1,12.66l9.512,9.5a8.9,8.9,0,0,0,12.658-.11h0l1.161-1.16A2.464,2.464,0,0,0,828.925,2508.66Zm-20.9-17.41a0.821,0.821,0,0,1,1.16,0l3.481,3.49a0.819,0.819,0,0,1,0,1.16l-0.58.58-4.641-4.65Zm8.246,20.99-9.512-9.49a7.238,7.238,0,0,1-.452-9.73l4.624,4.62a3.509,3.509,0,0,0,.154,4.8l5.5,5.48a3.494,3.494,0,0,0,4.794.15L826,2512.7A7.227,7.227,0,0,1,816.266,2512.24Zm11.5-1.26-0.58.58-4.641-4.64,0.58-.58a0.821,0.821,0,0,1,1.16,0l3.481,3.48A0.821,0.821,0,0,1,827.764,2510.98Zm0.774-22.98h-9.845a2.461,2.461,0,0,0-2.462,2.46v6.57a2.468,2.468,0,0,0,2.462,2.46h0.82v2.46a0.823,0.823,0,0,0,1.4.58l3.041-3.04h4.583a2.468,2.468,0,0,0,2.462-2.46v-6.57A2.461,2.461,0,0,0,828.538,2488Zm0.821,9.03a0.823,0.823,0,0,1-.821.82h-4.922a0.8,0.8,0,0,0-.581.24l-1.881,1.88v-1.3a0.815,0.815,0,0,0-.82-0.82h-1.641a0.823,0.823,0,0,1-.821-0.82v-6.57a0.823,0.823,0,0,1,.821-0.82h9.846a0.822,0.822,0,0,1,.82.82v6.57h0Zm-2.462-5.75h-6.563a0.82,0.82,0,1,0,0,1.64H826.9A0.82,0.82,0,1,0,826.9,2491.28Zm-3.281,3.28h-3.282a0.82,0.82,0,1,0,0,1.64h3.282A0.82,0.82,0,0,0,823.616,2494.56Z" transform="translate(-803 -2488)"/>
</svg>
