<svg xmlns="http://www.w3.org/2000/svg" viewBox="0 0 30 30">
  <metadata><?xpacket begin="﻿" id="W5M0MpCehiHzreSzNTczkc9d"?>
<x:xmpmeta xmlns:x="adobe:ns:meta/" x:xmptk="Adobe XMP Core 5.6-c140 79.160451, 2017/05/06-01:08:21        ">
   <rdf:RDF xmlns:rdf="http://www.w3.org/1999/02/22-rdf-syntax-ns#">
      <rdf:Description rdf:about=""/>
   </rdf:RDF>
</x:xmpmeta>
                                                                                                    
                                                                                                    
                                                                                                    
                                                                                                    
                                                                                                    
                                                                                                    
                                                                                                    
                                                                                                    
                                                                                                    
                                                                                                    
                                                                                                    
                                                                                                    
                                                                                                    
                                                                                                    
                                                                                                    
                                                                                                    
                                                                                                    
                                                                                                    
                                                                                                    
                                                                                                    
                           
<?xpacket end="w"?></metadata>
<defs>
    <style>
      .cls-1 {
        fill-rule: evenodd;
      }
    </style>
  </defs>
  <path class="cls-1" d="M1646.27,2508.6c-0.32-.19-0.64-0.38-0.96-0.56a9.08,9.08,0,0,0,0-1.95l0.96-.57a1.261,1.261,0,0,0,.51-1.56h0l-0.69-1.66a1.267,1.267,0,0,0-1.46-.75c-0.36.09-.72,0.19-1.08,0.28a8.641,8.641,0,0,0-1.39-1.38c0.1-.36.2-0.72,0.28-1.08a1.25,1.25,0,0,0-.74-1.46l-1.66-.69a1.261,1.261,0,0,0-1.56.51l-0.57.96a9.08,9.08,0,0,0-1.95,0c-0.19-.32-0.38-0.65-0.56-0.96a1.261,1.261,0,0,0-1.56-.51l-1.67.69a1.26,1.26,0,0,0-.74,1.46c0.09,0.36.18,0.72,0.28,1.08a9,9,0,0,0-1.38,1.38c-0.36-.09-0.73-0.19-1.08-0.28a1.279,1.279,0,0,0-1.47.75l-0.68,1.66a1.261,1.261,0,0,0,.51,1.56c0.31,0.19.64,0.38,0.96,0.57a7.952,7.952,0,0,0,0,1.95c-0.32.19-.65,0.38-0.96,0.56a1.261,1.261,0,0,0-.51,1.56l0.68,1.67a1.272,1.272,0,0,0,1.47.74c0.35-.09.72-0.18,1.08-0.28a8.578,8.578,0,0,0,1.38,1.38c-0.1.36-.19,0.72-0.28,1.08a1.255,1.255,0,0,0,.74,1.46l1.67,0.69a1.1,1.1,0,0,0,.47.1,1.282,1.282,0,0,0,1.09-.61c0.18-.31.37-0.63,0.56-0.96a7.952,7.952,0,0,0,1.95,0c0.19,0.32.38,0.65,0.57,0.96a1.261,1.261,0,0,0,1.56.51l1.66-.69a1.245,1.245,0,0,0,.74-1.46c-0.08-.35-0.18-0.72-0.28-1.08a8.19,8.19,0,0,0,1.38-1.38c0.37,0.1.73,0.19,1.09,0.28a1.266,1.266,0,0,0,1.46-.74l0.69-1.67A1.261,1.261,0,0,0,1646.27,2508.6Zm-1.39,2.65c-0.34-.09-0.69-0.18-1.04-0.27a1.258,1.258,0,0,0-1.32.44,7.158,7.158,0,0,1-1.23,1.23,1.252,1.252,0,0,0-.44,1.32c0.1,0.34.19,0.69,0.27,1.03l-1.53.64-0.54-.93a1.251,1.251,0,0,0-1.24-.62,7.235,7.235,0,0,1-1.74,0,1.251,1.251,0,0,0-1.24.62c-0.18.31-.37,0.63-0.55,0.93l-1.53-.64c0.09-.34.18-0.69,0.27-1.04a1.264,1.264,0,0,0-.44-1.32,7.1,7.1,0,0,1-1.23-1.22,1.252,1.252,0,0,0-1.32-.44l-1.03.27-0.64-1.53c0.31-.18.62-0.37,0.93-0.55a1.251,1.251,0,0,0,.62-1.24,7.235,7.235,0,0,1,0-1.74,1.251,1.251,0,0,0-.62-1.24l-0.93-.54,0.64-1.53c0.34,0.08.69,0.17,1.03,0.27a1.252,1.252,0,0,0,1.32-.44,6.82,6.82,0,0,1,1.23-1.23,1.258,1.258,0,0,0,.44-1.32c-0.09-.35-0.18-0.7-0.27-1.04l1.53-.63c0.18,0.3.37,0.61,0.55,0.92a1.234,1.234,0,0,0,1.24.62,7.235,7.235,0,0,1,1.74,0,1.234,1.234,0,0,0,1.24-.62c0.18-.31.36-0.62,0.54-0.92l1.53,0.63c-0.08.34-.17,0.69-0.27,1.04a1.258,1.258,0,0,0,.44,1.32,6.513,6.513,0,0,1,1.23,1.23,1.258,1.258,0,0,0,1.32.44c0.35-.1.7-0.19,1.04-0.27l0.63,1.53c-0.3.18-.61,0.36-0.92,0.54a1.234,1.234,0,0,0-.62,1.24,7.235,7.235,0,0,1,0,1.74,1.234,1.234,0,0,0,.62,1.24c0.31,0.18.62,0.36,0.92,0.55Zm-3.71-5.94h0a4.575,4.575,0,1,0-4.23,6.33,4.669,4.669,0,0,0,1.75-.35A4.592,4.592,0,0,0,1641.17,2505.31Zm-2.99,4.74a3.23,3.23,0,0,1-2.48,0,3.2,3.2,0,0,1-1.75-1.75,3.244,3.244,0,0,1,1.75-4.23,3.323,3.323,0,0,1,1.23-.24A3.232,3.232,0,0,1,1638.18,2510.05Zm17.91-17.14c-0.23-.03-0.46-0.06-0.7-0.1a6.955,6.955,0,0,0-.49-1.16c0.15-.19.3-0.38,0.44-0.57a1.064,1.064,0,0,0-.11-1.38l-0.93-.93a1.065,1.065,0,0,0-1.38-.11c-0.19.14-.38,0.29-0.57,0.44a6.955,6.955,0,0,0-1.16-.49c-0.04-.24-0.07-0.47-0.1-0.71a1.075,1.075,0,0,0-1.06-.9h-1.31a1.073,1.073,0,0,0-1.05.9c-0.03.24-.07,0.47-0.1,0.71a6.955,6.955,0,0,0-1.16.49c-0.19-.15-0.38-0.3-0.57-0.44a1.078,1.078,0,0,0-1.39.11l-0.92.92a1.078,1.078,0,0,0-.11,1.39c0.14,0.19.29,0.38,0.43,0.57a6.168,6.168,0,0,0-.48,1.16c-0.24.04-.48,0.07-0.71,0.1a1.075,1.075,0,0,0-.9,1.06v1.31a1.073,1.073,0,0,0,.9,1.05c0.23,0.03.47,0.07,0.71,0.1a6.168,6.168,0,0,0,.48,1.16c-0.14.19-.29,0.38-0.43,0.57a1.078,1.078,0,0,0,.11,1.39l0.92,0.92a1.078,1.078,0,0,0,1.39.11c0.19-.14.38-0.29,0.57-0.43a6.168,6.168,0,0,0,1.16.48c0.03,0.24.07,0.48,0.1,0.71a1.073,1.073,0,0,0,1.05.9h1.31a1.075,1.075,0,0,0,1.06-.9c0.03-.23.06-0.47,0.1-0.71a6.168,6.168,0,0,0,1.16-.48c0.19,0.14.38,0.29,0.57,0.43a1.065,1.065,0,0,0,1.38-.11l0.93-.92a1.065,1.065,0,0,0,.1-1.39c-0.13-.19-0.28-0.38-0.43-0.57a6.955,6.955,0,0,0,.49-1.16c0.23-.03.47-0.07,0.7-0.1a1.073,1.073,0,0,0,.91-1.05v-1.31A1.075,1.075,0,0,0,1656.09,2492.91Zm-0.37,2.18-0.64.09a1.062,1.062,0,0,0-.88.77,4.9,4.9,0,0,1-.47,1.13,1.058,1.058,0,0,0,.08,1.18l0.39,0.51-0.67.67-0.51-.39a1.078,1.078,0,0,0-1.18-.08,5.089,5.089,0,0,1-1.13.47,1.049,1.049,0,0,0-.77.89c-0.03.21-.06,0.43-0.09,0.64h-0.94c-0.03-.21-0.06-0.43-0.09-0.64a1.063,1.063,0,0,0-.77-0.89,5.166,5.166,0,0,1-1.14-.47,1.062,1.062,0,0,0-1.17.08l-0.51.39-0.67-.67c0.12-.17.26-0.34,0.39-0.51a1.077,1.077,0,0,0,.08-1.18,4.9,4.9,0,0,1-.47-1.13,1.063,1.063,0,0,0-.89-0.77l-0.64-.09v-0.94l0.64-.09a1.063,1.063,0,0,0,.89-0.77,5.089,5.089,0,0,1,.47-1.13,1.078,1.078,0,0,0-.08-1.18c-0.13-.17-0.27-0.34-0.39-0.51l0.67-.67,0.51,0.39a1.043,1.043,0,0,0,1.17.08,5.166,5.166,0,0,1,1.14-.47,1.062,1.062,0,0,0,.77-0.88c0.03-.22.06-0.43,0.09-0.64h0.94c0.03,0.21.06,0.42,0.09,0.64a1.048,1.048,0,0,0,.77.88,5.089,5.089,0,0,1,1.13.47,1.06,1.06,0,0,0,1.18-.08l0.51-.39,0.67,0.67-0.39.51a1.06,1.06,0,0,0-.08,1.18,4.627,4.627,0,0,1,.46,1.13,1.088,1.088,0,0,0,.89.77l0.64,0.09v0.94h0Zm-6.34-3.19a2.72,2.72,0,1,0,2.72,2.72A2.723,2.723,0,0,0,1649.38,2491.9Zm0,4.23a1.51,1.51,0,1,1,1.51-1.51A1.515,1.515,0,0,1,1649.38,2496.13Z" transform="translate(-1627 -2487)"/>
</svg>
