<svg xmlns="http://www.w3.org/2000/svg" viewBox="0 0 25.97 26">
  <metadata><?xpacket begin="﻿" id="W5M0MpCehiHzreSzNTczkc9d"?>
<x:xmpmeta xmlns:x="adobe:ns:meta/" x:xmptk="Adobe XMP Core 5.6-c140 79.160451, 2017/05/06-01:08:21        ">
   <rdf:RDF xmlns:rdf="http://www.w3.org/1999/02/22-rdf-syntax-ns#">
      <rdf:Description rdf:about=""/>
   </rdf:RDF>
</x:xmpmeta>
                                                                                                    
                                                                                                    
                                                                                                    
                                                                                                    
                                                                                                    
                                                                                                    
                                                                                                    
                                                                                                    
                                                                                                    
                                                                                                    
                                                                                                    
                                                                                                    
                                                                                                    
                                                                                                    
                                                                                                    
                                                                                                    
                                                                                                    
                                                                                                    
                                                                                                    
                                                                                                    
                           
<?xpacket end="w"?></metadata>
<defs>
    <style>
      .cls-1 {
        fill: #333;
        fill-rule: evenodd;
      }
    </style>
  </defs>
  <path id="Forma_1" data-name="Forma 1" class="cls-1" d="M1038.3,2497.18a2.287,2.287,0,0,0-3.23,0c-0.27.28-2.02,2.03-2.29,2.3v-6.04a2.244,2.244,0,0,0-.67-1.62l-2.15-2.15a2.262,2.262,0,0,0-1.61-.67h-13.07a2.279,2.279,0,0,0-2.28,2.28v21.43a2.288,2.288,0,0,0,2.28,2.29h15.22a2.288,2.288,0,0,0,2.28-2.29v-6.77l5.52-5.53A2.287,2.287,0,0,0,1038.3,2497.18Zm-10.08-6.66a0.842,0.842,0,0,1,.67.23l2.15,2.15a0.835,0.835,0,0,1,.22.67h-3.04v-3.05Zm3.04,22.19a0.768,0.768,0,0,1-.76.77h-15.22a0.768,0.768,0,0,1-.76-0.77v-21.43a0.76,0.76,0,0,1,.76-0.76h11.42v3.81a0.76,0.76,0,0,0,.76.76h3.8V2501l-2.24,2.25-1.08,1.08a0.677,0.677,0,0,0-.18.29l-1.08,3.24a0.755,0.755,0,0,0,.96.96l3.23-1.08a0.83,0.83,0,0,0,.3-0.18l0.09-.09v5.24h0Zm-1.71-7.84,1.08,1.07-0.41.41-1.61.54,0.53-1.61Zm2.16-.01-1.08-1.07c0.57-.58,3.12-3.13,3.66-3.67l1.07,1.08Zm5.51-5.52-0.78.78-1.08-1.08,0.79-.78a0.749,0.749,0,0,1,1.07,0A0.76,0.76,0,0,1,1037.22,2499.34Zm-9.76-2.72H1016.8a0.76,0.76,0,1,0,0,1.52h10.66A0.76,0.76,0,1,0,1027.46,2496.62Zm-3.05,3.04h-7.61a0.765,0.765,0,0,0,0,1.53h7.61A0.765,0.765,0,0,0,1024.41,2499.66Zm0,3.05h-7.61a0.76,0.76,0,0,0,0,1.52h7.61A0.76,0.76,0,0,0,1024.41,2502.71Zm0,3.05h-7.61a0.76,0.76,0,0,0,0,1.52h7.61A0.76,0.76,0,0,0,1024.41,2505.76Zm3.05,4.67h-4.57a0.76,0.76,0,1,0,0,1.52h4.57A0.76,0.76,0,1,0,1027.46,2510.43Z" transform="translate(-1013 -2489)"/>
</svg>
