<svg xmlns="http://www.w3.org/2000/svg"  viewBox="0 0 36 29">
  <metadata><?xpacket begin="﻿" id="W5M0MpCehiHzreSzNTczkc9d"?>
<x:xmpmeta xmlns:x="adobe:ns:meta/" x:xmptk="Adobe XMP Core 5.6-c140 79.160451, 2017/05/06-01:08:21        ">
   <rdf:RDF xmlns:rdf="http://www.w3.org/1999/02/22-rdf-syntax-ns#">
      <rdf:Description rdf:about=""/>
   </rdf:RDF>
</x:xmpmeta>
                                                                                                    
                                                                                                    
                                                                                                    
                                                                                                    
                                                                                                    
                                                                                                    
                                                                                                    
                                                                                                    
                                                                                                    
                                                                                                    
                                                                                                    
                                                                                                    
                                                                                                    
                                                                                                    
                                                                                                    
                                                                                                    
                                                                                                    
                                                                                                    
                                                                                                    
                                                                                                    
                           
<?xpacket end="w"?></metadata>
<defs>
    <style>
      .cls-1 {
        fill: #333;
        fill-rule: evenodd;
      }
    </style>
  </defs>
  <path class="cls-1" d="M1454.77,2498.58l-9.2-9.35a0.791,0.791,0,0,0-1.12,0l-2.42,2.47a0.8,0.8,0,0,0-.24.57,0.838,0.838,0,0,0,.24.57l0.31,0.31-1.11,1.13a2.674,2.674,0,0,1-1.57.75l-6.32.01a2.025,2.025,0,0,0-1.18.38l-0.5-.51,0.31-.32a0.821,0.821,0,0,0,0-1.14l-2.42-2.46a0.773,0.773,0,0,0-1.12,0l-9.2,9.35a0.815,0.815,0,0,0,0,1.14l2.42,2.46a0.773,0.773,0,0,0,1.12,0l0.27-.26,1.16,1.18a4.084,4.084,0,0,1,.88,1.36l0.05,0.12a5.809,5.809,0,0,0,1.23,1.9l8.92,9.07a2.318,2.318,0,0,0,3.3,0,2.382,2.382,0,0,0,.51-0.79,2.313,2.313,0,0,0,2.59-.49,2.373,2.373,0,0,0,.48-0.73,2.312,2.312,0,0,0,2.76-.4,2.436,2.436,0,0,0,.41-2.81,2.3,2.3,0,0,0,.7-0.48v-0.01a2.409,2.409,0,0,0,0-3.36l-0.06-.06,1.51-1.53a7.132,7.132,0,0,0,1.39-2.06l0.05-.12a3.935,3.935,0,0,1,.88-1.36l1.16-1.19,0.26,0.27a0.809,0.809,0,0,0,1.13,0l2.42-2.46A0.827,0.827,0,0,0,1454.77,2498.58Zm-32.56,3.65-1.3-1.32,8.08-8.21,1.3,1.32Zm22.7,8.23h0a0.725,0.725,0,0,1-1.05-.01c-0.05-.04-4.64-4.68-4.64-4.68a0.791,0.791,0,0,0-1.12,0,0.815,0.815,0,0,0,0,1.14l5.78,5.87a0.774,0.774,0,0,1-.08.98,0.742,0.742,0,0,1-1.05,0l-6.15-6.22a0.791,0.791,0,0,0-1.12,0,0.815,0.815,0,0,0,0,1.14l5.19,5.27a0.789,0.789,0,0,1-.12.94,0.726,0.726,0,0,1-.52.22,0.749,0.749,0,0,1-.53-0.22l-5.7-5.77a0.785,0.785,0,0,0-1.13,0,0.815,0.815,0,0,0,0,1.14l4.9,4.97a0.789,0.789,0,0,1-.12.94,0.73,0.73,0,0,1-1.04,0l-8.92-9.07a3.961,3.961,0,0,1-.89-1.36l-0.04-.12a5.68,5.68,0,0,0-1.24-1.9l-1.16-1.18,6.38-6.49,0.79,0.8a1.942,1.942,0,0,0-.02.24v0.02a3.068,3.068,0,0,0,3.01,3.02h1.49l9.1,9.25A0.779,0.779,0,0,1,1444.91,2510.46Zm3.77-8.49a5.541,5.541,0,0,0-1.24,1.89l-0.04.12a5.114,5.114,0,0,1-1.05,1.53l-1.5,1.53-4.21-4.29a6.559,6.559,0,0,0,1.83-.28,0.48,0.48,0,0,0,.28-0.68l-0.29-.58a0.467,0.467,0,0,0-.55-0.25,6.423,6.423,0,0,1-3.02.01l-2.18-2.21-0.01.01a0.794,0.794,0,0,0-.56-0.23h0l-1.82-.01a1.465,1.465,0,0,1-1.42-1.45,0.442,0.442,0,0,1,.44-0.43l6.38-.01a0.448,0.448,0,0,0,.11-0.01,4.218,4.218,0,0,0,2.52-1.2l1.11-1.14,6.38,6.49Zm3.11-1.49-8.08-8.21,1.3-1.32,8.07,8.21Z" transform="translate(-1419 -2489)"/>
</svg>
