<?xml version="1.0" encoding="utf-8"?>
<!-- Generator: Adobe Illustrator 21.1.0, SVG Export Plug-In . SVG Version: 6.00 Build 0)  -->
<svg version="1.1" id="Capa_1" xmlns="http://www.w3.org/2000/svg" xmlns:xlink="http://www.w3.org/1999/xlink" x="0px" y="0px"
	 viewBox="0 0 512 512" style="enable-background:new 0 0 512 512;" xml:space="preserve">
<style type="text/css">
	.st0{fill:#308BE6;}
	.st1{fill:#FFFFFF;}
</style>
<g>
	<g id="XMLID_1_">
		<g>
			<path class="st0" d="M439.3,196.3h-48.3c3.5-9.9,13-17.1,24.1-17.1C426.3,179.3,435.8,186.4,439.3,196.3z"/>
			<path class="st0" d="M341.3,332.8c9.4,0,17.1,7.7,17.1,17.1c0,9.4-7.6,17.1-17.1,17.1s-17.1-7.6-17.1-17.1
				C324.3,340.5,331.9,332.8,341.3,332.8z"/>
			<path class="st0" d="M494.9,217v64.7h-17.1V234l16.4-16.3C494.4,217.4,494.7,217.2,494.9,217z"/>
			<polygon class="st0" points="494.9,119.5 494.9,136.6 473.6,136.6 456.8,119.5 			"/>
			<path class="st0" d="M182.5,119.5l-17.3,17.1H64c-19.6,0-36.8,10.2-46.7,25.6c-0.2-1.4-0.2-2.8-0.2-4.2
				c0-21.2,17.2-38.4,38.4-38.4H182.5z"/>
			<path class="st0" d="M147.8,153.7l-43.3,42.7H55.5c-11.5,0-21.8-5.1-28.8-13.1c4-16.9,19.2-29.6,37.4-29.6H147.8z"/>
			<path class="st0" d="M460.8,418.1v76.8H55.5c-21.2,0-38.4-17.2-38.4-38.4v-0.8c2.3,2,4.8,3.8,7.5,5.4l8.8-14.6
				c-4.1-2.5-7.6-5.7-10.5-9.4l-5.8,4.5v-16.5l0.6-0.1c-0.4-2.3-0.6-4.6-0.6-6.9h0V242.5c2.3,2,4.8,3.8,7.5,5.4l8.8-14.6
				c-4.1-2.5-7.6-5.6-10.5-9.4l-5.8,4.5V212l0.6-0.1c-0.4-2.3-0.6-4.6-0.6-6.9h0v-7c10,9.6,23.5,15.5,38.4,15.5h58.6h199.1h147.6v11
				v57.2H341.3c-37.6,0-68.3,30.6-68.3,68.3c0,37.6,30.6,68.3,68.3,68.3H460.8L460.8,418.1z M443.4,469.3v-17.1h-17.3v17.1H443.4z
				 M443.4,256V239h-17.3V256H443.4z M408.8,469.3v-17.1h-17.3v17.1H408.8z M408.8,256V239h-17.3V256H408.8z M374.2,469.3v-17.1
				h-17.3v17.1H374.2z M374.2,256V239h-17.3V256H374.2z M339.5,469.3v-17.1h-17.3v17.1H339.5z M339.5,256V239h-17.3V256H339.5z
				 M304.9,469.3v-17.1h-17.3v17.1H304.9z M304.9,256V239h-17.3V256H304.9z M270.2,469.3v-17.1h-17.3v17.1H270.2z M270.2,256V239
				h-17.3V256H270.2z M235.6,469.3v-17.1h-17.3v17.1H235.6z M235.6,256V239h-17.3V256H235.6z M201,469.3v-17.1h-17.3v17.1H201z
				 M201,256V239h-17.3V256H201z M166.3,469.3v-17.1H149v17.1H166.3z M166.3,256V239H149V256H166.3z M131.7,469.3v-17.1h-17.3v17.1
				H131.7z M131.7,256V239h-17.3V256H131.7z M97,469.3v-17.1H79.7v17.1H97z M97,256V239H79.7V256H97z M62.4,469.3v-17.1l-8.7,0
				c-2.4,0-4.7-0.2-7.1-0.6l-3.1,16.8c3.3,0.6,6.8,0.9,10.1,0.9L62.4,469.3z M62.4,256V239l-8.7,0c-2.4-0.2-4.7-0.2-7.1-0.6
				l-3.1,16.8c3.3,0.6,6.7,0.9,10.1,0.9c0,0,0.1,0,0.1,0L62.4,256z"/>
			<path class="st0" d="M494.9,298.7v102.4h-34.1H341.3c-28.2,0-51.2-23-51.2-51.2c0-28.2,23-51.2,51.2-51.2H494.9z M375.5,349.9
				c0-18.8-15.3-34.1-34.1-34.1s-34.1,15.3-34.1,34.1c0,18.8,15.3,34.1,34.1,34.1S375.5,368.7,375.5,349.9z"/>
			<path class="st0" d="M482.1,169.6c9.9,9.9,9.9,26.1,0,36.1l-4.3,4.3v-5.1c0-4.7-3.8-8.5-8.5-8.5H457c-4-19.4-21.2-34.1-41.8-34.1
				c-20.6,0-37.8,14.7-41.8,34.1h-45.6l11-11l-12.1-12.1l-23.1,23.1H128.9l42.5-41.9l34.4-33.9l97.3-95.9c9.9-9.9,26.1-10,36.1-0.1
				c0,0,0.1,0.1,0.1,0.1l94.7,96.2l33.9,34.4L482.1,169.6z M355.9,168.2l34.1-34.1L378,122l-34.1,34.1L355.9,168.2z M310.3,142.6
				L353,100l-12.1-12.1l-42.6,42.7L310.3,142.6z M250.6,151.2l76.8-76.8l-12.1-12.1l-76.8,76.8L250.6,151.2z"/>
			<path class="st1" d="M512,290.2v119.4c0,4.7-3.8,8.5-8.5,8.5h-25.6v-8.5h-17.1v8.5h0v-17.1h34.1V298.7v-17.1h8.5
				C508.1,281.6,512,285.5,512,290.2z"/>
			<path class="st1" d="M512,111v179.2c0-4.7-3.8-8.5-8.5-8.5h-8.5V217c15.6-16.4,15.6-42.4,0-58.7v-4.6h8.6v-17.1h-8.6v-17.1h-38.1
				L440,102.5h63.5C508.1,102.5,512,106.3,512,111z"/>
			<rect x="494.9" y="136.6" class="st1" width="8.6" height="17.1"/>
			<path class="st1" d="M494.9,158.3c15.6,16.4,15.6,42.3,0,58.7V158.3z"/>
			<path class="st1" d="M494.9,281.6v17.1H341.3c-28.2,0-51.2,23-51.2,51.2c0,28.2,23,51.2,51.2,51.2h119.4v17.1H341.3
				c-37.6,0-68.3-30.6-68.3-68.3c0-37.6,30.6-68.3,68.3-68.3h119.4v8.5h17.1v-8.5H494.9z"/>
			<path class="st1" d="M494.9,158.3V217c-0.2,0.2-0.5,0.5-0.7,0.7L477.8,234v-24.1l4.3-4.3c9.8-9.9,9.8-26.1,0-36.1l-14.2-14.5
				l1.5-1.5h21l3.9,3.9C494.5,157.8,494.7,158,494.9,158.3z"/>
			<polygon class="st1" points="494.9,136.6 494.9,153.7 490.4,153.7 473.6,136.6 			"/>
			<polygon class="st1" points="490.4,153.7 469.3,153.7 469.3,136.6 473.6,136.6 			"/>
			<rect x="460.8" y="409.6" class="st1" width="17.1" height="8.5"/>
			<rect x="460.8" y="281.6" class="st1" width="17.1" height="8.5"/>
			<polygon class="st1" points="477.8,209.9 477.8,234 475.3,236.5 463.3,224.4 			"/>
			<path class="st1" d="M477.8,204.9v5.1l-14.5,14.5h-2.5v-11H313.2v-2.5l14.6-14.6h45.6c-0.6,2.8-0.9,5.6-0.9,8.5h17.1
				c0-3,0.5-5.9,1.5-8.5h48.3c1,2.7,1.5,5.5,1.5,8.5h17.1c0-2.9-0.3-5.8-0.9-8.5h12.3C474,196.3,477.8,200.1,477.8,204.9z"/>
			<polygon class="st1" points="473.6,136.6 469.3,136.6 469.3,153.7 467.9,155.1 434,120.7 435.2,119.5 456.8,119.5 			"/>
			<rect x="460.8" y="452.3" class="st1" width="8.5" height="17.1"/>
			<rect x="460.8" y="239" class="st1" width="8.5" height="17.1"/>
			<path class="st1" d="M460.8,452.3v17.1h8.5v-17.1H460.8z M0,456.5v-38.3h0c0,3.4,0.3,6.7,0.9,10l16.2-3v16.5l-7.7,6
				c2.3,3,4.9,5.6,7.7,8.1v0.8c0,21.2,17.2,38.4,38.4,38.4h405.3v-76.8h17.1v85.3c0,4.7-3.8,8.5-8.5,8.5H55.5
				C24.9,512,0,487.1,0,456.5z"/>
			<path class="st1" d="M460.8,239V256h8.5V239H460.8z M460.8,281.6v-57.2h2.5l12,12.1l2.5-2.5v47.7H460.8z"/>
			<path class="st1" d="M457.9,204.9h-17.1c0-3-0.5-5.9-1.5-8.5H457C457.6,199.1,457.9,201.9,457.9,204.9z"/>
			<path class="st1" d="M457,196.3h-17.7c-3.5-9.9-13-17.1-24.1-17.1c-11.1,0-20.6,7.1-24.1,17.1h-17.7c4-19.4,21.2-34.1,41.8-34.1
				C435.8,162.2,453,176.9,457,196.3z"/>
			<polygon class="st1" points="456.8,119.5 435.2,119.5 435.2,102.5 440,102.5 			"/>
			<rect x="426.1" y="452.3" class="st1" width="17.3" height="17.1"/>
			<rect x="426.1" y="239" class="st1" width="17.3" height="17.1"/>
			<path class="st1" d="M440,102.5h-4.8v17.1l-1.2,1.2l-94.7-96.2c0,0-0.1-0.1-0.1-0.1c-10-9.9-26.1-9.8-36.1,0.1l-97.3,95.9l-1-1
				v-17.1h-5.1l91.3-90c16.6-16.6,43.6-16.6,60.3,0c0.1,0.1,0.1,0.1,0.2,0.2L440,102.5z"/>
			<rect x="391.5" y="452.3" class="st1" width="17.3" height="17.1"/>
			<rect x="391.5" y="239" class="st1" width="17.3" height="17.1"/>
			<path class="st1" d="M373.4,196.3h17.7c-0.9,2.7-1.5,5.5-1.5,8.5h-17.1C372.5,201.9,372.8,199.1,373.4,196.3z"/>
			
				<rect x="342.8" y="136.6" transform="matrix(0.7071 -0.7071 0.7071 0.7071 4.853 301.9563)" class="st1" width="48.3" height="17.1"/>
			<rect x="356.8" y="452.3" class="st1" width="17.3" height="17.1"/>
			<rect x="356.8" y="239" class="st1" width="17.3" height="17.1"/>
			<path class="st1" d="M341.3,315.8c18.8,0,34.1,15.3,34.1,34.1c0,18.8-15.3,34.1-34.1,34.1s-34.1-15.3-34.1-34.1
				C307.2,331.1,322.5,315.8,341.3,315.8z M358.4,349.9c0-9.4-7.6-17.1-17.1-17.1s-17.1,7.7-17.1,17.1c0,9.4,7.6,17.1,17.1,17.1
				S358.4,359.3,358.4,349.9z"/>
			
				<rect x="295.5" y="106.7" transform="matrix(0.7072 -0.707 0.707 0.7072 13.8385 263.9745)" class="st1" width="60.3" height="17.1"/>
			<rect x="322.2" y="452.3" class="st1" width="17.3" height="17.1"/>
			<rect x="322.2" y="239" class="st1" width="17.3" height="17.1"/>
			<polygon class="st1" points="338.8,185.3 327.8,196.3 303.6,196.3 326.7,173.2 			"/>
			<polygon class="st1" points="327.8,196.3 313.2,210.9 301.1,198.8 303.6,196.3 			"/>
			<polygon class="st1" points="327.4,74.4 250.6,151.2 238.5,139.1 315.3,62.4 			"/>
			<polygon class="st1" points="313.2,210.9 313.2,213.4 114.1,213.4 114.1,210.9 128.9,196.3 303.6,196.3 301.1,198.8 			"/>
			<rect x="287.6" y="452.3" class="st1" width="17.3" height="17.1"/>
			<rect x="287.6" y="239" class="st1" width="17.3" height="17.1"/>
			<rect x="252.9" y="452.3" class="st1" width="17.3" height="17.1"/>
			<rect x="252.9" y="239" class="st1" width="17.3" height="17.1"/>
			<rect x="218.3" y="452.3" class="st1" width="17.3" height="17.1"/>
			<rect x="218.3" y="239" class="st1" width="17.3" height="17.1"/>
			<polygon class="st1" points="205.8,120.5 171.4,154.4 170.7,153.7 170.7,136.6 165.1,136.6 182.5,119.5 204.8,119.5 			"/>
			<polygon class="st1" points="204.8,102.5 204.8,119.5 182.5,119.5 199.8,102.5 			"/>
			<rect x="183.6" y="452.3" class="st1" width="17.3" height="17.1"/>
			<rect x="183.6" y="239" class="st1" width="17.3" height="17.1"/>
			<path class="st1" d="M199.8,102.5l-17.3,17.1h-127c-21.2,0-38.4,17.2-38.4,38.4c0,1.4,0.1,2.9,0.2,4.2c-0.1,0.1-0.2,0.3-0.2,0.4
				v-0.4H0.2c-0.1-1.4-0.2-2.8-0.2-4.3c0-30.6,24.9-55.5,55.5-55.5H199.8z"/>
			<polygon class="st1" points="170.7,153.7 171.4,154.4 128.9,196.3 104.6,196.3 147.8,153.7 			"/>
			<polygon class="st1" points="170.7,136.6 170.7,153.7 147.8,153.7 165.1,136.6 			"/>
			<rect x="149" y="452.3" class="st1" width="17.3" height="17.1"/>
			<rect x="149" y="239" class="st1" width="17.3" height="17.1"/>
			<path class="st1" d="M165.1,136.6l-17.3,17.1H64c-18.1,0-33.4,12.6-37.4,29.6c-5.1-5.8-8.4-13.1-9.3-21.1
				c9.9-15.4,27.1-25.6,46.7-25.6H165.1z"/>
			<rect x="114.4" y="452.3" class="st1" width="17.3" height="17.1"/>
			<rect x="114.3" y="239" class="st1" width="17.3" height="17.1"/>
			<polygon class="st1" points="128.9,196.3 114.1,210.9 102.1,198.8 104.6,196.3 			"/>
			<path class="st1" d="M114.1,210.9v2.4H55.5c-14.9,0-28.4-5.9-38.4-15.5v-5.9h8.5c0-3,0.4-6,1-8.8c7,8,17.4,13.1,28.8,13.1h49.1
				l-2.5,2.5L114.1,210.9z"/>
			<rect x="79.7" y="452.3" class="st1" width="17.3" height="17.1"/>
			<rect x="79.7" y="239" class="st1" width="17.3" height="17.1"/>
			<path class="st1" d="M62.4,452.3v17.1l-8.7,0c-3.4,0-6.8-0.3-10.1-0.9l3.1-16.8c2.3,0.4,4.7,0.6,7.1,0.6L62.4,452.3z"/>
			<path class="st1" d="M62.4,239V256l-8.7,0c0,0-0.1,0-0.1,0c-3.4,0-6.8-0.3-10.1-0.9l3.1-16.8c2.3,0.4,4.7,0.4,7.1,0.6L62.4,239z"
				/>
			<path class="st1" d="M33.5,233.3l-8.8,14.6c-2.7-1.6-5.2-3.4-7.5-5.4v-14l5.8-4.5C25.8,227.7,29.4,230.9,33.5,233.3z"/>
			<path class="st1" d="M33.5,446.6l-8.8,14.6c-2.7-1.6-5.2-3.4-7.5-5.4v-14l5.8-4.5C25.8,441,29.4,444.2,33.5,446.6z"/>
			<path class="st1" d="M17.1,192.1v-29.5c0.1-0.1,0.2-0.3,0.2-0.4c0.9,8,4.3,15.3,9.3,21.1c-0.7,2.8-1,5.8-1,8.8H17.1z"/>
			<path class="st1" d="M17.1,204.9L17.1,204.9c0,2.3,0.2,4.7,0.6,6.9l-0.6,0.1V204.9z"/>
			<path class="st1" d="M17.1,418.2L17.1,418.2c0,2.3,0.2,4.7,0.6,6.9l-0.6,0.1V418.2z"/>
			<path class="st1" d="M17.1,441.7v14c-2.8-2.4-5.4-5.1-7.7-8.1L17.1,441.7z"/>
			<path class="st1" d="M17.1,418.2v7.1l-16.2,3c-0.6-3.3-0.9-6.6-0.9-10c0,0,0-0.1,0-0.2L17.1,418.2z"/>
			<path class="st1" d="M17.1,228.4v14c-2.8-2.4-5.4-5.1-7.7-8.1L17.1,228.4z"/>
			<path class="st1" d="M17.1,204.9v7.1l-16.2,3c-0.6-3.3-0.9-6.6-0.9-9.9c0-0.1,0-0.1,0-0.2L17.1,204.9z"/>
			<path class="st1" d="M17.1,192.1v5.9c-1.9-1.8-3.7-3.8-5.3-5.9H17.1z"/>
			<path class="st1" d="M17.1,162.6v29.5h-5.3c-1.1-1.4-2.1-2.8-3.1-4.3C9.5,178.5,12.4,169.9,17.1,162.6z"/>
			<path class="st1" d="M17.1,162.2v0.4c-4.7,7.4-7.7,16-8.4,25.2c-4.8-7.5-7.8-16.2-8.6-25.5H17.1z"/>
			<path class="st1" d="M11.8,192.1H8.6c0-1.5,0.1-2.9,0.2-4.3C9.7,189.2,10.7,190.7,11.8,192.1z"/>
			<path class="st1" d="M0,418.3V205h0c0,3.3,0.3,6.7,0.9,9.9l16.2-3v16.5l-7.7,6c2.3,2.9,4.9,5.6,7.7,8.1v175.7l-17.1-0.1
				C0.1,418.2,0.1,418.2,0,418.3L0,418.3z"/>
			<path class="st1" d="M0,205v-42.8h0.2c0.7,9.3,3.8,18.1,8.6,25.5c-0.1,1.4-0.2,2.9-0.2,4.3h3.2c1.6,2.1,3.4,4,5.3,5.9v7
				l-17.1-0.1C0.1,204.9,0.1,204.9,0,205L0,205z"/>
		</g>
		<g>
		</g>
	</g>
</g>
</svg>
